<?xml version="1.0" standalone="no"?>
<!DOCTYPE svg PUBLIC "-//W3C//DTD SVG 1.1//EN" "http://www.w3.org/Graphics/SVG/1.1/DTD/svg11.dtd" >
<svg xmlns="http://www.w3.org/2000/svg" xmlns:xlink="http://www.w3.org/1999/xlink" version="1.1">
<metadata>
Created by FontForge 20150318 at Sun Aug 16 16:03:10 2015
 By uniteet7
Copyright (c) 2014 by Arsek &#38; Erase. All rights reserved.
</metadata>
<defs>
<font id="vL1MSngA" horiz-adv-x="600" >
  <font-face 
    font-family="vL1MSngA"
    font-weight="400"
    font-stretch="normal"
    units-per-em="1000"
    panose-1="0 0 5 0 0 0 0 0 0 0"
    ascent="800"
    descent="-200"
    x-height="648.5"
    cap-height="630"
    bbox="-73.3913 -321.286 1259.73 893"
    underline-thickness="50"
    underline-position="-50"
    unicode-range="U+0020-25CA"
  />
<missing-glyph horiz-adv-x="500" 
d="M0 0v700h500v-700h-500zM250 395l170 255h-340zM280 350l170 -255v510zM80 50h340l-170 255zM50 605v-510l170 255z" />
    <glyph glyph-name=".notdef" horiz-adv-x="500" 
d="M0 0v700h500v-700h-500zM250 395l170 255h-340zM280 350l170 -255v510zM80 50h340l-170 255zM50 605v-510l170 255z" />
    <glyph glyph-name=".null" horiz-adv-x="0" 
 />
    <glyph glyph-name="nonmarkingreturn" horiz-adv-x="333" 
 />
    <glyph glyph-name="space" unicode=" " horiz-adv-x="200" 
 />
    <glyph glyph-name="exclam" unicode="!" horiz-adv-x="322" 
d="M237 325v-66q-19 4 -29 -5q-11 -11 -9 -44q-4 -5 -15 -9q-4 1 -13 1t-13 1q-14 5 -20 20q0 4 -1 11t-1 10q-14 -4 -16 10q-2 58 4 210q4 135 7 206q1 4 4 5q0 2 -2 6v4q7 10 17 8q5 0 27 2q8 0 11 -6q11 -4 11 -14q2 -14 2 -20q1 5 2 13.5t1 12.5q1 6 7 6t7 -6
q3 -39 5 -111.5t3 -88.5q4 -71 7 -103q1 -9 2 -26.5t2 -26.5zM211 164q20 0 34 -16.5t10 -36.5q-4 -24 -34 -33q-1 -1 -5 -3q-33 -14 -63 8q-6 4 -8.5 10t-2 10.5t1.5 8.5l1 5q-4 10 1.5 18t17.5 8q21 22 47 21z" />
    <glyph glyph-name="numbersign" unicode="#" horiz-adv-x="496" 
d="M229 281v-37h5q0 4 0.5 11t0.5 10q0 4 0.5 12t0.5 12h-6q0 -2 -0.5 -4.5t-0.5 -3.5zM284 276v12q-11 1 -33 1v-31v-15h23h10v33zM426 291q-6 -18 -22 -15q-17 4 -51 8v-3q0 -7 0.5 -19t0.5 -19q54 0 65 -4q9 -3 11 -12q9 -9 8 -22t-11 -21q-17 -14 -70 -12q2 -46 0 -61
q-2 -13 -13 -13q0 -5 1 -7q0 -17 -15.5 -22t-23.5 6q-13 4 -14 15q-5 21 -7 84q-2 0 -6.5 0.5t-7.5 0.5q-6 4 -12 1q-1 0 -1 -0.5t-1 -0.5h-6v-1v-12q-1 -3 -1 -31q0 -11 1 -16q0 -2 -3 -22q0 -11 -3 -12.5t-15 0.5q-9 2 -12 -4q-10 3 -25 1q-6 8 -7 14q-3 6 -3 12v7
q2 44 2 66q-2 0 -17 0.5t-21 1t-16 3.5t-16 9q-19 17 0 34l2 2q-3 4 -1.5 10t7.5 6q11 0 32 0.5t31 0.5q0 22 1 34v11q-60 -2 -90 -5q-9 -1 -13 8t2 15q-7 4 -6.5 12.5t8.5 12.5q25 10 84 14q5 1 16 1v21q3 75 4 83q3 17 19 9q0 4 2 14q1 8 9 8t9 -8q2 -42 0 -125q1 0 4 0.5
t4 0.5q1 14 2 41.5t1 40.5q0 4 4 4t4 -4q1 -27 1 -82h9h24q2 74 7 110q1 9 10 14t17 1q4 -3 14 -9q3 4 8.5 2.5t5.5 -6.5q4 -39 6 -116q63 -5 81 -13q15 -7 12.5 -23.5t-19.5 -18.5z" />
    <glyph glyph-name="dollar" unicode="$" horiz-adv-x="630" 
d="M316 502q-4 0 -12 -1t-12 -1v-3l24 3v2zM324 391q-1 14 -3 41.5t-3 41.5l-25 -2l3 -66q18 -10 28 -15zM342 191q-2 18 -5.5 55t-5.5 56q-15 9 -31 17l6 -132q24 2 36 4zM482 203q-40 31 -75 52q1 -10 3.5 -29t3.5 -28q43 4 68 5zM189 459q10 -5 29.5 -14.5t29.5 -13.5
q-1 12 -1 36l-59 -8h1zM575 202q9 -16 4.5 -37t-23.5 -27q-33 -9 -63 -12q-46 -4 -70 -7l3 -33q0 -4 1.5 -16t1.5 -18v-16t-2.5 -17.5t-7.5 -14.5q-6 -9 -18 -10.5t-19 5.5q-21 18 -28 86q-2 20 -4 28q-6 0 -20 -1.5t-21 -2.5q0 -5 1.5 -17t2 -19.5t-1 -18t-5.5 -17.5
q-8 -16 -23.5 -15t-23.5 16q-8 14 -6 66q-68 -6 -101 -10q-16 -1 -26 10q-4 18 -10 54q28 3 77 7q-2 1 -6 1q-42 2 -61 4q-5 0 -6.5 4t1 8t7.5 4q60 -4 120 -6q1 1 4 1l-3 164l-30 15q-5 2 -33 13.5t-40.5 18t-28.5 21.5t-21 33q-25 84 77 111q39 10 73 14q0 23 2 69
q2 15 17 14t17 -15q1 -9 2 -19.5t2 -23.5t2 -20q4 0 12 0.5t12 0.5q-1 9 -1 27q-2 68 1 84q4 19 22 21t33 -23q5 -6 -1 -16q3 -14 8 -65q0 -10 2 -28q76 -2 128 -13q25 -5 25.5 -31.5t-26.5 -28.5q-10 -1 -60 -1v-1q16 -1 50 -5q12 -2 10 -13.5t-14 -11.5q-68 4 -103 4
l12 -129q40 -25 84 -59q-9 9 -29 27q-4 3 -3 7.5t5 6t8 -1.5q58 -50 112 -111q5 -6 -1 -12v-1z" />
    <glyph glyph-name="percent" unicode="%" horiz-adv-x="497" 
d="M409 399q11 -5 5 -14q-148 -233 -176 -272l-3 -3q41 66 89 144q36 60 72 123q2 3 6.5 10.5t6.5 11.5zM148 300q-31 -1 -51.5 22t-13.5 53q7 28 33.5 50t53.5 12q2 1 7 1q2 1 4 -1.5t1 -4.5q20 -8 25 -37q8 -27 -1 -46q-6 -20 -22 -34t-36 -15zM189 69q-1 0 -3 -2
q-1 -1 -10 -13q-2 -5 -4 -5l-1 -1h-4q-7 5 -19.5 12.5t-15.5 9.5q-10 5 -15 -4l-6 -9h-11h-1q-12 10 -5 22l255 399q4 5 9.5 1.5t2.5 -8.5q-42 -74 -64 -111q2 3 4 7q6 9 41 64l1 -1q1 1 2.5 4t2.5 4t3 5t4 6h-1l1 1h1q3 6 10 11q21 14 44 1q-4 -5 -5 -11q-3 -9 5 -12
q2 -2 3 -2q-26 -38 -37 -58q-56 -96 -75 -127q-46 -76 -112 -183zM381 80q-1 0 -3 0.5t-3 0.5q-29 -4 -47.5 22t-4.5 52q11 22 36 30q7 3 17 3h4q22 4 42 -12t21 -39q1 -26 -17.5 -43.5t-44.5 -13.5z" />
    <glyph glyph-name="ampersand" unicode="&#x26;" 
d="M250 370v1q-2 -1 -6.5 -4l-7.5 -5q-10 -8 -16 -13q-15 -10 -31 -25q-4 -10 -5 -15q3 5 10 12q19 21 56 49zM271 438q-30 64 -44 97q1 -8 -1 -10.5t1.5 -11t3.5 -11.5t5 -11.5t6.5 -11.5t7 -11t7.5 -11t7.5 -10.5t6.5 -9.5v1zM243 542q20 -42 47 -92q57 41 73 85
q0 5 -2 15q-18 19 -52 22t-59 -10q-13 -8 -18 -16q7 3 11 -4zM513 182q-17 -28 -44 -51q2 -3 6 -9.5t6 -9.5q9 -17 -8 -27q-7 -13 -22.5 -15t-27.5 11q-7 7 -11 15h-1q-1 0 -1 -1l-2 -1q2 -8 -7 -11q-100 -26 -196 14l-2 1q-32 15 -52 34q-21 20 -36 48q-34 48 -23 90
q14 61 85 110q15 10 49 30q-36 62 -41 80q-17 61 22 90q32 26 80 26q16 0 24 -2q1 1 4 1q19 -2 34 -9q18 -6 26 -10q43 -22 40 -71q0 -1 -3 -7q-3 -30 -19 -56q-19 -33 -68 -69q44 -82 99 -175h1l1 1q15 42 12 86q-4 36 -12 59q-9 26 -8 40q2 2 3 2h1q8 4 13 6q7 4 18 6
q1 -1 3 -5q2 -5 7.5 -13t7.5 -11q1 -4 4 -8q1 1 4 2.5t4 2.5h1q1 1 2 1q8 4 11 4q9 -2 7 -10l3 -3h1v-4q1 -1 1 -4q13 -50 14 -55q4 -21 8 -59q-4 -22 -18 -64zM298 289q-6 11 -18.5 32t-18.5 31q-5 -3 -13.5 -9.5t-12.5 -9.5q-43 -35 -55 -62q0 -1 -1 -1l-1 -2
q2 -47 35 -77q43 -36 106 -41q15 2 30 6q-1 2 -11 19q-2 3 1 4t5 -2q6 -9 11 -19q9 3 17 7q-8 12 -14 23q-40 68 -60 101z" />
    <glyph glyph-name="quotesingle" unicode="'" horiz-adv-x="198" 
d="M56 648q13 71 39 102q11 14 31 7.5t16 -26.5q-3 -12 -13 -42.5t-13 -47.5t-19.5 -22.5t-30 3.5t-10.5 26z" />
    <glyph glyph-name="parenleft" unicode="(" horiz-adv-x="348" 
d="M314 581q-42 -18 -75 -61q11 -2 7 -11q-74 -148 -8 -316q3 -5 0.5 -9t-7.5 -5q8 -19 34 -69q12 -22 -12.5 -35.5t-38.5 6.5q-53 74 -79 158t-10 164q17 87 66 139q48 48 117 63q10 2 12.5 -8.5t-6.5 -15.5zM185 365q4 51 23 101q-19 -42 -22 -91q-1 -3 -1 -10z" />
    <glyph glyph-name="parenright" unicode=")" horiz-adv-x="331" 
d="M193 123q-3 -5 -6 -6q-12 -23 -23 -36q-15 -20 -38 -6.5t-11 36.5l2 2t1 2q3 10 13 37t13 42q13 52 15 87q6 90 -21 176q-1 4 1.5 7t6.5 3t5 -4q29 -92 25 -184v-1q7 53 0 96q-18 119 -114 222q-5 5 0 10t10 1q32 -20 64 -57l-21 28q-3 4 -1 8.5t5.5 5.5t7.5 -2
q91 -88 112 -211q12 -61 0.5 -132.5t-46.5 -123.5z" />
    <glyph glyph-name="asterisk" unicode="*" horiz-adv-x="365" 
d="M196 578q7 -8 20 -22t19 -22q-15 22 -38 45q0 -1 -1 -1zM306 639q-27 -20 -76 -36q35 -31 55 -56q11 -14 0 -27.5t-26 -9.5q10 -10 14 -15q7 -7 0 -12q-5 -4 -10 1q-38 45 -71 89q-10 -9 -29.5 -28t-29.5 -29q-1 -2 -3.5 -1.5t-3.5 2.5t0 4q10 10 14 16q-13 -13 -20 -19
q-10 -12 -26 -8.5t-22 16t4 27.5q24 28 48 46q3 2 7 4l1 1q-4 1 -12.5 3.5t-12.5 3.5q-21 6 -25 24t8.5 30.5t33.5 5.5q7 -2 20 -6.5t18 -6.5q0 3 -0.5 9.5t-0.5 10.5v49q0 25 22 28q10 2 19.5 -5t9.5 -18l6 -69q1 -2 1.5 -6t0.5 -6l2 2q41 22 48 24q13 4 21.5 -6t2.5 -21
q1 0 3 0.5t4 0.5q4 1 6.5 -4t-1.5 -8z" />
    <glyph glyph-name="plus" unicode="+" horiz-adv-x="476" 
d="M293 294h7q2 0 6.5 0.5t6.5 0.5h-20v-1zM405 244q-25 -3 -111 -5q1 -13 1 -41q1 0 1 -1q2 -15 -1 -28q5 -6 1.5 -13.5t-12.5 -5.5l-9 3q-1 0 -3 1v-1q5 -19 4 -25q0 -9 -9.5 -12.5t-14.5 4.5q-8 -6 -20 -4q-20 3 -25 26q-3 11 -3.5 23.5t0.5 29.5t1 23q0 13 1 19
q-11 0 -31.5 -0.5t-30.5 -0.5q-45 -2 -54 -2q-2 12 -4 16q0 23 -2 35q84 6 125 7v4q-76 0 -114 -1q-6 0 -6.5 5.5t5.5 6.5q53 7 116 10q6 65 17 103q3 8 13 11t17 -3l2 -2q9 -9 6 -22v-12q1 6 5 16q2 4 7 4t7 -4q7 -17 7 -78q1 -4 1 -11q55 0 82 -1q8 0 10 -6.5t-2 -12.5
t-12 -6h-7q2 0 6 -2q4 -1 8 -7h23q12 0 18.5 -9.5t3 -19.5t-16.5 -11z" />
    <glyph glyph-name="comma" unicode="," horiz-adv-x="210" 
d="M146 74q19 -28 2 -56v-4q-7 -22 -24 -38q-11 -14 -28 -24h-2q-2 -2 -10 -8q-8 -5 -13 2t2 13q17 19 21 35q2 1 2 3q-23 0 -34 30q-9 16 -6 36.5t19 28.5q7 5 18 5l1 -1h2h2q30 5 48 -22z" />
    <glyph glyph-name="hyphen" unicode="-" horiz-adv-x="420" 
d="M372 277q-9 -36 -52 -29q-5 1 -14.5 4t-13.5 3q-22 2 -34 2q-35 3 -63 2q-42 0 -63 -1q-54 -3 -64 0q-15 4 -16.5 19.5t11.5 24.5q2 1 8 5q-2 23 17 32q21 11 69 15q9 0 29 1t29 2q80 2 115 -12q12 -5 10 -15q18 -5 27.5 -20t4.5 -33z" />
    <glyph glyph-name="period" unicode="." horiz-adv-x="228" 
d="M165 69q14 -16 5 -35v-2q-1 -2 -1 -3q-9 -27 -37.5 -37.5t-51.5 7.5q-1 1 -2.5 2t-2.5 2q-9 0 -12 8q-3 12 -3 13q-5 10 -5 21q0 12 8 26q7 9 15 15q1 0 3.5 2t3.5 3q15 11 28 10h6q32 -2 46 -32z" />
    <glyph glyph-name="slash" unicode="/" horiz-adv-x="412" 
d="M355 508q-78 -148 -117 -221l-60 -111q-6 -10 -16.5 -32t-20 -39t-19.5 -30q-7 -8 -15.5 -4.5t-9.5 12.5q-11 1 -19.5 8t-8.5 18q1 21 24 65q9 21 29 61q10 21 30.5 62l30.5 61q91 174 132 237q7 12 20 4t8 -21t-113 -248q-4 -10 -7 -15q19 33 57.5 100t57.5 101
q3 5 8.5 5t8.5 -4t0 -9z" />
    <glyph glyph-name="zero" unicode="0" horiz-adv-x="490" 
d="M366 418q-8 29 -9 32q-19 57 -53 69q-25 9 -46 -10.5t-32 -48.5q-18 -48 -21 -91q-1 -12 -1 -34q0 -72 9 -144q3 -25 -20 -43q8 -16 28 -46q1 0 1 -1l2 -1q49 -34 90 -5q37 28 52 102q16 72 10 149q-3 43 -10 72zM466 214q-20 -95 -52 -139q-55 -71 -125 -75
q-68 -3 -120 52q-87 91 -92 252q-5 150 67 264q6 9 15 5q7 8 23 22q58 45 108 40q66 -6 109 -49q64 -64 76 -209q6 -82 -9 -163z" />
    <glyph glyph-name="one" unicode="1" horiz-adv-x="410" 
d="M372 72q0 -6 -6 -12q2 -20 -3 -33q-10 -31 -44 -31q-6 0 -11 5q-4 -1 -14 -1q-16 2 -27 12.5t-16 30t-7 31.5t-3 37.5t-1 28.5q-7 110 -1 207q1 9 2.5 25.5t1.5 24.5q-23 -17 -52 -35q-58 -32 -98 -25q-28 5 -40.5 30.5t0.5 51.5q5 9 14.5 17.5t16 12.5t21.5 11t19 9
q83 40 125 84q4 4 11.5 11t11.5 10q0 3 1 7t2 7q4 16 20 25t32 4h1q7 5 14.5 0t5.5 -13q12 -14 11 -28q-20 -156 -21 -234q-2 -67 2 -116q0 -2 0.5 -6t0.5 -6q2 80 4 119q3 65 9 130q4 44 7 66q6 46 7 48q2 0 3 -1q2 -8 2 -18t-1 -22.5t-1 -18.5q-4 -93 1 -445z" />
    <glyph glyph-name="two" unicode="2" horiz-adv-x="570" 
d="M462 -7zM548 23q-22 -25 -55 -31q-21 -4 -38 5q1 -1 4 -2t3 -2q-1 1 -4 1q-5 0 -25 3q-86 2 -129 1q-37 0 -125.5 -3.5t-136.5 -2.5q-9 0 -12 8t2 14q-4 8 -5 13q-3 13 2 27t16 20l10 5q7 5 19 15.5t14 11.5q7 5 20 15.5t19 15.5q28 23 84 67q4 3 26 21t28 23.5t24.5 21
t27.5 24t23.5 22.5t25.5 26t22 25q37 45 57 94q1 1 2 3.5t1 3.5h-15q-25 -4 -41 -10q-46 -16 -90 -50q-58 -46 -138 -171q-10 -16 -26.5 -21t-33.5 4q-12 8 -18 22.5t-2 28.5v1l1 2q-6 6 -6 15q2 27 27 72q14 29 43 61q50 61 111 96q53 31 100 43q26 7 59 10q36 4 54 -1
q47 -16 50 -57q19 -30 2 -72q-5 -12 -38 -65q-14 -21 -44 -63q-84 -111 -178 -187q5 0 14.5 2t14.5 2q84 10 168 6q13 0 16 -12q33 0 50 -1v-2q-8 -1 -24.5 -2.5t-24.5 -2.5q0 -3 -1 -5q8 0 25 -0.5t26 -0.5q26 -11 32 -37.5t-13 -49.5z" />
    <glyph glyph-name="three" unicode="3" horiz-adv-x="630" 
d="M612 91q-115 -68 -246 -86t-260 20q-21 7 -32 26t-6 40q6 21 26 33t40 5q36 -11 58 -16q99 -20 191 -4l30 6q41 11 57 17q33 10 61 26q3 6 -35 22t-53 20q-50 14 -111 14q-5 0 -27.5 -2.5t-32.5 -0.5h1q-50 -8 -95 -25q-19 -7 -38.5 4.5t-24.5 31.5q-6 21 4.5 38t31.5 25
q5 2 17 6t17 6q3 1 8.5 3.5t8.5 3.5q105 45 240 119q21 11 44 26l1 1h-2q-2 -1 -3 -1q-28 -5 -47 -10q-20 -4 -59.5 -11.5t-58.5 -11.5q-25 -6 -62 -13q-2 0 -26.5 -2.5t-34.5 -6.5q-8 -4 -17 -7q-11 -5 -21 -6q-39 -5 -55 23q-8 13 -6.5 30.5t13.5 28.5q6 6 13 11t16 10
t15 8t17.5 7.5t16 6t17.5 6t16 5.5q103 35 212 38q80 2 117 -13q31 -15 20 -53q4 -8 4 -11q4 -20 -7 -39t-22.5 -28t-33.5 -24q-35 -25 -101 -62l-16 -10q41 -4 87 -19q82 -27 119 -63q19 -19 32 -44.5t10.5 -54t-28.5 -43.5z" />
    <glyph glyph-name="four" unicode="4" horiz-adv-x="480" 
d="M506 309l-4 -4q-19 -19 -45 -14q-1 -2 -3 -4q-17 -12 -52 -18q-14 -59 -23 -100q-6 -25 -15.5 -75t-14.5 -75q-3 -14 -16.5 -21t-27.5 -3q-15 4 -22 19h-1q-24 3 -22 37q1 17 10 73q10 64 21 121q-22 -5 -64 -17q-7 -2 -19.5 -6t-18.5 -6q-3 -1 -12 -3t-15.5 -4.5
t-9.5 -6.5q-4 -6 -13.5 -7.5t-14.5 3.5q-1 1 -3 2.5t-3 2.5h-1q-32 2 -43 33q-8 24 10 68q15 41 22 67q16 62 26 143q1 4 2 17.5t2 20t4.5 16.5t8.5 17q18 21 41 2q21 28 49 11q15 -8 15 -26q-3 -77 -19 -148q-6 -28 -19 -73q-2 -5 -7 -22q42 14 64 20q7 2 21 5.5t20 5.5
q25 116 58 223q1 2 3 1t2 -3q-20 -92 -39 -186h6q32 148 46 185q11 31 39 30q27 -2 43 -18q19 -20 9 -54q-9 -25 -25 -75l-24 -81h1q22 17 46 10q1 0 2.5 -0.5t2.5 -0.5q26 -8 33.5 -35t-11.5 -47z" />
    <glyph glyph-name="five" unicode="5" horiz-adv-x="590" 
d="M535 69q-49 -45 -115.5 -59t-134.5 -3q-65 10 -124.5 46t-96.5 92q-12 22 -5 47.5t25 38.5q33 22 65 -10q52 -50 96 -77q128 -61 192 4q8 8 17 23.5t3 20.5q-78 79 -150 109q-64 25 -120 24q-5 0 -15 -2l-6 -3q-20 -9 -36.5 11.5t-10.5 42.5q11 40 25 103q-2 0 -3 1
q-5 2 -6.5 8.5t2.5 11.5q6 7 14 12q2 8 2 11q1 3 4 18.5t6.5 25t9.5 16.5q16 18 53 18q4 0 12.5 0.5t12.5 0.5l1 1q123 4 267 -12q31 -26 40 -64q8 -30 -12.5 -54.5t-47.5 -14.5q-55 21 -178 23q-63 0 -95 -2q-2 0 -8 -0.5t-9 -0.5q0 -5 -2 -17q8 0 57 -5q150 -23 236 -104
q62 -58 77 -127q21 -94 -42 -154zM385 291q-70 50 -177 68q-1 1 -3 1h-3q-2 -10 -4 -10q113 -19 185 -66q0 3 2 7z" />
    <glyph glyph-name="six" unicode="6" horiz-adv-x="570" 
d="M449 279q10 13 14 26q-48 9 -130 -50q-58 -43 -107 -128q0 1 1 1l1 2q-19 -33 -23 -53q15 0 30.5 6.5t32.5 18.5t28 21.5t29 26t23 21.5q30 28 65 64q3 4 16.5 19.5t19.5 24.5zM440 147q-37 -36 -66 -58q-7 -5 -19 -15t-18 -14q1 -1 1 -4q44 27 75 58q18 16 30 31l-1 1
q-2 0 -2 1zM374 535q-14 -10 -40 -32q-64 -57 -110 -130l-9 -15h4q65 97 157 173zM553 297l-2 -4q-1 -3 -5 -14q0 -1 -0.5 -2.5t-1.5 -2.5q-43 -104 -132 -181.5t-196 -98.5q-2 -1 -2.5 1.5t1.5 2.5q6 3 18 7t18 7q-71 -23 -112 10q-10 8 -15 16q-7 -2 -13.5 0.5t-7.5 10.5
v12v14.5v12.5q4 103 47 216q-4 -11 -14 -29t-14 -26q-35 -75 -49 -135l-3 -15q-2 2 -2 3q-4 13 4 44q3 13 11 39q29 83 75 154q26 40 47 67l1 2l3 3q56 82 132 138q57 44 91 48q20 2 34 -2q56 3 68 -42q2 -8 -3 -17t-13 -11q-7 -2 -24 -12q-5 -4 -19 -13.5t-21 -15.5
q-36 -30 -52 -47q-32 -30 -59 -65q13 7 31 12q79 24 121 9q29 -10 45.5 -36t12.5 -55v-5z" />
    <glyph glyph-name="seven" unicode="7" horiz-adv-x="580" 
d="M615 330q-8 -19 -34 -22q7 -5 8 -13.5t-5 -13.5q-8 -7 -15 -8.5t-18 0.5t-16 2q-18 -1 -55 -1q-7 0 -21.5 -1t-21.5 -1q-59 -100 -123 -234q-3 -5 -7.5 -5t-8 4.5t-0.5 9.5q65 127 126 225h-5q-1 -3 -4.5 -9t-5.5 -9q-55 -89 -88 -150l-9.5 -19t-12 -23t-12.5 -18
q-12 -17 -25 -26q-2 -1 -7.5 -4t-9.5 -5t-5 -4q-7 -6 -15.5 -5t-14.5 7q-14 -7 -27 4.5t-6 26.5q13 37 70 137q27 49 58 99q-98 6 -146 11q-2 0 -2 1t1 2l3 1q-8 2 -12 4q-19 7 -26 23.5t2 34.5l6 14q9 19 35 19q12 7 23 7q19 1 119 -1q9 0 28 -0.5t28 -1.5q34 58 52 86
q-165 3 -166 3q-30 -1 -90 -1q-68 -2 -85 0q-1 0 -1 1.5t1 1.5q11 4 20 5q-2 2 -2 3h-1q-11 -2 -21 0q-9 9 -9 15q-17 20 -11 47q7 32 56 36h21h79q121 -2 181 -5q10 0 36.5 0.5t45 -1t36.5 -5.5q34 -10 53 -35.5t10 -59.5q-8 -13 -63 -92h8h57q26 -2 34 -12q6 -6 9 -13
l1 -1q7 -16 0 -31z" />
    <glyph glyph-name="eight" unicode="8" horiz-adv-x="570" 
d="M228 571q1 0 3 0.5t3 0.5l-1 1q-28 5 -53 -11q-7 -6 -9 -16v-2q14 18 57 27zM331 562q-1 0 -1 -0.5t-1 -0.5q3 -1 17 -10t30 -16l-1 1q-1 2 -2.5 4t-4.5 4.5t-6.5 5.5t-8 5t-10 4t-12.5 3zM264 559q-50 4 -78 -13q-10 -6 -13 -13q2 -8 6.5 -15.5t12 -15.5t12.5 -12.5
l15 -13.5t13 -11q23 -21 71 -61q23 21 42 45q11 12 31 38q3 4 11 14q0 1 0.5 2.5t0.5 2.5t-1 3.5t-1 3.5q-74 43 -122 46zM526 75q-2 -1 -4 -3q-22 -36 -104 -57q-73 -18 -136 -21q-86 -4 -129 10q-74 22 -84 69q-7 42 9 67q4 7 41 57q28 36 84 110q17 23 19 25
q-22 24 -67 72.5t-68 72.5q-22 25 1 48l-2 7q-1 6 -3 12.5t-2 7.5q-2 22 13.5 37t39.5 21q21 5 47 7q67 13 128 1q123 -24 157 -89q26 -50 7 -103q-3 -8 -11.5 -20t-19.5 -25t-20.5 -23.5t-18.5 -20t-10 -10.5q0 -1 4 -5t5 -4q26 30 39 46q19 23 30 38.5t19.5 40.5t4.5 48
l2 1q14 -50 -30 -114q-15 -21 -54 -71q35 -34 62 -63q50 -57 62 -81q11 -20 9 -46t-20 -42zM384 198q-40 30 -60 46h-1q-16 -16 -24 -23q-18 -18 -52 -56q-36 -43 -19 -66q9 -11 26 -25q43 -23 89 -24q28 -2 53.5 10t33.5 36q10 35 -30 84q-10 12 -16 18z" />
    <glyph glyph-name="nine" unicode="9" horiz-adv-x="470" 
d="M132 434q73 41 144 61h-1h2h-6q-16 0 -46 -10q-12 -4 -35.5 -11.5t-35.5 -10.5q-5 -2 -32 -17q-42 -23 -47 -47v-10q3 8 11 15.5t13 11t18.5 10.5t14.5 8zM114 410q-24 -15 -29 -23q-4 -7 -2 -15q45 -6 95 18q46 22 73 48v1q6 7 16.5 21t15.5 21q-51 -13 -100 -35
q-36 -16 -69 -36zM432 495q-1 -8 -3.5 -16t-7 -17t-8.5 -15t-11 -16t-9 -14q-7 -11 -15 -23t-18 -26.5t-15 -22.5q-65 -91 -109 -175q-7 -13 -20 -40t-24 -47.5t-23 -38.5q-45 -69 -78 -37q-1 1 0 2t2 0q27 -20 62 37v2q5 17 10 28q-27 -58 -66 -66q-14 -2 -26 4t-15 19
q-2 9 -2.5 17.5t0.5 18t2 17t5 18t5.5 16t7 17.5t7 16t8 17l7.5 15q32 67 71 130q4 8 7 12q-5 -2 -15 -4q-3 -3 -7 -4q-73 -21 -128 8t-33 86q3 8 8 16q8 48 60 90q35 28 68 37q52 25 111 33q34 5 62 2q35 -2 53 -10q13 -4 24 -14q27 -2 41 -25q4 -8 6 -18q8 -12 6 -29z" />
    <glyph glyph-name="colon" unicode=":" horiz-adv-x="205" 
d="M143 370q11 -12 4 -28l-1 -2v-2q-7 -22 -29.5 -30t-41.5 6q-2 1 -4 3q-7 0 -10 7q-2 6 -2 10q-4 7 -4 17q0 11 6 21q6 8 12 12q1 0 3 2t3 2q11 9 22 8h5q27 -2 37 -26zM143 64q11 -12 4 -28l-1 -2v-2q-7 -22 -29.5 -30t-41.5 6q-2 1 -4 3q-7 0 -10 7q-2 6 -2 10
q-4 7 -4 17q0 11 6 21q6 8 12 12q1 0 3 2t3 2q11 9 22 8h5q27 -2 37 -26z" />
    <glyph glyph-name="semicolon" unicode=";" horiz-adv-x="205" 
d="M136 67q16 -23 2 -49v-3q-7 -20 -21 -33q-10 -13 -25 -21h-1q-3 -3 -9 -7q-7 -4 -11.5 2t1.5 11q16 18 19 30q1 1 1 3q-20 0 -29 26q-8 14 -5.5 32t16.5 25q7 4 16 4l1 -1h1h2q26 5 42 -19zM143 300q11 -12 4 -28l-1 -2v-2q-7 -22 -29.5 -30t-41.5 6q-2 1 -4 3
q-7 0 -10 7q-2 6 -2 10q-4 7 -4 17q0 11 6 21q6 8 12 12q1 0 3 2t3 2q11 9 22 8h5q27 -2 37 -26z" />
    <glyph glyph-name="less" unicode="&#x3c;" horiz-adv-x="372" 
d="M264 77l-6 3q-11 8 -29 28l-3 -3q16 -16 23 -25q8 -9 -1.5 -18.5t-19.5 -1.5q-6 4 -10 8q0 4 -3 9q-13 15 -52.5 58t-59.5 68q1 1 1 3t1 3q-3 0 -7 2q-5 5 -10 13q0 6 4 11q40 45 73 78q47 51 73 72q6 4 11 1h2q6 -2 16.5 -7t13.5 -6l18 -9q-8 -12 -34 -43q-8 -9 -23 -26
t-27 -31t-22 -27l-2 -4q0 -1 -2 -3q-5 -7 3 -15q3 -8 8 -13q8 -12 38 -44q10 -11 28 -29.5t24 -24.5q-4 -4 -12.5 -13t-13.5 -14z" />
    <glyph glyph-name="equal" unicode="=" horiz-adv-x="573" 
d="M128 394q9 7 21 10t31.5 5t23.5 3q17 3 48.5 6.5l40.5 4.5l84 9q7 0 21 2t21 2q12 1 52 -3q20 -4 33.5 -23t13.5 -39q0 -21 -13.5 -39.5t-33.5 -22.5q-19 -4 -44 -5t-39.5 0t-47 3.5t-40.5 3.5q-56 2 -83 5l-42 4q-2 0 -12.5 2.5t-15.5 1.5q-12 -1 -23 7.5t-14 19.5
q-7 26 18 43zM479 169q-47 -9 -91 -9q-14 0 -41.5 -0.5t-41.5 -0.5q-12 0 -39.5 -0.5t-44 -0.5t-39.5 1.5t-42 4.5q-17 3 -25.5 16t-8.5 28t9.5 29t24.5 18q27 7 89 11q11 1 24 2t28 2t24 2q132 8 159 5q24 -2 39.5 -17t15.5 -38q0 -18 -11.5 -34t-28.5 -19z" />
    <glyph glyph-name="greater" unicode="&#x3e;" horiz-adv-x="346" 
d="M287 275q-6 -8 -74 -84q-6 -7 -19 -21t-19 -21q-3 -3 -9 -10t-9.5 -11t-9.5 -8.5t-13 -7.5q-4 -2 -6 -2q-29 23 -37 31q0 3 1 4q4 8 7 12q-7 4 -3 10q27 36 64 78q30 37 41 48q-43 47 -95 93q-6 6 -2 12t11 5q-5 9 -4 18q6 3 9 6q12 9 20 12q3 0 5 -1q24 -16 70 -54
q34 -32 64 -67q11 -11 6 -24q8 -8 2 -18z" />
    <glyph glyph-name="question" unicode="?" horiz-adv-x="441" 
d="M163 540q84 -25 134 -88q-3 0 -5 2q-2 4 -4 6q-64 56 -125 80zM221 103q-19 -29 -42 -33q-14 -2 -27 5t-18 21q-8 25 7 47t39 25q12 2 18 -12q10 -3 18 -9q10 -6 11 -20.5t-6 -23.5zM380 412q-10 -35 -62 -46q-31 -6 -77 -8q-27 -2 -40 -1q-2 0 -6 -0.5t-6 -0.5
q2 -4 2 -7q2 -18 4 -52v30q0 7 6 8t6 -6q1 -18 2 -42t1 -41q1 -2 1 -5v-41q0 -9 -10 -9q-35 -2 -48 9q-11 8 -15 19q0 5 -1 10q-1 1 -5 9q0 3 -2 9h-1h-6q-5 112 -1 180q1 2 3 4q1 1 2.5 2t2.5 1l3 12q4 6 10 5q62 -8 92 -9l21 -1q20 -1 33 0.5t22 6.5q-5 10 -15 21
q-41 43 -85 62l-1 1q-2 0 -2 1h-1q-5 2 -85 25q-6 0 -12 4q-1 18 6 42q14 3 45 -6q3 5 9 10q19 -8 55 -22q-46 27 -100 38q-5 0 -6.5 4t1 7t7.5 3q65 -8 124 -37.5t97 -78.5q12 -12 22 -29q23 -40 10 -81z" />
    <glyph glyph-name="at" unicode="@" horiz-adv-x="660" 
d="M465 207q-43 -7 -64 24q-11 15 -16 37q-8 -14 -13 -20q-29 -35 -70 -38.5t-69 34.5q-20 38 -11 79t37 73q26 30 62.5 47.5t72.5 12.5q4 3 10 1q1 0 1 -1q1 -5 -1 -18l9 -2q9 -2 9 -9q4 -2 5 -5q2 0 2 -3v-2q4 -19 -6 -52q0 -45 18 -90q3 -4 -3 -7q9 -19 27 -5
q22 17 35 53q22 70 -21 124q-41 50 -116 50q-89 -2 -130 -42q-47 -44 -43 -133q2 -88 44 -134q45 -50 111 -53q60 -4 110 30t72 91q-28 -37 -62 -42zM291 534q1 0 3.5 1t3.5 1q-68 -12 -117.5 -61t-59.5 -117q-13 -92 43 -164q-23 49 -25 115q-2 90 34 145q38 60 118 80z
M372 407q-3 -1 -16.5 -8.5t-18.5 -10.5t-15.5 -9.5t-17.5 -13t-13 -13.5q-40 -49 -10 -92h1q18 -11 38 7t29 41q16 42 23 71q2 29 6 43q-55 -14 -82 -47q-4 -4 -6 -7q26 27 77 51q6 2 8 -3.5t-3 -8.5zM598 261q-21 -88 -94 -143.5t-162 -46.5q-42 5 -79 23q-3 0 -5 1
q-85 24 -132.5 104.5t-27.5 166.5q20 89 93.5 142t164.5 43q7 0 5 -8q125 0 177 -92q39 -65 18 -139l-6 -18q9 5 20 4q13 -2 22 -13.5t6 -23.5z" />
    <glyph glyph-name="A" unicode="A" horiz-adv-x="469" 
d="M366 30q-21 8 -67 215l-78 -1q-24 -97 -31 -180q0 -6 -4 -8t-8 0t-4 8q9 105 33 180h-9l-30 -151l-6 -45q-4 -43 -36.5 -57t-60.5 8t-22 66q14 100 33 175q-18 -2 -27 -2q2 5 1 9q-32 8 -41.5 39t16 63.5t80.5 40.5q26 120 56 193q1 3 9 20.5t11 24t11.5 20t16 19.5
t18.5 12t23 6q13 1 26 -7t19 -20q22 -2 36.5 -16t16.5 -38q4 -47 11 -120q1 -1 2 -1q2 58 7 102l3 -48q7 -117 11 -153q36 -4 54 -30t11.5 -56.5t-33.5 -47.5q29 -130 38 -200q5 -42 -11.5 -60.5t-40 -6.5t-34.5 47zM218 374l56 4q0 2 -6.5 57t-12.5 82q-29 -102 -37 -143z
" />
    <glyph glyph-name="B" unicode="B" horiz-adv-x="540" 
d="M350 386q-12 13 -38 37q-27 23 -33 27q-50 34 -86 46q-18 6 -27 8q-2 0 -8 1t-8 2h-3q11 -55 20 -130q49 7 98 9q43 1 85 0zM404 123q-49 43 -100 71q-67 36 -112 49q-4 2 -8 2q4 -29 12 -89q1 -10 3.5 -30t3.5 -30q34 4 68 6q63 2 120 -7q26 -3 52 -9q-21 23 -39 37z
M563 50q-13 -43 -105 -45q-23 -1 -65.5 3t-58.5 4q-75 4 -170 -8q-11 -7 -27 -7q-8 0 -11 1q-26 -4 -38 -7q-34 -5 -42 24q-1 2 -1 5q-6 9 -6 20q0 16 11 26.5t27 11.5q2 0 3 1q-2 60 -12 180q-37 11 -37 46q0 29 29 43l-1 2q-8 100 -13 150q-6 3 -26 18q-50 48 -26 80
q24 31 85 33q47 0 89 -15q45 -15 88 -38q11 -6 29.5 -17t44 -28t51 -37t51 -42t44 -44.5t29.5 -43.5t8 -40t-21 -33q-24 -20 -45 -18q-10 1 -21 2t-25 3t-23 3l-48 3q6 -3 16 -9q38 -23 68 -47q69 -54 123 -118q34 -32 26 -62z" />
    <glyph glyph-name="C" unicode="C" horiz-adv-x="520" 
d="M493 197q-24 -93 -80 -137q-52 -42 -119.5 -54.5t-131.5 11.5q-62 25 -107 77t-59 117q-7 37 -7 65q2 127 61 203q52 70 115 114q29 21 60 39q33 20 69 17q15 -1 24.5 -11t9.5 -23q6 -12 4 -39q-4 -31 0 -147q1 -31 3 -95q0 -18 2 -50q0 -37 -1 -41t-5.5 -6t-8.5 0
q-5 3 -6 5h-8q-18 5 -28 26q-3 5 -8 19h-3v-3q6 -22 18 -37.5t31 -12.5q10 2 15 -5t2 -15t-13 -9q-19 -2 -37.5 9t-26.5 29q-12 26 -14 96q-2 65 -6 193q-8 -6 -13 -9q-96 -74 -121 -205q0 -3 -1 -7t-1 -7q-1 -5 -1 -16q-1 -33 10 -69q37 -114 119 -119q2 0 6.5 -0.5
t6.5 -0.5q58 2 99 38q17 16 26 33q23 41 21 105q-2 34 -10 49q1 0 1 -2t1 -2q-11 21 -6 44.5t27 35.5q21 12 43.5 5.5t36.5 -26.5q42 -65 11 -182zM252 435h5q-3 59 1 111q-7 -6 -16 -11q2 -18 5.5 -51t4.5 -49z" />
    <glyph glyph-name="D" unicode="D" horiz-adv-x="575" 
d="M461 197q-30 46 -46 68q-48 64 -102 111q-55 51 -125 91q-12 6 -19 10q22 -106 46 -250q3 -15 8.5 -45t7.5 -45q54 -19 96 -28q34 -8 65 -9q39 0 60 6q28 7 42 19q-2 12 -14 36q-14 29 -19 36zM37 502q-1 6 -7 10q-2 2 -2 0q-1 -1 0 -5q7 -28 23 -98.5t26 -108.5
q5 -18 14 -53.5t13 -53.5q3 -2 9 -5.5t9 -4.5q-12 34 -16 51q-5 19 -33.5 131.5t-35.5 136.5zM576 91q-13 -31 -45.5 -52.5t-69.5 -30.5q-67 -16 -157 -2q-39 6 -74 15q-7 -15 -19 -18q-7 -1 -14 2q-7 -7 -16 -7q-23 -2 -37 8q-26 18 -34 55q-50 20 -94 43q-22 12 -28 37
t7 46q12 21 36.5 27.5t45.5 -5.5l2 -2t2 -1q-3 21 -7 35q-22 112 -68 334q-1 2 -2.5 6t-1.5 5q-4 14 4.5 26t22.5 14q10 2 14 2q6 18 31.5 26t46.5 6q31 -2 62.5 -18t50.5 -31.5t49 -44.5q99 -95 152 -156q30 -32 49 -57q44 -58 68 -106q49 -96 24 -156z" />
    <glyph glyph-name="E" unicode="E" 
d="M121 -13q27 -4 41 1q2 0 3 1q16 8 23 12q16 8 46 24v2q-36 -14 -55 -20q-46 -17 -58 -20zM343 330l-1 3q-16 -5 -47 -14.5t-46 -14.5q-47 -14 -58 -17q-3 -17 -16 -28q33 17 151 64q8 4 17 7zM23 528q75 40 212 76q4 1 11.5 3t11.5 3q82 16 125 19q9 1 27 1
q-69 -18 -118 -29q-136 -30 -202 -53q-30 -9 -67 -26q-4 2 0 6zM584 121q-2 -9 -10 -10q-117 -22 -219 -58q-68 -24 -101 -38h-1q-1 -1 -3.5 -2t-3.5 -1q-5 -3 -16.5 -7t-16.5 -7l-1 -1q-5 -4 -22.5 -10t-32 -10.5t-13.5 -3.5q-6 -1 -10 -1q-32 -6 -42 15q-3 6 -1 14
q-19 8 -29.5 27.5t-3.5 38.5q-4 22 -11 105l-12 120l-12 114q-19 21 -16 49t25 47l4 8q28 12 64 24q73 25 202 52q53 12 157 40q14 -2 20 -4t16 -6q3 -2 8.5 -6.5t7.5 -6.5q11 -35 6 -62q-16 -5 -50 -15q-39 -13 -68 -20q-4 -2 -6 -2q-134 -37 -161 -49q-51 -17 -95 -36
l-2 -2q0 -4 3.5 -26t3.5 -25q118 51 168 69q41 10 97 26q2 1 6.5 2t6.5 1q13 2 35 4q48 2 63 -24q1 -1 1.5 -2.5t1.5 -3t1 -2.5q4 -8 5 -12q1 -1 2 -1q13 -7 17 -25q3 -14 -4.5 -28.5t-21.5 -21.5q-9 -4 -20 -6.5t-24.5 -4t-21.5 -3.5q-39 -6 -73 -15q-80 -22 -142 -48
q-23 -10 -84 -40q1 -11 3 -32.5t3 -32.5v-4q1 0 1 1l2 1q22 10 66 28q56 22 85 33q30 12 45 17q48 18 72 26l39 12q6 1 16.5 5.5t15.5 5.5q27 6 47 -4.5t30.5 -33t15.5 -44.5t7 -47q1 -26 -19 -41z" />
    <glyph glyph-name="F" unicode="F" horiz-adv-x="530" 
d="M89 627q11 -4 33.5 -7t43.5 -4.5t23 -2.5h16q-6 2 -56 13t-72 19q3 -3 12 -18zM450 461q-24 -1 -47 11h-3q-4 1 -11 1l-63 6q-77 7 -130 17q-28 5 -55 12q2 -11 12.5 -51t11.5 -45h1q31 3 89 5q90 2 171 -7q22 0 41.5 -13.5t25.5 -34.5q8 -29 -11.5 -57.5t-50.5 -24.5
q-93 14 -188 12q-34 0 -51 -1q16 -98 17 -149q0 -26 0.5 -51.5t-11.5 -50t-36 -35.5q-16 -8 -34 -2t-23 25q-9 31 -7 64q-3 10 -6 36q-1 11 -3.5 30t-3.5 28q-3 35 -11 103q-12 3 -23 10q-21 14 -27 36.5t6 44.5q9 16 27 24q-14 80 -30 132q-5 14 0 27q-28 29 -18 73
q4 20 26 27t38 -7q39 -11 117 -29q3 5 7 4q73 -14 143 -21q11 -1 23 -2t27 -2t23 -2q54 -3 61 -5l1 -1q23 -10 34 -34.5t3 -47.5q-3 -24 -20.5 -39t-41.5 -16z" />
    <glyph glyph-name="G" unicode="G" horiz-adv-x="559" 
d="M556 405q-22 -58 -48 -99q-38 -63 -90 -110q-32 -34 -60 -53q-60 -42 -118 -57q-2 0 -5.5 -1t-5.5 -2q-35 -10 -67 -10q11 -12 77 4q35 9 67 26q48 23 120 89.5t116 161.5q2 -4 4 -6q-1 -5 -3.5 -15l-4.5 -18t-4 -15l-3 -9l-6 -12q-54 -84 -120 -137q-72 -56 -145 -73
q-39 -9 -79 -9q-23 3 -24 13q-35 2 -58 16q-33 19 -53 57q-40 43 -47 101q-16 108 77 216q76 88 173 118q2 10 13 13q132 35 225 16q72 -14 59 -52q-4 -12 -25 -16q2 -5 -1 -9t-8 -4q-11 0 -33 -0.5t-34 0.5q-33 0 -60 -4q-61 -9 -116 -38q-97 -53 -143 -152
q-27 -58 -27 -105q-2 -56 32 -77q2 -1 6.5 -2t6.5 -1q34 -6 72 4q4 1 11 3.5t9 3.5q49 21 88 59q41 40 74 93q10 16 28 48h-4q-11 -3 -33 -7.5t-33 -6.5q-20 -4 -42.5 -10.5t-49 -14t-42.5 -11.5q-32 -8 -45.5 23.5t15.5 47.5l6 3q-4 31 25 38q1 1 2 1q2 1 3 1q65 19 137 36
q110 26 139 30q19 2 35 -7t21 -27q7 -23 -4 -52z" />
    <glyph glyph-name="H" unicode="H" horiz-adv-x="530" 
d="M511 314v-3q-2 -17 -16.5 -27t-31.5 -8q-2 -52 -8 -148q-4 -47 -7 -73q-8 -56 -28 -68q0 -1 -1 -1q-4 -6 -13 -11q-27 -16 -47 9q-10 11 -12 40q-5 59 -6 116q-3 57 -3 115v37h-20q-58 0 -115 -3q2 -58 2 -87q0 -72 -5 -99v-3q0 -4 -1 -12.5t-1 -12.5q-5 -40 -17 -53
q-18 -21 -42.5 -20.5t-38.5 25.5q-3 5 -7 15q-13 0 -13 11q-2 24 -10 223q-2 0 -5.5 -2t-4.5 -2q-26 -11 -44.5 12.5t-0.5 47.5q5 8 16 17q11 18 36 26q-2 82 -4 122l-3 142q1 1 3 0q6 -28 18 -147q7 -68 11 -113l1 1q1 2 2 2h2q-2 147 -13 231q-2 17 8.5 31t27.5 16
q16 2 31 -8.5t16 -27.5v-2q5 0 11 -3q12 -5 15 -32l3 -48q6 -92 9 -137h2q35 5 105 11q5 1 16 2t16 2q-1 20 -3.5 62t-3.5 62q-7 24 -4 53.5t26 44.5q22 16 50 12.5t42 -27.5q7 -11 10.5 -26.5t4.5 -26t1.5 -30.5t0.5 -27v-9q2 -35 0 -71v-22q5 -1 13.5 -3t11.5 -3
q28 -9 33 -40.5t-15 -51.5zM239 319q-5 0 -16 -0.5t-17 -0.5q-2 -4 -4 -5v-4q59 6 116 6q7 -1 20 -1v5q-66 2 -99 0z" />
    <glyph glyph-name="I" unicode="I" horiz-adv-x="209" 
d="M81 553q13 0 21.5 2.5t11.5 4.5t2 2q-22 -6 -48 -1q-21 4 -29.5 19t-0.5 33q-7 -8 -13 -19q-7 -15 3 -23t19 -11q15 -5 34 -7zM14 577q-4 14 12 37q10 15 25 25q4 4 6 5q47 33 88 22q43 -11 57 -48q5 -15 -11 -27q-25 -18 -53 -24q-16 -19 -53 -19q-26 0 -46 8
q-22 7 -25 21zM185 53q-7 -12 -21 -17q2 -14 -10 -19q-18 -9 -38.5 -5t-34.5 18q-1 0 -1 1t-1 2q-7 3 -15 9q-5 5 -9 11t-6 11.5t-4 14t-3 13t-2.5 15t-1.5 13.5q-14 118 -13 223q0 82 3 109q5 34 21 50q2 4 8 10q15 10 21.5 14t23 11.5t27 3.5t16.5 -18q14 2 16 -12
q0 -18 -1 -54.5t-1 -55.5q0 -16 0.5 -34.5t1.5 -41t1 -34.5q0 -7 2 -25q1 0 2 -8.5t2.5 -17t2.5 -8.5q-6 131 1 247l7 2q-6 -211 23 -427q0 -5 -3.5 -7t-8 -0.5t-5.5 6.5zM74 461q-4 -13 -7 -27t-4.5 -31t-2 -27.5t-1.5 -31t-1 -27.5v-10v-2q2 -24 8 -72h3l-1 67q0 68 1 68
q0 65 13 103h-1q-7 -5 -7 -10z" />
    <glyph glyph-name="J" unicode="J" horiz-adv-x="460" 
d="M247 86q-15 0 -33 7q39 -30 71 -11q16 9 36 31q-33 -30 -74 -27zM289 452q-44 0 -70 7q-25 8 -31 22q0 -4 0.5 -11.5t0.5 -11.5q1 -8 26 -8q50 0 74 1v1zM352 604q-31 -12 -68 -1q0 -5 -3 -7q16 -9 36.5 -6.5t34.5 14.5zM255 638q9 13 26 24t33 13q27 5 46 -7q4 5 10.5 5
t11.5 -6q15 -26 2 -53t-41 -36q-16 -9 -47.5 -3.5t-32.5 27.5q-24 15 -8 36zM436 174q-11 -88 -58 -128q-36 -32 -77 -33q-22 -4 -46 0q-12 -1 -29 2q-61 13 -108 71q-44 50 -64 114q-13 38 -17 74q-3 3 -5 8q-21 124 34 148q35 14 57 -13q17 -20 12 -52q0 -1 1 -3
q-2 -60 11 -109q13 -51 54 -105q26 -19 50 -15q18 2 30 16.5t16 33.5q8 34 6 103q-2 62 -7 112q0 4 -1 12.5t-2 12.5q-21 0 -65 2q-1 0 -12 0.5t-16 1t-13.5 2.5t-12.5 6.5t-5 11.5q-1 8 -1.5 23t-0.5 20q0 34 1 38q3 12 16 17q-2 11 2 17q1 3 4 4q59 -17 133 -10h2h1
q19 2 57 8v-2q1 0 1 -1t1 -2q2 10 11 5q22 -383 10 -429q-14 -58 -46 -81q20 13 32 26q20 23 25 56.5t5 93.5q0 38 -3 88t-7 118t-6 112l2 1q2 1 4 1l2 1q2 -23 8 -89t8 -102q1 -9 5.5 -62t3.5 -62.5t-3 -61.5z" />
    <glyph glyph-name="K" unicode="K" horiz-adv-x="500" 
d="M510 39q-2 -1 -2 1t1 3q7 3 10.5 8.5t3.5 13.5t-1 16t-4 18t-5.5 17t-5.5 15.5t-4 10.5q-44 119 -132 216q33 -41 86 -141t56 -140q2 -21 -11 -37t-36 -16q-32 0 -45 28q-7 13 -7 28q-48 97 -145 203q-48 54 -77 75q-10 -4 -16 -6q-5 -2 -13.5 -5.5t-10.5 -4.5
q8 -84 18 -167l12 -66q1 -4 8.5 -27t9.5 -37q4 -16 -6 -24q-38 -32 -82 -16q-17 -2 -33 7t-24 26q-8 19 -15 88q-16 136 -21 204q-5 69 -11 205q0 9 -0.5 27t-0.5 27q-2 41 22 47q1 2 5 11q13 23 39 24t43 -17.5t8 -44.5q-4 -12 -6 -67l-3 -90q5 5 8 6q7 70 16 127h1v-7
q2 -72 4 -110q143 62 259 129q2 1 13 8t14.5 8.5t15 5t15.5 -0.5q24 -6 24 -35l3 3q8 6 15 0t3 -15q-24 -44 -64 -76t-101 -66q-5 -3 -13.5 -7t-12.5 -7q3 -2 7 -6t7 -6q-1 5 5 8.5t10 -0.5q94 -88 143 -201q24 -53 40 -114q10 -49 -17 -57z" />
    <glyph glyph-name="L" unicode="L" horiz-adv-x="470" 
d="M427 -12q-86 6 -164 2q-41 -2 -81 -6q-2 0 -34 -4.5t-47 -2.5q-2 0 0 2q15 7 79 17q54 6 76 8q86 8 171 6q6 0 8.5 -6t0 -11t-8.5 -5zM444 29q-176 12 -340 -32q-18 -5 -34.5 7.5t-15.5 31.5q0 5 0.5 14.5t0.5 14.5l3 117q-5 42 -16 142q-21 224 -25 283q-2 24 15.5 37
t41.5 9q13 -1 28 -9q16 -4 26 -11q10 -54 18 -108l5 -29q1 26 -2 78q-2 40 -15 64q-1 2 1 3t3 -1q8 -10 13.5 -21t8.5 -27t4.5 -23.5t4 -29t2.5 -24.5q5 -47 13 -152q6 -79 9 -159l3 -51q1 0 2 1v-2q0 -2 -0.5 -3.5t-0.5 -2.5q68 17 146 19h19h22h18q31 -2 44 -12
q22 -16 22 -34q0 -6 -2 -16q8 -10 12 -16q11 -18 -1 -39t-33 -19zM38 573q1 -9 2.5 -27.5t2.5 -27.5q3 -32 5.5 -68t5 -79t4.5 -67v55l-3 147q-3 69 2 85q2 22 3 34q2 5 5 10q-7 0 -15 -3t-11.5 -11t-3.5 -14t1.5 -18.5t1.5 -15.5z" />
    <glyph glyph-name="M" unicode="M" 
d="M168 572q-6 -4 -14 -6q0 -2 -1 -4q25 -100 42 -183q2 -2 2 -5q8 -20 11 -23q-11 57 -32 175q-4 30 -8 46zM353 268q-2 -15 -8 -45q1 -1 3 -1h1q26 111 65 227q-1 3 -2.5 10t-2.5 10q-30 -89 -56 -201zM598 20q-12 -21 -34.5 -27.5t-42.5 10.5q-18 4 -29.5 17.5
t-11.5 31.5q-3 128 -35 255q-10 42 -28 126q-36 -105 -63 -213q-24 -103 -35 -159q-1 -3 -3 -2.5t-1 2.5q-4 -20 -7 -30q-9 -24 -27 -29q-9 -2 -13 1q-9 0 -14 4q-6 -4 -9 3q-9 15 -17 45l-43 153q-16 58 -26 100q-6 16 -8 25q6 -122 9 -256q0 -16 0.5 -30.5t-6.5 -29
t-22 -20.5q-11 -5 -17 2q-2 2 -3 4q-21 -7 -35 7q-16 16 -23 72q-11 83 -13 172q-3 89 -3 178q-2 37 -1.5 87t7.5 87q1 4 6 4t6 -4q6 -39 8 -129q1 0 2.5 -11t2.5 -11v23q0 12 -0.5 35.5t-0.5 35.5q-2 42 7 61q0 17 17 27q24 15 50 7q30 -6 41 -35q9 -11 11 -27
q1 -11 11 -74q29 -177 62 -321q6 28 19 84t19 84q46 208 53 259q4 18 24 22q25 7 44 -4q10 8 24.5 8t23.5 -10q41 -41 58 -112q11 -45 27 -135q6 -32 8 -52q3 -11 10 -44q11 -59 19 -98q14 -68 16 -87q4 -51 -14 -82z" />
    <glyph glyph-name="N" unicode="N" horiz-adv-x="510" 
d="M52 107q-1 18 -10 222q-3 71 -5 215q-2 30 8 52q-1 -32 1 -96q1 -69 5 -209q2 -36 5 -113.5t4 -111.5l-4 12zM434 -3q-9 -6 -20 0q-27 12 -38 69q-2 12 -6 34l-174 311q-2 2 -16 22v-64v-75.5v-64.5q2 -40 4 -120q5 -23 1 -57t-30 -38q-20 -33 -57 -21q-16 4 -28 19
q-5 84 -11 252q-1 30 -2 64.5t-2 76t-2 64.5q-2 99 0 131q10 8 19 9q0 12 8 23q13 13 27 14t31 -11t28.5 -23t20.5 -23q40 -53 89 -142q32 -54 64 -120q2 -4 2 -10q6 -11 16 -31q-3 28 -25 154q-16 84 -23 108q-1 3 -3.5 11t-3 12t-1.5 11t0.5 12.5t4.5 11.5q7 12 17 18v1
l1 1q8 15 27.5 16.5t31.5 -8.5q3 -1 7 -5l15 -57q18 -65 35 -179q25 -152 39 -369q-20 -27 -46 -27zM490 34q-2 0 -4 -3q-22 321 -76 567q-2 6 3 11q4 5 11 4t8 -8q58 -282 57 -528q3 -19 1 -43zM164 156l-3 -3q-1 0 -2 -1l-1 -60q0 -2 4 -28.5t0 -35.5q10 17 8 34
q-2 40 -4 59q0 11 -2 35z" />
    <glyph glyph-name="O" unicode="O" horiz-adv-x="420" 
d="M253 478q-12 36 -19 53q-8 18 -10 22q-2 2 -4 2h-5q-6 -11 -13 -34q-18 -60 -25 -111q-14 -114 4 -225q3 -17 -4 -30q-49 228 31 397q-5 -3 -14 -19q-27 -53 -40 -119l-2 -4q-4 -23 -8 -69q-4 -96 20 -201q-5 -4 -11 -5q-19 -5 -36 7q1 0 1 -1q15 -30 40 -50t54 -11
q17 6 27 24q10 19 14 34q23 64 23 146q-9 114 -15 150q-1 7 -3.5 22t-4.5 22zM385 242q-10 -110 -47 -163q-18 -25 -37 -41q-30 -30 -70 -36q-17 -2 -33 0q-51 -9 -97 28q-58 50 -77 159q-33 209 65 372l2 2q15 40 40 72q1 1 2 1t0 -2q-12 -20 -16 -30q-5 -11 -13 -33h2.5h3
h2.5q30 66 73 75q24 9 39 8q26 6 43 -4q14 -9 30 -38q15 6 23 -8q27 -52 38 -84q11 -36 20 -91q16 -102 7 -187z" />
    <glyph glyph-name="P" unicode="P" horiz-adv-x="470" 
d="M282 313q-16 2 -55 10q0 -1 0.5 -4t1.5 -4q8 -2 11 -2q79 -12 119 -8q3 0 19 2.5t19 3.5q0 1 -10.5 0t-10.5 0q-47 -6 -94 2zM334 447q-58 34 -87 50q-44 22 -67 32q20 -76 28 -115q33 -11 64 -18q56 -12 101 -8q8 0 20 2q2 0 4 1t4 1q-2 4 -4 6q-12 18 -63 49zM232 137
q6 -68 -11 -100l1 -1q0 -2 1 -2q6 3 10 7q16 36 3 98q0 3 -3 15.5t-3 15.5v-4v-5.5v-3.5q0 -4 1 -10.5t1 -9.5zM454 340q-13 -23 -35.5 -35.5t-54 -13.5t-53 1t-53.5 7q-5 1 -14 2.5t-13 2.5q1 -7 3.5 -18.5t3.5 -16.5q20 -109 24 -148q4 -44 -5 -72q-7 -25 -30 -46
q-29 -24 -44 -5q-9 11 -13 51q-4 23 -5 38q-7 24 -12 51q2 -20 4 -31q4 -33 7 -52q3 -35 1 -40q0 -1 -1 0q-5 7 -10 44q-3 18 -9 52q-2 16 -7.5 50t-8.5 53q-6 35 -19 124q-48 19 -92 42q-1 1 0 2t2 0q38 -18 89 -37q-1 3 -2 8.5t-2 8.5q-23 9 -67 29q-16 7 -20.5 26.5
t4.5 33.5q7 12 22 18.5t28 1.5l6 -3q-20 75 -40 131q-4 12 2.5 23t18.5 15q-1 12 10 21q40 28 108 -6q33 -17 95 -57q88 -59 179 -140q12 -10 10 -23q9 -15 12 -30q6 -39 -19 -62z" />
    <glyph glyph-name="Q" unicode="Q" horiz-adv-x="440" 
d="M280 510q-20 23 -36 32q-16 -7 -25 -15q-21 -21 -34 -54q-4 -9 -10 -29q5 1 12 -4q10 -7 7 -20q-22 -102 -12 -197q5 -58 15 -96q0 -1 2.5 -10t3 -11t3 -10t4 -11t5 -9t6.5 -9t8 -6.5t10 -5.5q31 0 56 18q-74 97 -83 111q-1 1 0 2t2 0q13 -13 64 -73q2 3 -14 26.5
t-30 37.5q-2 2 -11 11.5t-13 14.5q-16 30 7 54q12 13 34 13.5t36 -9.5q27 -17 41 -43q17 -28 28 -51q6 26 8 64q2 78 -18 152.5t-66 126.5zM381 115q1 -2 3.5 -7.5t3.5 -8.5q8 -18 12 -28q13 -34 3 -48l-2 -2q-5 -15 -19 -20q0 -1 -1 -2q-5 -9 -15.5 -8t-15.5 10
q-9 -4 -19 0t-14 15l-2 1q-1 1 -8 13q-40 -33 -87 -32q-3 1 -10 1q-23 -2 -39 2q-56 14 -85 62q0 1 -0.5 1t-0.5 1q-1 1 -1 3q-8 15 -11 28q-41 111 -36 269q4 86 19 133q11 34 23 56q22 34 34 42q2 2 2 -1q-4 -8 -16 -26.5t-17 -29.5q-14 -33 -19 -60q-12 -59 -14 -136
q6 13 11 32v3q5 37 13 67q0 3 1 5q12 77 39 113q47 61 106 64t101 -46q71 -84 89 -206q23 -161 -29 -259q1 0 1 -1z" />
    <glyph glyph-name="R" unicode="R" horiz-adv-x="590" 
d="M164 534q0 -1 1 -3.5t1 -3.5q3 3 6.5 3.5t6.5 -1.5t3 -6q10 -42 14 -63q2 0 7.5 -1t8.5 -1q2 9 9 15q30 19 86 -27q16 -2 48.5 -6t48.5 -6q-131 90 -243 116q1 -3 2 -8t1 -8zM235 84q-8 176 -19 248h8q10 -58 20 -178q1 -16 0 -27t-4.5 -23.5t-4.5 -19.5zM570 381l-3 -21
q-1 -14 -13 -25t-24 -9q-47 3 -141 11q41 -61 72 -124q3 -5 10.5 -21.5t10.5 -22.5t10 -22.5t9 -23t7.5 -23.5t5 -23.5t2.5 -24t-1 -24.5q-2 -16 -16 -21t-27 1q-16 -2 -27 3q-2 0 -2 1q-6 -6 -13 -3q-21 55 -58 140q-43 102 -57 129q-8 18 -16 31v1q-9 13 -17 28
q-13 0 -39.5 2t-39.5 2q8 -75 11 -137q7 -115 5 -149q1 -6 1 -17q-10 -19 -23 -30q-9 -9 -22.5 -8.5t-22.5 10.5q-5 8 -6 16q-6 -2 -12 3t-6 13q-3 12 -4 37.5t-1 29.5l-9 66l-24 141q-1 6 -3 17.5t-3 17.5h-6q0 6 -6 7q-11 3 -33 11q4 0 11.5 1t11.5 2q-15 6 -30 16
q-21 13 -15 40.5t29 27.5q6 1 18 1q-16 76 -22 103q13 10 21 22q-15 13 -21 31t2 36q12 24 50.5 25t61.5 -7q5 0 9 -4q3 -2 10 -4.5t11 -3.5h1q1 -1 2 -1q51 -16 111 -47.5t93.5 -53t102.5 -68.5q10 -8 14 -22q10 -7 41 -31q24 -18 19 -52z" />
    <glyph glyph-name="S" unicode="S" horiz-adv-x="509" 
d="M479 363q0 -6 8 -49q3 -10 -2.5 -19.5t-15.5 -12.5q-33 -8 -49.5 23.5t-22.5 77.5q-1 0 -1 0.5t-1 0.5q-40 59 -121 96q-38 17 -78 26q7 -6 20.5 -19t20.5 -20q56 -55 94 -96q64 -69 85 -95q30 -38 38 -75q19 -42 13 -78q-1 -47 -42 -80t-91 -35h-3q-50 -7 -104 8
q-33 7 -62 26q-7 -30 -24 -44q-7 -8 -18 -8t-18 8q-20 20 -24 46q-8 9 -11 26q-9 82 -32 167q-8 31 -16 95q-9 63 -4 88q3 14 14 26t25 14q40 5 52 -30q10 -31 22.5 -99.5t24.5 -103.5q17 -44 39 -68q21 -21 33 -30q16 -5 36 -7q31 -3 64 0t41 15q3 3 3 9q5 12 -8 38
q-1 2 -3.5 7.5t-3.5 8.5q-9 12 -29 36q-50 59 -97 108q-13 15 -41 43l-15 12q-75 61 -127 128q-37 51 -28 87q6 25 26 39t45 12q28 -3 65 -15q7 2 15 -1q82 -24 150 -69q40 -26 64 -47l5 -5q0 34 -1 51q0 20 14.5 34.5t34.5 14.5q21 0 34 -14t15 -35q1 -36 1 -47.5t-4 -48
t-5 -47.5q-1 -37 0 -73z" />
    <glyph glyph-name="T" unicode="T" horiz-adv-x="580" 
d="M571 589q-2 -6 -4 -10q-2 -34 -21 -47q-5 -4 -15 -6q-4 -4 -7 -4q-87 -17 -152 -26q0 -22 -0.5 -66t-0.5 -66q0 -30 0.5 -91t0.5 -92q0 -18 2 -53t2 -52q-4 -46 -24 -62v2q0 7 1 21t1 21v38q-1 -5 -4.5 -29.5t-7.5 -36.5q-5 -16 -21 -24.5t-32 -3.5q-49 15 -53 98
q-4 62 0 154q6 100 8 155l2 44v32h-39q-41 0 -80 3q-43 6 -61 17q-23 16 -32 39q-15 8 -22.5 24.5t-3.5 34.5q5 16 18.5 27t29.5 10q99 -9 164 -9v1l1 2q-81 4 -162 18q-3 0 -2 4q1 2 3 1q203 -12 419 7q11 2 31 4h5h6h6q7 1 22 2.5t23 2.5q4 0 6.5 -4t1.5 -8.5t-6 -5.5
q-5 0 -7 -1q4 -2 6 -4q17 -10 16.5 -32t-18.5 -29zM127 512q26 -2 53 0q-66 7 -119 23q23 -21 66 -23z" />
    <glyph glyph-name="U" unicode="U" horiz-adv-x="510" 
d="M482 193q-27 -88 -76 -133q-3 -2 -7 -6q-21 -23 -44 -34q-55 -30 -113.5 -13t-98.5 64q-25 29 -42 65q-24 -2 -32 19q-73 184 -24 393q10 45 35.5 76.5t66.5 25.5q39 -5 54 -42q4 -20 3.5 -31.5t-5 -34t-5.5 -32.5q-4 -53 -1 -113q7 -110 50 -224q24 -19 47 -20
q29 6 50 24q7 10 11 23t6.5 29t3.5 27t1.5 29t0.5 23q6 89 4 268q-1 22 20 34.5t40 1.5v10q0 8 6 14.5t14 5.5q21 -2 33 -18.5t14.5 -31t4.5 -40.5q1 -8 2.5 -22.5t2.5 -26.5t1 -23v-40q7 -143 -23 -247zM190 545q-4 -2 -6 2q-4 -18 -8 -26q-13 -111 5 -203q2 -16 8 -38
q2 0 3 -1q-24 134 -2 266z" />
    <glyph glyph-name="V" unicode="V" horiz-adv-x="470" 
d="M456 542q0 -59 -13 -127q-16 -81 -32 -121q-9 -23 -48 -113q-2 -4 -2 -5q-8 -14 -11 -21q-13 -23 -26 -43q-13 -18 -37 -42.5t-55 -48t-59.5 -22.5t-40.5 36q-4 11 -10 33q-22 8 -22 33q1 26 -2 59q0 3 -1 4q-1 6 -1 17q-4 29 -5 41q-7 57 -18 114q-15 84 -22 115
q-3 13 -8.5 36t-9.5 42t-6 36q-1 3 1.5 4t4.5 -1q2 -3 5 -9.5t4 -9.5q-6 16 -9.5 33t-4.5 37.5t9.5 32.5t32.5 11q62 -5 87 -91q20 -76 36 -162q5 -21 20.5 -109.5t16.5 -92.5q36 99 54 185q27 146 23 276q0 6 5 8.5t10 0t5 -8.5q11 -264 -92 -485q2 -2 2 -11
q62 116 82.5 234.5t19.5 264.5q34 7 64 -10q12 9 25 -2q12 -12 23 -55q7 -26 5 -63z" />
    <glyph glyph-name="W" unicode="W" horiz-adv-x="670" 
d="M193 49q2 2 2 -1q-1 -13 11 -18q28 90 34 118q-16 -43 -43 -88q-2 -3 -4 -11zM637 64q-1 -15 -15.5 -15t-15.5 15v3q0 -2 -1 -6t-1 -6q-4 -24 -31 -31q-18 -14 -38 -6.5t-29 28.5q-37 98 -97 199q-28 47 -62 95q-16 22 -25 33q-12 -72 -20 -107q-15 -72 -35 -130
q-31 -80 -56 -112q-2 -4 -5 -2q-14 9 -14 25q-1 -3 -3.5 -9t-3.5 -9q-13 -36 -47 -27q-22 7 -27 28q-8 6 -9 16q-13 72 -37 279q-6 42 -18.5 133.5t-18.5 140.5q-3 21 11.5 33t34.5 2q30 -15 50 -43q-2 6 -2 10q-2 16 -5 24q-4 10 -15 15.5t-16 -7.5l-1 -1l-1 1q0 16 18 15
q21 -2 32 -26q7 -18 21 -74q6 -22 16 -66q14 -158 26 -238q2 -7 6 -11q5 23 11 69q7 82 0 164q-6 58 -6 87v11.5t0.5 12t1 10t2.5 10.5t5 8.5t8 7.5t11 6q12 4 27 -4q5 8 12 14q18 -10 35 -30.5t24.5 -33.5t23.5 -42q84 -120 142 -243q-4 36 -6 55q-3 37 -12.5 131
t-13.5 145q-1 21 15.5 37t38.5 16t36.5 -15t16.5 -38q10 -96 15 -143h2l2 1q-3 99 -10 176q0 1 1 1.5t2 -0.5q63 -333 50 -582z" />
    <glyph glyph-name="X" unicode="X" horiz-adv-x="560" 
d="M559 11q-23 -7 -39 15q-50 89 -136 196l-50 54l-2 -3q-2 -3 -3 -4q4 -5 13 -15t13 -15q101 -119 150 -208q5 -9 -3 -14.5t-14 2.5q-26 32 -101 135q-18 20 -52 60q-18 18 -26 28q-70 -95 -145 -212q-5 -7 -12.5 -6.5t-11.5 6.5q-4 -3 -9 0q-4 -6 -12 -16q-23 -31 -49 -23
q-27 8 -32.5 33.5t7.5 48.5q19 43 39 80q37 88 106 194q2 2 11 16q4 5 -21 28t-56 48.5t-32 26.5q-4 4 -19.5 16t-25.5 21t-16 19q-1 2 0.5 3.5t3.5 0.5q21 -5 58 -34q3 -2 8 -5.5t7 -4.5l-7 7q-14 12 -40 36l-15 15q-8 -4 -17 1q-3 2 -9 8q-4 7 -4 18q4 28 29.5 43.5
t52.5 7.5q8 -2 15 -4.5t15 -7t12.5 -7.5t13.5 -10t11.5 -9t13 -11t11.5 -10q62 -58 91 -88l2 2t1 2l2 2q2 8 5 11q41 54 70 83q48 50 80 67q21 14 48.5 10.5t34.5 -30.5q2 -8 1 -11q2 -1 3.5 -3.5t2.5 -3.5q14 -26 3 -47q-5 -12 -29 -36q-4 -5 -11.5 -13t-13.5 -15t-11 -14
q-24 -28 -70 -86q-4 -5 -11.5 -14.5t-8.5 -11.5l3 -3q83 98 181 194q1 2 3 0t0 -3q-82 -87 -175 -202q47 -57 79 -101q34 -47 58 -85q42 -64 54 -89q9 -18 3 -37t-26 -26z" />
    <glyph glyph-name="Y" unicode="Y" horiz-adv-x="559" 
d="M576 574q-17 -29 -52 -81t-48 -73q-6 -8 -8 -12q21 -45 -6 -67q0 -1 -2 -1t-2 -1q-2 -10 -7 -15q-15 -14 -41 -12q-4 -8 -12.5 -23t-12.5 -22q-44 -77 -83 -157q-37 -70 -41 -77q-19 -30 -42 -32q-5 0 -5 4q-25 -12 -50.5 5t-16.5 48q5 15 35 83q4 9 13 27.5t13 27.5
q-5 7 -5 8q-15 -29 -26 -53q-21 -43 -39 -87l3 42q30 71 55 124q-1 13 7 27q16 24 23 35l2 4q20 39 43 80q-16 8 -36 20q-16 10 -53.5 33.5t-58.5 34.5q-6 4 -9 5q-10 4 -28 14q-8 5 -26 13l-3 6q-2 0 -4 2q-2 1 -7 4.5t-7 5t-8 5.5t-7.5 6t-7 6.5t-6.5 7t-5 7.5t-3.5 8
t-2 8.5t0.5 9.5q2 9 4 12q-12 10 -5.5 31.5t21.5 25.5q8 2 11 2h7q19 0 51 -16q68 -28 100 -44q86 -42 148 -83l24 39q7 12 22 34t22 34q31 48 45 61q2 2 6 1t5 -4q6 -1 9.5 -6t-0.5 -10q-58 -81 -95 -140q-5 -7 -13 -23l-1 -1l8 -5l23 35q22 35 23 36q2 3 14.5 22t17.5 26
t15 20.5t19.5 23t19.5 18.5q6 6 12 4q14 6 30.5 2.5t27.5 -14.5q13 -13 15 -31.5t-8 -34.5q2 -8 -2 -13z" />
    <glyph glyph-name="Z" unicode="Z" horiz-adv-x="569" 
d="M142 518q-6 -18 -24 -27q0 -1 -1 -1q3 0 9 2q70 22 104 33q15 4 43 13t39 12q-114 -22 -170 -32zM607 55q-14 -11 -27 -14q2 -7 -1.5 -13.5t-12.5 -6.5q-91 -3 -257.5 -15t-219.5 -15q-3 -1 -3 3q0 1 2 2q72 21 138 32q-90 -11 -176 -27q-34 -5 -48 20q-13 22 0 42
q10 12 14 18q-7 6 -11 15q-2 9 1 20.5t7 18.5t13.5 20.5t11.5 15.5q47 74 107 153q18 23 38 47q58 75 128 150q-76 -18 -115 -27l-66 -15q-27 -6 -38 -3q-7 2 -11 12q-24 7 -31.5 32.5t4.5 45.5q0 21 8 38q9 19 33 13q4 -2 19 1q7 5 14 5q224 16 333 46q18 5 32 -4q3 1 5 0
q20 -2 29 -13q15 0 28 -3q15 -5 20 -22t-7 -28q-31 -26 -129 -134q-84 -92 -124 -139q-41 -47 -121 -143q-15 -18 -54 -64q4 0 12 2q1 1 3 3.5t3 3.5q7 9 21.5 27.5t22.5 27.5q39 48 90 106q98 111 194 201q5 4 10.5 2t7 -7t-2.5 -10q-104 -102 -194 -201q-55 -59 -93 -104
q-6 -7 -19 -22t-19 -23q37 6 154 15q40 3 115 7q86 5 114 3q34 0 47 -30q15 -12 15.5 -31.5t-14.5 -33.5z" />
    <glyph glyph-name="bracketleft" unicode="[" horiz-adv-x="635" 
 />
    <glyph glyph-name="backslash" unicode="\" horiz-adv-x="396" 
d="M331 93q-2 -1 -5.5 -3t-5.5 -3q-6 -2 -9 -4q-6 -2 -10 -3q-3 3 -9 7q1 -4 4 -8q-5 -1 -14.5 -2.5t-13.5 -2.5q-68 171 -124 299q-1 5 2 8.5t7 1.5q-64 136 -83 209q-2 7 3 12.5t11.5 5t8.5 -8.5q1 -1 1 -2q11 6 18 -6q10 -20 21 -42.5t25 -49.5t21 -42q-2 9 8 12t14 -6
q40 -83 79 -178q11 -26 31 -78q5 -26 10 -44q2 -4 7.5 -17t9 -21t2.5 -18t-9 -16z" />
    <glyph glyph-name="bracketright" unicode="]" horiz-adv-x="635" 
 />
    <glyph glyph-name="asciicircum" unicode="^" horiz-adv-x="487" 
d="M414 540l-31 -31q-6 -18 -22 -10q-12 6 -31 23.5t-23 20.5q-23 20 -56 39q-4 -4 -12.5 -12t-12.5 -12q-52 -50 -61 -56q-4 -4 -9 -1q-1 -2 -3 -3.5t-4 -3.5l-3 -3q-2 1 -5.5 4t-4.5 3q0 2 4 5.5t10 10t10 11.5q-4 -3 -13.5 -10t-14.5 -11q-5 -3 -9.5 -0.5t-4.5 7.5
l-15 12q26 29 71 68l-69 -51q-4 -3 -7.5 1t0.5 8q30 27 140 121q6 5 12 1t6 -10q7 0 13.5 -1.5t13 -5t11 -6t12 -8.5t10 -8.5t10.5 -9.5t10 -9l14 -11q3 2 6 0q8 -8 22 -24q23 -21 36 -38z" />
    <glyph glyph-name="underscore" unicode="_" horiz-adv-x="460" 
d="M379 -85q-38 -6 -72 -6q-43 0 -65 -1q-9 0 -39 -1t-50.5 0t-39.5 4q-27 5 -26.5 35.5t26.5 36.5q16 4 70 9q10 1 29.5 2.5t29.5 2.5q104 5 125 3q18 -2 30.5 -13.5t12.5 -29.5q0 -13 -9 -26t-22 -16z" />
    <glyph glyph-name="grave" unicode="`" horiz-adv-x="491" 
d="M195 681q-45 48 -49 61q-3 13 10 27q26 20 51 4.5t49 -58.5q4 -6 11 -17.5t10 -17.5t5.5 -13.5t1.5 -12t-6 -7.5q-14 -10 -47 4q-16 10 -36 30z" />
    <glyph glyph-name="a" unicode="a" horiz-adv-x="470" 
d="M366 30q-21 8 -67 215l-78 -1q-24 -97 -31 -180q0 -6 -4 -8t-8 0t-4 8q9 105 33 180h-9l-30 -151l-6 -45q-4 -43 -36.5 -57t-60.5 8t-22 66q14 100 33 175q-18 -2 -27 -2q2 5 1 9q-32 8 -41.5 39t16 63.5t80.5 40.5q26 120 56 193q1 3 9 20.5t11 24t11.5 20t16 19.5
t18.5 12t23 6q13 1 26 -7t19 -20q22 -2 36.5 -16t16.5 -38q4 -47 11 -120q1 -1 2 -1q2 58 7 102l3 -48q7 -117 11 -153q36 -4 54 -30t11.5 -56.5t-33.5 -47.5q29 -130 38 -200q5 -42 -11.5 -60.5t-40 -6.5t-34.5 47zM218 374l56 4q0 2 -6.5 57t-12.5 82q-29 -102 -37 -143z
" />
    <glyph glyph-name="b" unicode="b" horiz-adv-x="540" 
d="M350 386q-12 13 -38 37q-27 23 -33 27q-50 34 -86 46q-18 6 -27 8q-2 0 -8 1t-8 2h-3q11 -55 20 -130q49 7 98 9q43 1 85 0zM404 123q-49 43 -100 71q-67 36 -112 49q-4 2 -8 2q4 -29 12 -89q1 -10 3.5 -30t3.5 -30q34 4 68 6q63 2 120 -7q26 -3 52 -9q-21 23 -39 37z
M563 50q-13 -43 -105 -45q-23 -1 -65.5 3t-58.5 4q-75 4 -170 -8q-11 -7 -27 -7q-8 0 -11 1q-26 -4 -38 -7q-34 -5 -42 24q-1 2 -1 5q-6 9 -6 20q0 16 11 26.5t27 11.5q2 0 3 1q-2 60 -12 180q-37 11 -37 46q0 29 29 43l-1 2q-8 100 -13 150q-6 3 -26 18q-50 48 -26 80
q24 31 85 33q47 0 89 -15q45 -15 88 -38q11 -6 29.5 -17t44 -28t51 -37t51 -42t44 -44.5t29.5 -43.5t8 -40t-21 -33q-24 -20 -45 -18q-10 1 -21 2t-25 3t-23 3l-48 3q6 -3 16 -9q38 -23 68 -47q69 -54 123 -118q34 -32 26 -62z" />
    <glyph glyph-name="c" unicode="c" horiz-adv-x="520" 
d="M493 197q-24 -93 -80 -137q-52 -42 -119.5 -54.5t-131.5 11.5q-62 25 -107 77t-59 117q-7 37 -7 65q2 127 61 203q52 70 115 114q29 21 60 39q33 20 69 17q15 -1 24.5 -11t9.5 -23q6 -12 4 -39q-4 -31 0 -147q1 -31 3 -95q0 -18 2 -50q0 -37 -1 -41t-5.5 -6t-8.5 0
q-5 3 -6 5h-8q-18 5 -28 26q-3 5 -8 19h-3v-3q6 -22 18 -37.5t31 -12.5q10 2 15 -5t2 -15t-13 -9q-19 -2 -37.5 9t-26.5 29q-12 26 -14 96q-2 65 -6 193q-8 -6 -13 -9q-96 -74 -121 -205q0 -3 -1 -7t-1 -7q-1 -5 -1 -16q-1 -33 10 -69q37 -114 119 -119q2 0 6.5 -0.5
t6.5 -0.5q58 2 99 38q17 16 26 33q23 41 21 105q-2 34 -10 49q1 0 1 -2t1 -2q-11 21 -6 44.5t27 35.5q21 12 43.5 5.5t36.5 -26.5q42 -65 11 -182zM252 435h5q-3 59 1 111q-7 -6 -16 -11q2 -18 5.5 -51t4.5 -49z" />
    <glyph glyph-name="d" unicode="d" horiz-adv-x="576" 
d="M461 197q-30 46 -46 68q-48 64 -102 111q-55 51 -125 91q-12 6 -19 10q22 -106 46 -250q3 -15 8.5 -45t7.5 -45q54 -19 96 -28q34 -8 65 -9q39 0 60 6q28 7 42 19q-2 12 -14 36q-14 29 -19 36zM37 502q-1 6 -7 10q-2 2 -2 0q-1 -1 0 -5q7 -28 23 -98.5t26 -108.5
q5 -18 14 -53.5t13 -53.5q3 -2 9 -5.5t9 -4.5q-12 34 -16 51q-5 19 -33.5 131.5t-35.5 136.5zM576 91q-13 -31 -45.5 -52.5t-69.5 -30.5q-67 -16 -157 -2q-39 6 -74 15q-7 -15 -19 -18q-7 -1 -14 2q-7 -7 -16 -7q-23 -2 -37 8q-26 18 -34 55q-50 20 -94 43q-22 12 -28 37
t7 46q12 21 36.5 27.5t45.5 -5.5l2 -2t2 -1q-3 21 -7 35q-22 112 -68 334q-1 2 -2.5 6t-1.5 5q-4 14 4.5 26t22.5 14q10 2 14 2q6 18 31.5 26t46.5 6q31 -2 62.5 -18t50.5 -31.5t49 -44.5q99 -95 152 -156q30 -32 49 -57q44 -58 68 -106q49 -96 24 -156z" />
    <glyph glyph-name="e" unicode="e" 
d="M121 -13q27 -4 41 1q2 0 3 1q16 8 23 12q16 8 46 24v2q-36 -14 -55 -20q-46 -17 -58 -20zM343 330l-1 3q-16 -5 -47 -14.5t-46 -14.5q-47 -14 -58 -17q-3 -17 -16 -28q33 17 151 64q8 4 17 7zM23 528q75 40 212 76q4 1 11.5 3t11.5 3q82 16 125 19q9 1 27 1
q-69 -18 -118 -29q-136 -30 -202 -53q-30 -9 -67 -26q-4 2 0 6zM584 121q-2 -9 -10 -10q-117 -22 -219 -58q-68 -24 -101 -38h-1q-1 -1 -3.5 -2t-3.5 -1q-5 -3 -16.5 -7t-16.5 -7l-1 -1q-5 -4 -22.5 -10t-32 -10.5t-13.5 -3.5q-6 -1 -10 -1q-32 -6 -42 15q-3 6 -1 14
q-19 8 -29.5 27.5t-3.5 38.5q-4 22 -11 105l-12 120l-12 114q-19 21 -16 49t25 47l4 8q28 12 64 24q73 25 202 52q53 12 157 40q14 -2 20 -4t16 -6q3 -2 8.5 -6.5t7.5 -6.5q11 -35 6 -62q-16 -5 -50 -15q-39 -13 -68 -20q-4 -2 -6 -2q-134 -37 -161 -49q-51 -17 -95 -36
l-2 -2q0 -4 3.5 -26t3.5 -25q118 51 168 69q41 10 97 26q2 1 6.5 2t6.5 1q13 2 35 4q48 2 63 -24q1 -1 1.5 -2.5t1.5 -3t1 -2.5q4 -8 5 -12q1 -1 2 -1q13 -7 17 -25q3 -14 -4.5 -28.5t-21.5 -21.5q-9 -4 -20 -6.5t-24.5 -4t-21.5 -3.5q-39 -6 -73 -15q-80 -22 -142 -48
q-23 -10 -84 -40q1 -11 3 -32.5t3 -32.5v-4q1 0 1 1l2 1q22 10 66 28q56 22 85 33q30 12 45 17q48 18 72 26l39 12q6 1 16.5 5.5t15.5 5.5q27 6 47 -4.5t30.5 -33t15.5 -44.5t7 -47q1 -26 -19 -41z" />
    <glyph glyph-name="f" unicode="f" horiz-adv-x="530" 
d="M89 627q11 -4 33.5 -7t43.5 -4.5t23 -2.5h16q-6 2 -56 13t-72 19q3 -3 12 -18zM450 461q-24 -1 -47 11h-3q-4 1 -11 1l-63 6q-77 7 -130 17q-28 5 -55 12q2 -11 12.5 -51t11.5 -45h1q31 3 89 5q90 2 171 -7q22 0 41.5 -13.5t25.5 -34.5q8 -29 -11.5 -57.5t-50.5 -24.5
q-93 14 -188 12q-34 0 -51 -1q16 -98 17 -149q0 -26 0.5 -51.5t-11.5 -50t-36 -35.5q-16 -8 -34 -2t-23 25q-9 31 -7 64q-3 10 -6 36q-1 11 -3.5 30t-3.5 28q-3 35 -11 103q-12 3 -23 10q-21 14 -27 36.5t6 44.5q9 16 27 24q-14 80 -30 132q-5 14 0 27q-28 29 -18 73
q4 20 26 27t38 -7q39 -11 117 -29q3 5 7 4q73 -14 143 -21q11 -1 23 -2t27 -2t23 -2q54 -3 61 -5l1 -1q23 -10 34 -34.5t3 -47.5q-3 -24 -20.5 -39t-41.5 -16z" />
    <glyph glyph-name="g" unicode="g" horiz-adv-x="560" 
d="M556 405q-22 -58 -48 -99q-38 -63 -90 -110q-32 -34 -60 -53q-60 -42 -118 -57q-2 0 -5.5 -1t-5.5 -2q-35 -10 -67 -10q11 -12 77 4q35 9 67 26q48 23 120 89.5t116 161.5q2 -4 4 -6q-1 -5 -3.5 -15l-4.5 -18t-4 -15l-3 -9l-6 -12q-54 -84 -120 -137q-72 -56 -145 -73
q-39 -9 -79 -9q-23 3 -24 13q-35 2 -58 16q-33 19 -53 57q-40 43 -47 101q-16 108 77 216q76 88 173 118q2 10 13 13q132 35 225 16q72 -14 59 -52q-4 -12 -25 -16q2 -5 -1 -9t-8 -4q-11 0 -33 -0.5t-34 0.5q-33 0 -60 -4q-61 -9 -116 -38q-97 -53 -143 -152
q-27 -58 -27 -105q-2 -56 32 -77q2 -1 6.5 -2t6.5 -1q34 -6 72 4q4 1 11 3.5t9 3.5q49 21 88 59q41 40 74 93q10 16 28 48h-4q-11 -3 -33 -7.5t-33 -6.5q-20 -4 -42.5 -10.5t-49 -14t-42.5 -11.5q-32 -8 -45.5 23.5t15.5 47.5l6 3q-4 31 25 38q1 1 2 1q2 1 3 1q65 19 137 36
q110 26 139 30q19 2 35 -7t21 -27q7 -23 -4 -52z" />
    <glyph glyph-name="h" unicode="h" horiz-adv-x="531" 
d="M511 314v-3q-2 -17 -16.5 -27t-31.5 -8q-2 -52 -8 -148q-4 -47 -7 -73q-8 -56 -28 -68q0 -1 -1 -1q-4 -6 -13 -11q-27 -16 -47 9q-10 11 -12 40q-5 59 -6 116q-3 57 -3 115v37h-20q-58 0 -115 -3q2 -58 2 -87q0 -72 -5 -99v-3q0 -4 -1 -12.5t-1 -12.5q-5 -40 -17 -53
q-18 -21 -42.5 -20.5t-38.5 25.5q-3 5 -7 15q-13 0 -13 11q-2 24 -10 223q-2 0 -5.5 -2t-4.5 -2q-26 -11 -44.5 12.5t-0.5 47.5q5 8 16 17q11 18 36 26q-2 82 -4 122l-3 142q1 1 3 0q6 -28 18 -147q7 -68 11 -113l1 1q1 2 2 2h2q-2 147 -13 231q-2 17 8.5 31t27.5 16
q16 2 31 -8.5t16 -27.5v-2q5 0 11 -3q12 -5 15 -32l3 -48q6 -92 9 -137h2q35 5 105 11q5 1 16 2t16 2q-1 20 -3.5 62t-3.5 62q-7 24 -4 53.5t26 44.5q22 16 50 12.5t42 -27.5q7 -11 10.5 -26.5t4.5 -26t1.5 -30.5t0.5 -27v-9q2 -35 0 -71v-22q5 -1 13.5 -3t11.5 -3
q28 -9 33 -40.5t-15 -51.5zM239 319q-5 0 -16 -0.5t-17 -0.5q-2 -4 -4 -5v-4q59 6 116 6q7 -1 20 -1v5q-66 2 -99 0z" />
    <glyph glyph-name="i" unicode="i" horiz-adv-x="210" 
d="M81 553q13 0 21.5 2.5t11.5 4.5t2 2q-22 -6 -48 -1q-21 4 -29.5 19t-0.5 33q-7 -8 -13 -19q-7 -15 3 -23t19 -11q15 -5 34 -7zM14 577q-4 14 12 37q10 15 25 25q4 4 6 5q47 33 88 22q43 -11 57 -48q5 -15 -11 -27q-25 -18 -53 -24q-16 -19 -53 -19q-26 0 -46 8
q-22 7 -25 21zM185 53q-7 -12 -21 -17q2 -14 -10 -19q-18 -9 -38.5 -5t-34.5 18q-1 0 -1 1t-1 2q-7 3 -15 9q-5 5 -9 11t-6 11.5t-4 14t-3 13t-2.5 15t-1.5 13.5q-14 118 -13 223q0 82 3 109q5 34 21 50q2 4 8 10q15 10 21.5 14t23 11.5t27 3.5t16.5 -18q14 2 16 -12
q0 -18 -1 -54.5t-1 -55.5q0 -16 0.5 -34.5t1.5 -41t1 -34.5q0 -7 2 -25q1 0 2 -8.5t2.5 -17t2.5 -8.5q-6 131 1 247l7 2q-6 -211 23 -427q0 -5 -3.5 -7t-8 -0.5t-5.5 6.5zM74 461q-4 -13 -7 -27t-4.5 -31t-2 -27.5t-1.5 -31t-1 -27.5v-10v-2q2 -24 8 -72h3l-1 67q0 68 1 68
q0 65 13 103h-1q-7 -5 -7 -10z" />
    <glyph glyph-name="j" unicode="j" horiz-adv-x="460" 
d="M247 86q-15 0 -33 7q39 -30 71 -11q16 9 36 31q-33 -30 -74 -27zM289 452q-44 0 -70 7q-25 8 -31 22q0 -4 0.5 -11.5t0.5 -11.5q1 -8 26 -8q50 0 74 1v1zM352 604q-31 -12 -68 -1q0 -5 -3 -7q16 -9 36.5 -6.5t34.5 14.5zM255 638q9 13 26 24t33 13q27 5 46 -7q4 5 10.5 5
t11.5 -6q15 -26 2 -53t-41 -36q-16 -9 -47.5 -3.5t-32.5 27.5q-24 15 -8 36zM436 174q-11 -88 -58 -128q-36 -32 -77 -33q-22 -4 -46 0q-12 -1 -29 2q-61 13 -108 71q-44 50 -64 114q-13 38 -17 74q-3 3 -5 8q-21 124 34 148q35 14 57 -13q17 -20 12 -52q0 -1 1 -3
q-2 -60 11 -109q13 -51 54 -105q26 -19 50 -15q18 2 30 16.5t16 33.5q8 34 6 103q-2 62 -7 112q0 4 -1 12.5t-2 12.5q-21 0 -65 2q-1 0 -12 0.5t-16 1t-13.5 2.5t-12.5 6.5t-5 11.5q-1 8 -1.5 23t-0.5 20q0 34 1 38q3 12 16 17q-2 11 2 17q1 3 4 4q59 -17 133 -10h2h1
q19 2 57 8v-2q1 0 1 -1t1 -2q2 10 11 5q22 -383 10 -429q-14 -58 -46 -81q20 13 32 26q20 23 25 56.5t5 93.5q0 38 -3 88t-7 118t-6 112l2 1q2 1 4 1l2 1q2 -23 8 -89t8 -102q1 -9 5.5 -62t3.5 -62.5t-3 -61.5z" />
    <glyph glyph-name="k" unicode="k" horiz-adv-x="500" 
d="M510 39q-2 -1 -2 1t1 3q7 3 10.5 8.5t3.5 13.5t-1 16t-4 18t-5.5 17t-5.5 15.5t-4 10.5q-44 119 -132 216q33 -41 86 -141t56 -140q2 -21 -11 -37t-36 -16q-32 0 -45 28q-7 13 -7 28q-48 97 -145 203q-48 54 -77 75q-10 -4 -16 -6q-5 -2 -13.5 -5.5t-10.5 -4.5
q8 -84 18 -167l12 -66q1 -4 8.5 -27t9.5 -37q4 -16 -6 -24q-38 -32 -82 -16q-17 -2 -33 7t-24 26q-8 19 -15 88q-16 136 -21 204q-5 69 -11 205q0 9 -0.5 27t-0.5 27q-2 41 22 47q1 2 5 11q13 23 39 24t43 -17.5t8 -44.5q-4 -12 -6 -67l-3 -90q5 5 8 6q7 70 16 127h1v-7
q2 -72 4 -110q143 62 259 129q2 1 13 8t14.5 8.5t15 5t15.5 -0.5q24 -6 24 -35l3 3q8 6 15 0t3 -15q-24 -44 -64 -76t-101 -66q-5 -3 -13.5 -7t-12.5 -7q3 -2 7 -6t7 -6q-1 5 5 8.5t10 -0.5q94 -88 143 -201q24 -53 40 -114q10 -49 -17 -57z" />
    <glyph glyph-name="l" unicode="l" horiz-adv-x="470" 
d="M427 -12q-86 6 -164 2q-41 -2 -81 -6q-2 0 -34 -4.5t-47 -2.5q-2 0 0 2q15 7 79 17q54 6 76 8q86 8 171 6q6 0 8.5 -6t0 -11t-8.5 -5zM444 29q-176 12 -340 -32q-18 -5 -34.5 7.5t-15.5 31.5q0 5 0.5 14.5t0.5 14.5l3 117q-5 42 -16 142q-21 224 -25 283q-2 24 15.5 37
t41.5 9q13 -1 28 -9q16 -4 26 -11q10 -54 18 -108l5 -29q1 26 -2 78q-2 40 -15 64q-1 2 1 3t3 -1q8 -10 13.5 -21t8.5 -27t4.5 -23.5t4 -29t2.5 -24.5q5 -47 13 -152q6 -79 9 -159l3 -51q1 0 2 1v-2q0 -2 -0.5 -3.5t-0.5 -2.5q68 17 146 19h19h22h18q31 -2 44 -12
q22 -16 22 -34q0 -6 -2 -16q8 -10 12 -16q11 -18 -1 -39t-33 -19zM38 573q1 -9 2.5 -27.5t2.5 -27.5q3 -32 5.5 -68t5 -79t4.5 -67v55l-3 147q-3 69 2 85q2 22 3 34q2 5 5 10q-7 0 -15 -3t-11.5 -11t-3.5 -14t1.5 -18.5t1.5 -15.5z" />
    <glyph glyph-name="m" unicode="m" horiz-adv-x="590" 
d="M158 572q-6 -4 -14 -6q0 -2 -1 -4q25 -100 42 -183q2 -2 2 -5q8 -20 11 -23q-11 57 -32 175q-4 30 -8 46zM343 268q-2 -15 -8 -45q1 -1 3 -1h1q26 111 65 227q-1 3 -2.5 10t-2.5 10q-30 -89 -56 -201zM588 20q-12 -21 -34.5 -27.5t-42.5 10.5q-18 4 -29.5 17.5
t-11.5 31.5q-3 128 -35 255q-10 42 -28 126q-36 -105 -63 -213q-24 -103 -35 -159q-1 -3 -3 -2.5t-1 2.5q-4 -20 -7 -30q-9 -24 -27 -29q-9 -2 -13 1q-9 0 -14 4q-6 -4 -9 3q-9 15 -17 45l-43 153q-16 58 -26 100q-6 16 -8 25q6 -122 9 -256q0 -16 0.5 -30.5t-6.5 -29
t-22 -20.5q-11 -5 -17 2q-2 2 -3 4q-21 -7 -35 7q-16 16 -23 72q-11 83 -13 172q-3 89 -3 178q-2 37 -1.5 87t7.5 87q1 4 6 4t6 -4q6 -39 8 -129q1 0 2.5 -11t2.5 -11v23q0 12 -0.5 35.5t-0.5 35.5q-2 42 7 61q0 17 17 27q24 15 50 7q30 -6 41 -35q9 -11 11 -27
q1 -11 11 -74q29 -177 62 -321q6 28 18.5 84t19.5 84q46 208 53 259q4 18 24 22q25 7 44 -4q10 8 24.5 8t23.5 -10q41 -41 58 -112q11 -45 27 -135q6 -32 8 -52q3 -11 10 -44q11 -59 19 -98q14 -68 16 -87q4 -51 -14 -82z" />
    <glyph glyph-name="n" unicode="n" horiz-adv-x="510" 
d="M52 107q-1 18 -10 222q-3 71 -5 215q-2 30 8 52q-1 -32 1 -96q1 -69 5 -209q2 -36 5 -113.5t4 -111.5l-4 12zM434 -3q-9 -6 -20 0q-27 12 -38 69q-2 12 -6 34l-174 311q-2 2 -16 22v-64v-75.5v-64.5q2 -40 4 -120q5 -23 1 -57t-30 -38q-20 -33 -57 -21q-16 4 -28 19
q-5 84 -11 252q-1 30 -2 64.5t-2 76t-2 64.5q-2 99 0 131q10 8 19 9q0 12 8 23q13 13 27 14t31 -11t28.5 -23t20.5 -23q40 -53 89 -142q32 -54 64 -120q2 -4 2 -10q6 -11 16 -31q-3 28 -25 154q-16 84 -23 108q-1 3 -3.5 11t-3 12t-1.5 11t0.5 12.5t4.5 11.5q7 12 17 18v1
l1 1q8 15 27.5 16.5t31.5 -8.5q3 -1 7 -5l15 -57q18 -65 35 -179q25 -152 39 -369q-20 -27 -46 -27zM490 34q-2 0 -4 -3q-22 321 -76 567q-2 6 3 11q4 5 11 4t8 -8q58 -282 57 -528q3 -19 1 -43zM164 156l-3 -3q-1 0 -2 -1l-1 -60q0 -2 4 -28.5t0 -35.5q10 17 8 34
q-2 40 -4 59q0 11 -2 35z" />
    <glyph glyph-name="o" unicode="o" horiz-adv-x="420" 
d="M253 478q-12 36 -19 53q-8 18 -10 22q-2 2 -4 2h-5q-6 -11 -13 -34q-18 -60 -25 -111q-14 -114 4 -225q3 -17 -4 -30q-49 228 31 397q-5 -3 -14 -19q-27 -53 -40 -119l-2 -4q-4 -23 -8 -69q-4 -96 20 -201q-5 -4 -11 -5q-19 -5 -36 7q1 0 1 -1q15 -30 40 -50t54 -11
q17 6 27 24q10 19 14 34q23 64 23 146q-9 114 -15 150q-1 7 -3.5 22t-4.5 22zM385 242q-10 -110 -47 -163q-18 -25 -37 -41q-30 -30 -70 -36q-17 -2 -33 0q-51 -9 -97 28q-58 50 -77 159q-33 209 65 372l2 2q15 40 40 72q1 1 2 1t0 -2q-12 -20 -16 -30q-5 -11 -13 -33h2.5h3
h2.5q30 66 73 75q24 9 39 8q26 6 43 -4q14 -9 30 -38q15 6 23 -8q27 -52 38 -84q11 -36 20 -91q16 -102 7 -187z" />
    <glyph glyph-name="p" unicode="p" horiz-adv-x="470" 
d="M282 313q-16 2 -55 10q0 -1 0.5 -4t1.5 -4q8 -2 11 -2q79 -12 119 -8q3 0 19 2.5t19 3.5q0 1 -10.5 0t-10.5 0q-47 -6 -94 2zM334 447q-58 34 -87 50q-44 22 -67 32q20 -76 28 -115q33 -11 64 -18q56 -12 101 -8q8 0 20 2q2 0 4 1t4 1q-2 4 -4 6q-12 18 -63 49zM232 137
q6 -68 -11 -100l1 -1q0 -2 1 -2q6 3 10 7q16 36 3 98q0 3 -3 15.5t-3 15.5v-4v-5.5v-3.5q0 -4 1 -10.5t1 -9.5zM454 340q-13 -23 -35.5 -35.5t-54 -13.5t-53 1t-53.5 7q-5 1 -14 2.5t-13 2.5q1 -7 3.5 -18.5t3.5 -16.5q20 -109 24 -148q4 -44 -5 -72q-7 -25 -30 -46
q-29 -24 -44 -5q-9 11 -13 51q-4 23 -5 38q-7 24 -12 51q2 -20 4 -31q4 -33 7 -52q3 -35 1 -40q0 -1 -1 0q-5 7 -10 44q-3 18 -9 52q-2 16 -7.5 50t-8.5 53q-6 35 -19 124q-48 19 -92 42q-1 1 0 2t2 0q38 -18 89 -37q-1 3 -2 8.5t-2 8.5q-23 9 -67 29q-16 7 -20.5 26.5
t4.5 33.5q7 12 22 18.5t28 1.5l6 -3q-20 75 -40 131q-4 12 2.5 23t18.5 15q-1 12 10 21q40 28 108 -6q33 -17 95 -57q88 -59 179 -140q12 -10 10 -23q9 -15 12 -30q6 -39 -19 -62z" />
    <glyph glyph-name="q" unicode="q" horiz-adv-x="440" 
d="M280 510q-20 23 -36 32q-16 -7 -25 -15q-21 -21 -34 -54q-4 -9 -10 -29q5 1 12 -4q10 -7 7 -20q-22 -102 -12 -197q5 -58 15 -96q0 -1 2.5 -10t3 -11t3 -10t4 -11t5 -9t6.5 -9t8 -6.5t10 -5.5q31 0 56 18q-74 97 -83 111q-1 1 0 2t2 0q13 -13 64 -73q2 3 -14 26.5
t-30 37.5q-2 2 -11 11.5t-13 14.5q-16 30 7 54q12 13 34 13.5t36 -9.5q27 -17 41 -43q17 -28 28 -51q6 26 8 64q2 78 -18 152.5t-66 126.5zM381 115q1 -2 3.5 -7.5t3.5 -8.5q8 -18 12 -28q13 -34 3 -48l-2 -2q-5 -15 -19 -20q0 -1 -1 -2q-5 -9 -15.5 -8t-15.5 10
q-9 -4 -19 0t-14 15l-2 1q-1 1 -8 13q-40 -33 -87 -32q-3 1 -10 1q-23 -2 -39 2q-56 14 -85 62q0 1 -0.5 1t-0.5 1q-1 1 -1 3q-8 15 -11 28q-41 111 -36 269q4 86 19 133q11 34 23 56q22 34 34 42q2 2 2 -1q-4 -8 -16 -26.5t-17 -29.5q-14 -33 -19 -60q-12 -59 -14 -136
q6 13 11 32v3q5 37 13 67q0 3 1 5q12 77 39 113q47 61 106 64t101 -46q71 -84 89 -206q23 -161 -29 -259q1 0 1 -1z" />
    <glyph glyph-name="r" unicode="r" horiz-adv-x="590" 
d="M164 534q0 -1 1 -3.5t1 -3.5q3 3 6.5 3.5t6.5 -1.5t3 -6q10 -42 14 -63q2 0 7.5 -1t8.5 -1q2 9 9 15q30 19 86 -27q16 -2 48.5 -6t48.5 -6q-131 90 -243 116q1 -3 2 -8t1 -8zM235 84q-8 176 -19 248h8q10 -58 20 -178q1 -16 0 -27t-4.5 -23.5t-4.5 -19.5zM570 381l-3 -21
q-1 -14 -13 -25t-24 -9q-47 3 -141 11q41 -61 72 -124q3 -5 10.5 -21.5t10.5 -22.5t10 -22.5t9 -23t7.5 -23.5t5 -23.5t2.5 -24t-1 -24.5q-2 -16 -16 -21t-27 1q-16 -2 -27 3q-2 0 -2 1q-6 -6 -13 -3q-21 55 -58 140q-43 102 -57 129q-8 18 -16 31v1q-9 13 -17 28
q-13 0 -39.5 2t-39.5 2q8 -75 11 -137q7 -115 5 -149q1 -6 1 -17q-10 -19 -23 -30q-9 -9 -22.5 -8.5t-22.5 10.5q-5 8 -6 16q-6 -2 -12 3t-6 13q-3 12 -4 37.5t-1 29.5l-9 66l-24 141q-1 6 -3 17.5t-3 17.5h-6q0 6 -6 7q-11 3 -33 11q4 0 11.5 1t11.5 2q-15 6 -30 16
q-21 13 -15 40.5t29 27.5q6 1 18 1q-16 76 -22 103q13 10 21 22q-15 13 -21 31t2 36q12 24 50.5 25t61.5 -7q5 0 9 -4q3 -2 10 -4.5t11 -3.5h1q1 -1 2 -1q51 -16 111 -47.5t93.5 -53t102.5 -68.5q10 -8 14 -22q10 -7 41 -31q24 -18 19 -52z" />
    <glyph glyph-name="s" unicode="s" horiz-adv-x="510" 
d="M479 363q0 -6 8 -49q3 -10 -2.5 -19.5t-15.5 -12.5q-33 -8 -49.5 23.5t-22.5 77.5q-1 0 -1 0.5t-1 0.5q-40 59 -121 96q-38 17 -78 26q7 -6 20.5 -19t20.5 -20q56 -55 94 -96q64 -69 85 -95q30 -38 38 -75q19 -42 13 -78q-1 -47 -42 -80t-91 -35h-3q-50 -7 -104 8
q-33 7 -62 26q-7 -30 -24 -44q-7 -8 -18 -8t-18 8q-20 20 -24 46q-8 9 -11 26q-9 82 -32 167q-8 31 -16 95q-9 63 -4 88q3 14 14 26t25 14q40 5 52 -30q10 -31 22.5 -99.5t24.5 -103.5q17 -44 39 -68q21 -21 33 -30q16 -5 36 -7q31 -3 64 0t41 15q3 3 3 9q5 12 -8 38
q-1 2 -3.5 7.5t-3.5 8.5q-9 12 -29 36q-50 59 -97 108q-13 15 -41 43l-15 12q-75 61 -127 128q-37 51 -28 87q6 25 26 39t45 12q28 -3 65 -15q7 2 15 -1q82 -24 150 -69q40 -26 64 -47l5 -5q0 34 -1 51q0 20 14.5 34.5t34.5 14.5q21 0 34 -14t15 -35q1 -36 1 -47.5t-4 -48
t-5 -47.5q-1 -37 0 -73z" />
    <glyph glyph-name="t" unicode="t" horiz-adv-x="580" 
d="M571 589q-2 -6 -4 -10q-2 -34 -21 -47q-5 -4 -15 -6q-4 -4 -7 -4q-87 -17 -152 -26q0 -22 -0.5 -66t-0.5 -66q0 -30 0.5 -91t0.5 -92q0 -18 2 -53t2 -52q-4 -46 -24 -62v2q0 7 1 21t1 21v38q-1 -5 -4.5 -29.5t-7.5 -36.5q-5 -16 -21 -24.5t-32 -3.5q-49 15 -53 98
q-4 62 0 154q6 100 8 155l2 44v32h-39q-41 0 -80 3q-43 6 -61 17q-23 16 -32 39q-15 8 -22.5 24.5t-3.5 34.5q5 16 18.5 27t29.5 10q99 -9 164 -9v1l1 2q-81 4 -162 18q-3 0 -2 4q1 2 3 1q203 -12 419 7q11 2 31 4h5h6h6q7 1 22 2.5t23 2.5q4 0 6.5 -4t1.5 -8.5t-6 -5.5
q-5 0 -7 -1q4 -2 6 -4q17 -10 16.5 -32t-18.5 -29zM127 512q26 -2 53 0q-66 7 -119 23q23 -21 66 -23z" />
    <glyph glyph-name="u" unicode="u" horiz-adv-x="510" 
d="M482 193q-27 -88 -76 -133q-3 -2 -7 -6q-21 -23 -44 -34q-55 -30 -113.5 -13t-98.5 64q-25 29 -42 65q-24 -2 -32 19q-73 184 -24 393q10 45 35.5 76.5t66.5 25.5q39 -5 54 -42q4 -20 3.5 -31.5t-5 -34t-5.5 -32.5q-4 -53 -1 -113q7 -110 50 -224q24 -19 47 -20
q29 6 50 24q7 10 11 23t6.5 29t3.5 27t1.5 29t0.5 23q6 89 4 268q-1 22 20 34.5t40 1.5v10q0 8 6 14.5t14 5.5q21 -2 33 -18.5t14.5 -31t4.5 -40.5q1 -8 2.5 -22.5t2.5 -26.5t1 -23v-40q7 -143 -23 -247zM190 545q-4 -2 -6 2q-4 -18 -8 -26q-13 -111 5 -203q2 -16 8 -38
q2 0 3 -1q-24 134 -2 266z" />
    <glyph glyph-name="v" unicode="v" horiz-adv-x="470" 
d="M456 542q0 -59 -13 -127q-16 -81 -32 -121q-9 -23 -48 -113q-2 -4 -2 -5q-8 -14 -11 -21q-13 -23 -26 -43q-13 -18 -37 -42.5t-55 -48t-59.5 -22.5t-40.5 36q-4 11 -10 33q-22 8 -22 33q1 26 -2 59q0 3 -1 4q-1 6 -1 17q-4 29 -5 41q-7 57 -18 114q-15 84 -22 115
q-3 13 -8.5 36t-9.5 42t-6 36q-1 3 1.5 4t4.5 -1q2 -3 5 -9.5t4 -9.5q-6 16 -9.5 33t-4.5 37.5t9.5 32.5t32.5 11q62 -5 87 -91q20 -76 36 -162q5 -21 20.5 -109.5t16.5 -92.5q36 99 54 185q27 146 23 276q0 6 5 8.5t10 0t5 -8.5q11 -264 -92 -485q2 -2 2 -11
q62 116 82.5 234.5t19.5 264.5q34 7 64 -10q12 9 25 -2q12 -12 23 -55q7 -26 5 -63z" />
    <glyph glyph-name="w" unicode="w" horiz-adv-x="670" 
d="M193 49q2 2 2 -1q-1 -13 11 -18q28 90 34 118q-16 -43 -43 -88q-2 -3 -4 -11zM637 64q-1 -15 -15.5 -15t-15.5 15v3q0 -2 -1 -6t-1 -6q-4 -24 -31 -31q-18 -14 -38 -6.5t-29 28.5q-37 98 -97 199q-28 47 -62 95q-16 22 -25 33q-12 -72 -20 -107q-15 -72 -35 -130
q-31 -80 -56 -112q-2 -4 -5 -2q-14 9 -14 25q-1 -3 -3.5 -9t-3.5 -9q-13 -36 -47 -27q-22 7 -27 28q-8 6 -9 16q-13 72 -37 279q-6 42 -18.5 133.5t-18.5 140.5q-3 21 11.5 33t34.5 2q30 -15 50 -43q-2 6 -2 10q-2 16 -5 24q-4 10 -15 15.5t-16 -7.5l-1 -1l-1 1q0 16 18 15
q21 -2 32 -26q7 -18 21 -74q6 -22 16 -66q14 -158 26 -238q2 -7 6 -11q5 23 11 69q7 82 0 164q-6 58 -6 87v11.5t0.5 12t1 10t2.5 10.5t5 8.5t8 7.5t11 6q12 4 27 -4q5 8 12 14q18 -10 35 -30.5t24.5 -33.5t23.5 -42q84 -120 142 -243q-4 36 -6 55q-3 37 -12.5 131
t-13.5 145q-1 21 15.5 37t38.5 16t36.5 -15t16.5 -38q10 -96 15 -143h2l2 1q-3 99 -10 176q0 1 1 1.5t2 -0.5q63 -333 50 -582z" />
    <glyph glyph-name="x" unicode="x" horiz-adv-x="560" 
d="M559 11q-23 -7 -39 15q-50 89 -136 196l-50 54l-2 -3q-2 -3 -3 -4q4 -5 13 -15t13 -15q101 -119 150 -208q5 -9 -3 -14.5t-14 2.5q-26 32 -101 135q-18 20 -52 60q-18 18 -26 28q-70 -95 -145 -212q-5 -7 -12.5 -6.5t-11.5 6.5q-4 -3 -9 0q-4 -6 -12 -16q-23 -31 -49 -23
q-27 8 -32.5 33.5t7.5 48.5q19 43 39 80q37 88 106 194q2 2 11 16q4 5 -21 28t-56 48.5t-32 26.5q-4 4 -19.5 16t-25.5 21t-16 19q-1 2 0.5 3.5t3.5 0.5q21 -5 58 -34q3 -2 8 -5.5t7 -4.5l-7 7q-14 12 -40 36l-15 15q-8 -4 -17 1q-3 2 -9 8q-4 7 -4 18q4 28 29.5 43.5
t52.5 7.5q8 -2 15 -4.5t15 -7t12.5 -7.5t13.5 -10t11.5 -9t13 -11t11.5 -10q62 -58 91 -88l2 2t1 2l2 2q2 8 5 11q41 54 70 83q48 50 80 67q21 14 48.5 10.5t34.5 -30.5q2 -8 1 -11q2 -1 3.5 -3.5t2.5 -3.5q14 -26 3 -47q-5 -12 -29 -36q-4 -5 -11.5 -13t-13.5 -15t-11 -14
q-24 -28 -70 -86q-4 -5 -11.5 -14.5t-8.5 -11.5l3 -3q83 98 181 194q1 2 3 0t0 -3q-82 -87 -175 -202q47 -57 79 -101q34 -47 58 -85q42 -64 54 -89q9 -18 3 -37t-26 -26z" />
    <glyph glyph-name="y" unicode="y" horiz-adv-x="560" 
d="M576 574q-17 -29 -52 -81t-48 -73q-6 -8 -8 -12q21 -45 -6 -67q0 -1 -2 -1t-2 -1q-2 -10 -7 -15q-15 -14 -41 -12q-4 -8 -12.5 -23t-12.5 -22q-44 -77 -83 -157q-37 -70 -41 -77q-19 -30 -42 -32q-5 0 -5 4q-25 -12 -50.5 5t-16.5 48q5 15 35 83q4 9 13 27.5t13 27.5
q-5 7 -5 8q-15 -29 -26 -53q-21 -43 -39 -87l3 42q30 71 55 124q-1 13 7 27q16 24 23 35l2 4q20 39 43 80q-16 8 -36 20q-16 10 -53.5 33.5t-58.5 34.5q-6 4 -9 5q-10 4 -28 14q-8 5 -26 13l-3 6q-2 0 -4 2q-2 1 -7 4.5t-7 5t-8 5.5t-7.5 6t-7 6.5t-6.5 7t-5 7.5t-3.5 8
t-2 8.5t0.5 9.5q2 9 4 12q-12 10 -5.5 31.5t21.5 25.5q8 2 11 2h7q19 0 51 -16q68 -28 100 -44q86 -42 148 -83l24 39q7 12 22 34t22 34q31 48 45 61q2 2 6 1t5 -4q6 -1 9.5 -6t-0.5 -10q-58 -81 -95 -140q-5 -7 -13 -23l-1 -1l8 -5l23 35q22 35 23 36q2 3 14.5 22t17.5 26
t15 20.5t19.5 23t19.5 18.5q6 6 12 4q14 6 30.5 2.5t27.5 -14.5q13 -13 15 -31.5t-8 -34.5q2 -8 -2 -13z" />
    <glyph glyph-name="z" unicode="z" horiz-adv-x="570" 
d="M142 518q-6 -18 -24 -27q0 -1 -1 -1q3 0 9 2q70 22 104 33q15 4 43 13t39 12q-114 -22 -170 -32zM607 55q-14 -11 -27 -14q2 -7 -1.5 -13.5t-12.5 -6.5q-91 -3 -257.5 -15t-219.5 -15q-3 -1 -3 3q0 1 2 2q72 21 138 32q-90 -11 -176 -27q-34 -5 -48 20q-13 22 0 42
q10 12 14 18q-7 6 -11 15q-2 9 1 20.5t7 18.5t13.5 20.5t11.5 15.5q47 74 107 153q18 23 38 47q58 75 128 150q-76 -18 -115 -27l-66 -15q-27 -6 -38 -3q-7 2 -11 12q-24 7 -31.5 32.5t4.5 45.5q0 21 8 38q9 19 33 13q4 -2 19 1q7 5 14 5q224 16 333 46q18 5 32 -4q3 1 5 0
q20 -2 29 -13q15 0 28 -3q15 -5 20 -22t-7 -28q-31 -26 -129 -134q-84 -92 -124 -139q-41 -47 -121 -143q-15 -18 -54 -64q4 0 12 2q1 1 3 3.5t3 3.5q7 9 21.5 27.5t22.5 27.5q39 48 90 106q98 111 194 201q5 4 10.5 2t7 -7t-2.5 -10q-104 -102 -194 -201q-55 -59 -93 -104
q-6 -7 -19 -22t-19 -23q37 6 154 15q40 3 115 7q86 5 114 3q34 0 47 -30q15 -12 15.5 -31.5t-14.5 -33.5z" />
    <glyph glyph-name="braceleft" unicode="{" horiz-adv-x="635" 
 />
    <glyph glyph-name="bar" unicode="|" 
 />
    <glyph glyph-name="braceright" unicode="}" horiz-adv-x="635" 
 />
    <glyph glyph-name="asciitilde" unicode="~" horiz-adv-x="630" 
d="M521 217q-35 -23 -84.5 -26t-88.5 14q-47 19 -74 62q-6 12 -10 17l-2 3l-2 2q0 1 -1 1h-14h-5h3q-2 -1 -5 -1.5t-5 -0.5q2 1 -7 -3q-9 -5 -23 -15q-16 -14 -20 -21q-2 -3 -4.5 -8.5t-3.5 -8.5l-6 -8l1 2l-1 -1q-8 -14 -24.5 -15.5t-27.5 10.5q-18 19 -12 46q11 50 40 75
q23 20 51.5 32.5t61.5 12.5t58 -18q19 -14 35 -39q2 -2 5.5 -8t5.5 -8q0 -1 1 -1l1 -2q1 -1 3 -2l2 -2q4 -2 6 -4q1 0 5 -1.5t5 -1.5q15 -4 27 -4q11 -2 20 0q17 -2 24 11q3 10 3.5 12.5t-2.5 8.5l-3 6q-9 33 18.5 56.5t58.5 4.5q55 -34 42 -101q-9 -48 -52 -76z" />
    <glyph glyph-name="exclamdown" unicode="&#xa1;" horiz-adv-x="264" 
d="M94 249v66q0 44 38 49q4 5 15 9q4 -1 13 -1t13 -1q14 -5 20 -20q1 -3 1 -10t1 -11q14 4 16 -10q2 -58 -4 -210q-4 -135 -7 -206q-1 -4 -4 -5q0 -2 2 -6v-4q-7 -10 -17 -8q-5 0 -27 -2q-8 0 -11 6q-11 4 -11 14q-2 14 -2 20q0 -4 -1 -13t-2 -13q-1 -6 -7 -6t-7 6
q-3 39 -5 111.5t-3 88.5q-4 71 -7 103q-1 9 -2 26.5t-2 26.5zM116 410q-20 0 -34 16.5t-10 36.5q4 24 34 33q1 1 5 3q33 14 63 -8q6 -4 8.5 -10t2 -10.5t-1.5 -8.5l-1 -5q4 -10 -1.5 -18t-17.5 -8q-21 -22 -47 -21z" />
    <glyph glyph-name="cent" unicode="&#xa2;" 
 />
    <glyph glyph-name="sterling" unicode="&#xa3;" horiz-adv-x="620" 
d="M590 100q-7 -22 -27 -32.5t-42 -3.5q-73 21 -130 25q-5 0 -14.5 -0.5t-14.5 -0.5q-39 -2 -147 -24q-4 -2 -5 2t3 6t5 2h-2q-9 -3 -17 -3q-19 1 -26 17.5t2 32.5q17 29 39 51q2 2 3 4q1 1 4 3q9 8 27 22q23 23 27 52q8 56 -9 112q-21 -2 -59 -4q-6 0 -20 -0.5t-21 -0.5
q-12 0 -15 3q-5 8 4 12h1q1 1 5 -1q5 0 17 4l21 3l34 4q1 0 3 1q-4 0 -11 -0.5t-12.5 -1t-10.5 -1.5q-13 -1 -39 -5q-2 -2 -2 -3h-1q0 1 1 1l1 2q-4 0 -13.5 -1t-14.5 -2q-8 0 -9.5 8.5t4.5 12.5q3 1 9.5 4t9.5 5q-5 7 -2.5 16.5t12.5 11.5q35 8 70 9q-12 20 -21 39
q-29 69 1 122q29 55 88 71q64 16 117 -18q44 -29 47 -56q5 -5 7 -8q39 -57 6 -95q-5 -5 -12 -1q-12 -4 -16 6q-23 56 -48 78q-16 14 -38 18t-40 -9q-34 -30 -3 -94q13 -27 23 -42q4 -6 6 -10q5 0 15.5 -0.5t15.5 -0.5q25 -3 26 -3q9 0 14 -1q4 0 12 -4q3 -1 11 -3
q27 -9 23 -38q0 -3 -1 -4q-6 -29 -33 -26q-20 3 -58 9q9 -16 13 -30q24 -76 -11 -151q93 5 182 -22q21 -7 32 -27.5t4 -41.5zM438 578q11 -16 18 -31q-5 18 -18 31z" />
    <glyph glyph-name="currency" unicode="&#xa4;" 
 />
    <glyph glyph-name="yen" unicode="&#xa5;" horiz-adv-x="620" 
d="M358 325l2 -14v17h-2v-3zM462 467q-9 -9 -27 -26.5t-27 -26.5q66 2 128 -10q18 -4 28 -22t5 -36q-12 -40 -58 -33q-64 11 -122 14q0 -17 1 -26q27 -3 58 -9q21 -4 24.5 -22.5t-9.5 -33.5t-33 -10q-15 3 -38 7q1 -21 3.5 -62t3.5 -61q1 -15 -13 -15q0 -2 1 -3
q0 -1 1.5 -17.5t-0.5 -20.5q0 -20 -2 -29q-6 -32 -40 -30.5t-43 30.5q-4 13 -4 60v48q0 64 -1 96v16q-4 0 -7 1q-35 2 -70 0q-55 -5 -70 -4q-7 1 -8.5 7t3.5 10q44 28 145 41q2 0 4 0.5t3 0.5v24v2q-41 -1 -83 -6q-17 -2 -49 -7t-48 -6q-11 -1 -13.5 10t5.5 17q32 23 97 46
q37 13 71 20q-59 114 -165 220q-8 9 0.5 17.5t17.5 0.5q4 -3 10 -9l-7 14v1q-1 1 -1 2q-1 1 -1 2v-1q-2 6 0 13q3 11 14 15t21 -1q7 -4 14 -9t14.5 -12.5t11 -11.5t12.5 -14t11 -12q28 -33 53 -65q32 -41 62 -94q36 48 55 72q8 10 26 34.5t29 38.5t27.5 33.5t31.5 33.5
q14 14 35 14.5t35 -14.5q12 -12 14.5 -29.5t-6.5 -31.5q-17 -23 -37 -45t-52 -54.5t-41 -41.5z" />
    <glyph glyph-name="brokenbar" unicode="&#xa6;" 
 />
    <glyph glyph-name="section" unicode="&#xa7;" 
 />
    <glyph glyph-name="dieresis" unicode="&#xa8;" 
d="M345 838q-1 -1 -2.5 -5t-3.5 -6q-5 -11 -16 -16q-22 -13 -44 0q-11 5 -15 15q-6 10 -6 22q0 20 13 32q1 0 4.5 3t5.5 4q11 6 22 6q3 0 11 -2q10 -1 19 -10q8 -10 12 -20q2 -11 0 -23zM462 831q-9 -25 -31 -29q-22 -8 -40 10q-8 8 -11 19q-3 8 -1 19q-2 16 11 27
q13 15 35 10q17 -6 25 -15q17 -17 12 -41z" />
    <glyph glyph-name="copyright" unicode="&#xa9;" horiz-adv-x="801" 
d="M626 406l-3 9l-6 12q-10 18 -16 26q-1 2 -3.5 5.5t-3.5 5.5l-7 8q-16 18 -25 26q-7 7 -11 10q-3 3 -4 3l-2 2q-13 10 -26 17l-14 7l-4 2l-4 2q-53 24 -119 20.5t-110 -43.5q-28 -26 -43 -55q16 17 37 35q4 0 2 -2q-32 -31 -52 -63q-20 -59 -2 -120q6 -19 -10.5 -33
t-33.5 -8q0 -109 71 -157q88 -61 184 -46q53 9 92 31t70 59q2 2 2 3q2 2 6 8q6 8 8 13q9 13 15 27q1 2 2.5 4.5t2.5 5.5t2 4q1 2 1 3q1 1 1 2q1 1 1 2q6 14 10 30q15 60 2 110q-2 14 -10 35zM524 175q-36 -69 -90 -85q-67 -20 -109 30q-32 39 -42.5 96.5t1.5 106.5
q12 59 42 97q47 62 92 60q48 -1 77 -54q15 -21 19 -44q11 -53 -4 -89q-10 -25 -32 -33t-43 10q-17 15 -9 35q2 6 -1 36q-2 22 -3 32q0 2 -1 7t-2 7q-14 11 -33 14h-4q-39 -39 -51 -102q-6 -34 1.5 -72.5t29.5 -62.5q9 -9 18 -13.5t18.5 -2t17 6t17 12.5t15 15t15 17t12.5 14
q18 21 40 3t9 -41zM730 207q-25 -72 -77 -126t-122 -81q-67 -26 -144 -19.5t-139 43.5q-72 42 -100 103q-29 67 -18 143q3 21 9 42q-3 6 -7 20q-16 64 6.5 131.5t71.5 113.5q54 50 126.5 69t146.5 5q70 -14 128.5 -60t90.5 -108.5t43 -135.5t-15 -140z" />
    <glyph glyph-name="guillemotleft" unicode="&#xab;" horiz-adv-x="492" 
d="M389 89q-2 0 -6 2q-8 5 -26 26l-3 -3q4 -4 11 -11.5t10 -10.5q7 -9 -1.5 -17.5t-17.5 -1.5q-1 1 -4 3.5t-5 3.5q0 4 -3 9q-8 10 -45.5 50.5t-55.5 63.5q0 1 2 5q-3 0 -7 2l-9 12q0 5 4 10q21 24 66 71q50 52 66 65q5 3 10 1q1 0 2 -1q5 -1 27 -11q3 -2 8.5 -5t8.5 -4
q-9 -13 -32 -38q-56 -66 -64 -77q-2 -2 -2 -3l-2 -2q-6 -9 3 -14q1 -5 7 -13q7 -10 34 -39q15 -17 47 -49q-4 -4 -11.5 -12t-11.5 -12zM229 89q-2 0 -6 2q-8 5 -26 26l-3 -3q9 -7 21 -22q8 -9 -1 -18t-17 -1q-2 1 -5.5 4t-4.5 3q0 6 -3 9q-10 11 -46.5 51t-54.5 63q0 1 2 5
q-3 0 -7 2l-9 12q0 5 4 10q12 14 35.5 38.5t30.5 32.5q49 51 67 65q4 3 10 1q1 0 1 -1q4 -1 27 -11q12 -6 17 -9q-12 -17 -31 -38q-64 -76 -65 -77q-2 -2 -2 -3q0 -2 -2 -2q-5 -8 3 -14q1 -3 3.5 -7.5t3.5 -5.5q7 -10 34 -39q16 -17 48 -49z" />
    <glyph glyph-name="logicalnot" unicode="&#xac;" 
 />
    <glyph glyph-name="registered" unicode="&#xae;" horiz-adv-x="820" 
d="M651 302q-1 2 -1.5 6.5t-0.5 6.5q-4 16 -7 24q0 2 -2 6t-2 6l-1 2q0 1 -1 3q-13 24 -27 44l-3 3q-2 3 -2 4q-6 6 -9 10l-18 18q-2 2 -5.5 5t-5.5 4l-6 4q-14 10 -22 14q-10 7 -23 12l-7 3q-3 2 -9 4q-17 5 -29 8l-12 3l-9 1q-34 2 -51 0q-5 0 -8 -1h-1q-2 0 -7 -1t-7 -1
q-20 -5 -26 -7q-6 -1 -26 -8l-8 -3l2 1q-3 -1 -9.5 -3.5t-9.5 -4.5q-3 -1 -4 -2q0 1 2 1l-8 -4l-12 -6q-11 -6 -23 -14q-16 -9 -38 -30q-12 -11 -26 -10t-25 11q-19 -43 -20 -87q-6 -106 64 -182q55 -61 132 -84q-2 4 -2 7q0 5 7 12v2q0 1 -2.5 8.5t-3.5 11.5q-6 30 -9 46
q-4 23 -17 91q-1 3 -2 7.5t-1 6.5l-9 3q-38 14 -35 52q-7 7 -5 15q4 16 21 16q5 5 11 8q-11 55 -18 73q-5 14 6 29t26 14q51 -7 118 -51q39 -24 94 -76q17 -18 10 -39.5t-29 -30.5q-31 -12 -67 -18q9 -8 34.5 -31t40.5 -36q3 0 7 -2q22 -5 33 -25q11 -19 5 -41t-25 -33
t-41 -5.5t-33 24.5q-10 16 -7 39q-6 15 -27 40q-26 31 -47 51q-5 6 -11 11q0 -5 1 -14.5t2 -14.5q1 -9 4 -29t4 -29q1 -6 2.5 -16t2.5 -18.5t1 -16.5q3 -32 -9 -40q-4 -5 -9 -6q7 -2 21 -4q51 -8 105 7q54 13 90 43l21 21l9 9q0 1 2 3q0 1 1 2q16 22 26 44v1q2 6 3 8
q1 3 2.5 7t1.5 6q4 9 7 25q0 4 2 12v2v3q2 18 2 26q0 5 -1 14t-1 13v4zM371 341q6 0 9 -1q9 0 13 -1q-1 1 -10 7q-22 17 -39 25q2 -16 4 -26l18 -3q5 0 5 -1zM715 137q-56 -115 -179 -153q-112 -35 -228.5 11.5t-171.5 149.5q-37 69 -32 147.5t49 140.5q0 10 6 19
q75 105 186 130q131 27 238 -35q111 -64 149 -178q39 -114 -17 -232z" />
    <glyph glyph-name="macron" unicode="&#xaf;" 
d="M346 730q-40 -6 -96 -7.5t-90 3.5q-18 3 -24 14.5t1 22.5t23 15q13 4 43 7t72.5 5.5t58.5 4.5q24 2 36 -12t5 -31t-29 -22z" />
    <glyph glyph-name="degree" unicode="&#xb0;" horiz-adv-x="382" 
d="M209 692q-15 -4 -17 -9q-3 -5 -3 -9v2q4 -8 4 -17q5 -1 15 1q19 4 28 12l10 8q-3 7 -15.5 10.5t-21.5 1.5zM216 601q-35 2 -56 19q-24 -4 -36 18q-22 39 -1 81t66 48q47 7 80 -10q44 -22 50 -57q8 -45 -24.5 -73.5t-78.5 -25.5z" />
    <glyph glyph-name="plusminus" unicode="&#xb1;" horiz-adv-x="486" 
d="M303 525h7q2 0 6.5 0.5t6.5 0.5h-20v-1zM415 475q-25 -3 -111 -5q1 -13 1 -41q1 0 1 -1q2 -15 -1 -28q5 -6 1.5 -13.5t-12.5 -5.5l-9 3h-1l-2 1v-1q5 -19 4 -25q0 -9 -9.5 -12.5t-14.5 4.5q-8 -6 -20 -4q-20 3 -25 26q-3 11 -3.5 23.5t0.5 29.5t1 23q0 13 1 19
q-11 0 -31.5 -0.5t-30.5 -0.5q-45 -3 -54 -2q-2 12 -4 16q0 23 -2 35q85 6 125 7v4q-76 0 -114 -1q-6 0 -6.5 5.5t5.5 6.5q53 7 116 10q6 65 17 103q3 8 13 11t17 -3l2 -2q9 -9 6 -22v-12q1 6 5 16q2 5 7 5t7 -5q7 -17 7 -78q1 -4 1 -11q55 0 82 -1q8 0 10 -6.5t-2 -12.5
t-12 -6h-7q2 0 6 -2q4 -1 8 -7h23q12 0 18.5 -9.5t3 -19.5t-16.5 -11zM408 151q-9 -36 -52 -29q-5 1 -14.5 4t-13.5 3q-22 2 -34 2q-35 3 -63 2q-42 0 -63 -1q-54 -3 -64 0q-15 4 -16.5 19.5t11.5 24.5q2 1 8 5q-2 23 17 32q21 11 69 15q10 0 29.5 1t28.5 2q80 2 115 -12
q12 -5 10 -15q18 -5 27.5 -20t4.5 -33z" />
    <glyph glyph-name="acute" unicode="&#xb4;" horiz-adv-x="430" 
d="M273 769q13 -20 8.5 -31t-39.5 -48l-3 -3t-2.5 -3t-2.5 -3q-20 -20 -36 -30q-33 -14 -47 -4q-5 3 -6 7.5t1.5 12t5.5 13.5t10 17.5t11 17.5q24 43 49 58.5t51 -4.5z" />
    <glyph glyph-name="paragraph" unicode="&#xb6;" 
 />
    <glyph glyph-name="periodcentered" unicode="&#xb7;" horiz-adv-x="205" 
d="M143 470q11 -12 4 -28l-1 -2v-2q-7 -22 -29.5 -30t-41.5 6q-2 1 -4 3q-7 0 -10 7q-2 6 -2 10q-4 7 -4 17q0 11 6 21q6 8 12 12q1 0 3 1.5t3 2.5q11 9 22 8h5q27 -2 37 -26z" />
    <glyph glyph-name="cedilla" unicode="&#xb8;" 
d="M441 -83q-54 -86 -199 -70q-4 0 -6 4t0 7t6 3h1q-20 5 -35 15q-25 16 -13.5 41t39.5 20q4 -1 18.5 -3.5t20 -3t17 -1t21 0.5t18.5 4q21 6 36 16t14 27q-1 16 -12 28.5t-27 15.5q-14 3 -28 -2l-6 -9q-21 -30 -35 -36q-12 -5 -23.5 0.5t-11.5 18.5q1 16 17 48q13 24 23 44
q2 5 6 14.5t6 14.5q7 24 18 38q32 34 60 15q21 -13 2 -58q-6 -18 -14 -29q1 0 3.5 -0.5t3.5 -1.5q27 -7 47 -26q33 -22 43.5 -60.5t-10.5 -74.5z" />
    <glyph glyph-name="guillemotright" unicode="&#xbb;" horiz-adv-x="478" 
d="M418 222q-5 -6 -66 -76q-6 -7 -17.5 -19.5t-17.5 -18.5q-24 -29 -37 -34q-4 -2 -6 -2q-20 15 -33 28q0 1 1 2v2q1 2 3 5.5t3 5.5q-7 4 -2 9q25 35 58 71q25 32 37 43q-39 42 -87 85q-5 5 -1.5 10.5t9.5 4.5q-4 9 -3 16q6 4 8 6q12 8 18 11q4 0 5 -1q27 -18 63 -49
q25 -23 58 -61q9 -9 7 -22q7 -7 0 -16zM250 222q-12 -16 -67 -76q-6 -6 -17.5 -19t-16.5 -19q-2 -2 -10 -12t-13.5 -14.5t-13.5 -7.5q-4 -2 -7 -2q-28 22 -33 28l2 4q1 4 6 11q-8 4 -3 9q26 34 58 71q36 42 37 43q-32 35 -87 85q-4 5 -0.5 10.5t9.5 4.5q-5 7 -3 16q6 4 8 6
q12 8 18 11q3 0 5 -1q27 -19 62 -49q21 -19 59 -61q9 -11 6 -22q7 -7 1 -16z" />
    <glyph glyph-name="Agrave" unicode="&#xc0;" horiz-adv-x="470" 
d="M366 30q-21 8 -67 215l-78 -1q-24 -97 -31 -180q0 -6 -4 -8t-8 0t-4 8q9 105 33 180h-9l-30 -151l-6 -45q-4 -43 -36.5 -57t-60.5 8t-22 66q14 100 33 175q-18 -2 -27 -2q2 5 1 9q-32 8 -41.5 39t16 63.5t80.5 40.5q26 120 56 193q1 3 9 20.5t11 24t11.5 20t16 19.5
t18.5 12t23 6q13 1 26 -7t19 -20q22 -2 36.5 -16t16.5 -38q4 -47 11 -120q1 -1 2 -1q2 58 7 102l3 -48q7 -117 11 -153q36 -4 54 -30t11.5 -56.5t-33.5 -47.5q29 -130 38 -200q5 -42 -11.5 -60.5t-40 -6.5t-34.5 47zM218 374l56 4q0 2 -6.5 57t-12.5 82q-29 -102 -37 -143z
M205 736q-45 48 -49 61q-3 13 10 27q26 20 51 4.5t49 -58.5q4 -6 11 -17.5t10 -17.5t5.5 -13.5t1.5 -12t-6 -7.5q-14 -10 -47 4q-16 10 -36 30z" />
    <glyph glyph-name="Aacute" unicode="&#xc1;" horiz-adv-x="470" 
d="M366 30q-21 8 -67 215l-78 -1q-24 -97 -31 -180q0 -6 -4 -8t-8 0t-4 8q9 105 33 180h-9l-30 -151l-6 -45q-4 -43 -36.5 -57t-60.5 8t-22 66q14 100 33 175q-18 -2 -27 -2q2 5 1 9q-32 8 -41.5 39t16 63.5t80.5 40.5q26 120 56 193q1 3 9 20.5t11 24t11.5 20t16 19.5
t18.5 12t23 6q13 1 26 -7t19 -20q22 -2 36.5 -16t16.5 -38q4 -47 11 -120q1 -1 2 -1q2 58 7 102l3 -48q7 -117 11 -153q36 -4 54 -30t11.5 -56.5t-33.5 -47.5q29 -130 38 -200q5 -42 -11.5 -60.5t-40 -6.5t-34.5 47zM218 374l56 4q0 2 -6.5 57t-12.5 82q-29 -102 -37 -143z
M349 824q13 -20 8.5 -31t-39.5 -48l-3 -3t-2.5 -3t-2.5 -3q-20 -20 -36 -30q-33 -14 -47 -4q-5 3 -6 7.5t1.5 12t5.5 13.5t10 17.5t11 17.5q24 43 49 58.5t51 -4.5z" />
    <glyph glyph-name="Acircumflex" unicode="&#xc2;" horiz-adv-x="470" 
d="M366 30q-21 8 -67 215l-78 -1q-24 -97 -31 -180q0 -6 -4 -8t-8 0t-4 8q9 105 33 180h-9l-30 -151l-6 -45q-4 -43 -36.5 -57t-60.5 8t-22 66q14 100 33 175q-18 -2 -27 -2q2 5 1 9q-32 8 -41.5 39t16 63.5t80.5 40.5q26 120 56 193q1 3 9 20.5t11 24t11.5 20t16 19.5
t18.5 12t23 6q13 1 26 -7t19 -20q22 -2 36.5 -16t16.5 -38q4 -47 11 -120q1 -1 2 -1q2 58 7 102l3 -48q7 -117 11 -153q36 -4 54 -30t11.5 -56.5t-33.5 -47.5q29 -130 38 -200q5 -42 -11.5 -60.5t-40 -6.5t-34.5 47zM218 374l56 4q0 2 -6.5 57t-12.5 82q-29 -102 -37 -143z
M364 739q21 -22 1 -36q-22 -15 -52 4q-5 3 -10 7q-10 9 -19 21.5t-13.5 20t-9.5 12t-10.5 1t-14.5 -16.5q-6 -9 -23.5 -27t-28.5 -32q-6 -9 -27 -4.5t-21 17.5q0 18 32.5 56.5t57.5 52.5q14 8 29 8t26.5 -5.5t25 -16.5t21.5 -20.5t19.5 -23t16.5 -18.5z" />
    <glyph glyph-name="Atilde" unicode="&#xc3;" horiz-adv-x="470" 
d="M366 30q-21 8 -67 215l-78 -1q-24 -97 -31 -180q0 -6 -4 -8t-8 0t-4 8q9 105 33 180h-9l-30 -151l-6 -45q-4 -43 -36.5 -57t-60.5 8t-22 66q14 100 33 175q-18 -2 -27 -2q2 5 1 9q-32 8 -41.5 39t16 63.5t80.5 40.5q26 120 56 193q1 3 9 20.5t11 24t11.5 20t16 19.5
t18.5 12t23 6q13 1 26 -7t19 -20q22 -2 36.5 -16t16.5 -38q4 -47 11 -120q1 -1 2 -1q2 58 7 102l3 -48q7 -117 11 -153q36 -4 54 -30t11.5 -56.5t-33.5 -47.5q29 -130 38 -200q5 -42 -11.5 -60.5t-40 -6.5t-34.5 47zM218 374l56 4q0 2 -6.5 57t-12.5 82q-29 -102 -37 -143z
M350 708q-82 -42 -134 28q-17 23 -39 1q-7 -5 -11 -11l-5 -10l-2 -3q-4 -7 -13.5 -8t-15.5 4q-9 11 -6 27q6 26 22 41q13 11 28.5 18.5t33.5 7t31 -12.5q5 -4 13.5 -13.5t13.5 -14t11.5 -8.5t12.5 -4q10 0 18.5 7t10.5 15q4 24 12.5 33t24.5 -1q30 -18 22 -55
q-5 -29 -28 -41z" />
    <glyph glyph-name="Adieresis" unicode="&#xc4;" horiz-adv-x="470" 
d="M366 30q-21 8 -67 215l-78 -1q-24 -97 -31 -180q0 -6 -4 -8t-8 0t-4 8q9 105 33 180h-9l-30 -151l-6 -45q-4 -43 -36.5 -57t-60.5 8t-22 66q14 100 33 175q-18 -2 -27 -2q2 5 1 9q-32 8 -41.5 39t16 63.5t80.5 40.5q26 120 56 193q1 3 9 20.5t11 24t11.5 20t16 19.5
t18.5 12t23 6q13 1 26 -7t19 -20q22 -2 36.5 -16t16.5 -38q4 -47 11 -120q1 -1 2 -1q2 58 7 102l3 -48q7 -117 11 -153q36 -4 54 -30t11.5 -56.5t-33.5 -47.5q29 -130 38 -200q5 -42 -11.5 -60.5t-40 -6.5t-34.5 47zM218 374l56 4q0 2 -6.5 57t-12.5 82q-29 -102 -37 -143z
M253 736q-1 -1 -2.5 -5t-3.5 -6q-5 -11 -16 -16q-22 -13 -44 0q-11 5 -15 15q-6 10 -6 22q0 20 13 32q1 0 4.5 3t5.5 4q11 6 22 6q3 0 11 -2q10 -1 19 -10q8 -10 12 -20q2 -11 0 -23zM370 729q-9 -25 -31 -29q-22 -8 -40 10q-8 8 -11 19q-3 8 -1 19q-2 16 11 27q13 15 35 10
q17 -6 25 -15q17 -17 12 -41z" />
    <glyph glyph-name="Aring" unicode="&#xc5;" horiz-adv-x="470" 
d="M366 30q-21 8 -67 215l-78 -1q-24 -97 -31 -180q0 -6 -4 -8t-8 0t-4 8q9 105 33 180h-9l-30 -151l-6 -45q-4 -43 -36.5 -57t-60.5 8t-22 66q14 100 33 175q-18 -2 -27 -2q2 5 1 9q-32 8 -41.5 39t16 63.5t80.5 40.5q26 120 56 193q1 3 9 20.5t11 24t11.5 20t16 19.5
t18.5 12t23 6q13 1 26 -7t19 -20q22 -2 36.5 -16t16.5 -38q4 -47 11 -120q1 -1 2 -1q2 58 7 102l3 -48q7 -117 11 -153q36 -4 54 -30t11.5 -56.5t-33.5 -47.5q29 -130 38 -200q5 -42 -11.5 -60.5t-40 -6.5t-34.5 47zM218 374l56 4q0 2 -6.5 57t-12.5 82q-29 -102 -37 -143z
M255 805q-21 -6 -24 -13q-4 -6 -5 -12q2 2 1 2q6 -12 6 -23q8 -1 20 1q29 9 38 18q2 1 5 5t5.5 6t3.5 0q-4 8 -21.5 13t-28.5 3zM264 704q-35 2 -55 18q-23 -4 -36 18q-22 39 -1 81t65 49q49 5 81 -11q17 -8 31.5 -23.5t18.5 -33.5q8 -45 -25 -73t-79 -25z" />
    <glyph glyph-name="AE" unicode="&#xc6;" horiz-adv-x="858" 
d="M886 172q1 -28 -21 -42q-2 -9 -10 -10q-121 -19 -230 -52q-77 -25 -107 -37h-1q-1 -1 -4 -1t-4 -1q-5 -2 -32 -11.5t-51 -17.5l-24 -8q-6 -1 -10 0q-34 -6 -43 16q-3 8 -1 15q-20 8 -30 29t-2 41q-4 29 -6 89l-9 30l-77 -2q-23 -106 -27 -181q0 -5 -4 -7t-8 0t-4 7
q7 110 30 181q-6 0 -10 -1l-28 -151l-4 -44q-3 -43 -35 -58t-61 6t-23 66q12 104 30 176q-20 -2 -27 -2q2 4 1 8q-33 8 -43 39t14.5 63.5t80.5 42.5q22 117 54 193q1 2 7 17.5t8.5 20.5t8.5 18.5t11.5 19l13 13t16.5 11t20 3.5q14 1 27.5 -6.5t18.5 -19.5q35 -2 49 -33
q73 30 180 53l24 5q84 14 131 15q9 1 28 1q-111 -24 -124 -26q-148 -29 -212 -48l-24 -7q1 -4 1 -13l1 -5q5 2 16 5t16 4q86 27 211 47q52 10 166 37q11 -2 20 -6l16 -6q12 -10 17 -14q10 -35 4 -65l-53 -13q-31 -11 -72 -19q-4 -2 -6 -2q-129 -32 -169 -45q-39 -11 -99 -34
l-2 -2q0 -6 2.5 -28.5t2.5 -24.5q155 58 177 65q15 3 32 7t38 9t32 8l13 2q6 1 12 1.5t13 1t11 0.5q50 0 65 -27q1 -1 1.5 -2.5t1.5 -3t1 -2.5q4 -8 5 -13q1 -1 2 -1q14 -9 17 -27q2 -14 -6.5 -29t-22.5 -22q-10 -4 -21 -6t-26 -3.5t-23 -2.5q-44 -5 -76 -13
q-83 -20 -150 -44q-31 -12 -88 -39l4 -68v-4l3 1q25 12 70 27l90 32q10 4 46 16q41 14 76 24l42 12q6 1 17.5 5t15.5 5q28 5 48.5 -6.5t30.5 -35.5t14.5 -47t5.5 -49zM223 340q7 2 33 3t31 2q-12 60 -23 156q-12 -39 -25.5 -97t-15.5 -64zM463 316q-3 -15 -18 -28
q24 11 159 62l18 6l-1 3q-33 -9 -97 -27q-37 -8 -61 -16zM412 39l3 -11q29 13 73.5 24.5t64.5 18.5q6 3 18 7l-1 3q-66 -18 -98 -27q-8 -2 -28.5 -7.5t-31.5 -7.5z" />
    <glyph glyph-name="Ccedilla" unicode="&#xc7;" horiz-adv-x="560" 
d="M522 379q42 -65 11 -182q-24 -93 -80 -137q-42 -35 -96 -50l-3 -6q-6 -18 -14 -29q1 0 3.5 -0.5t3.5 -1.5q27 -7 47 -26q33 -22 43.5 -60.5t-10.5 -74.5q-54 -86 -199 -70q-4 0 -6 4t0 7t6 3h1q-20 5 -35 15q-25 16 -13.5 41t39.5 20q4 -1 18.5 -3.5t20 -3t17 -1t21 0.5
t18.5 4q21 6 36 16t14 27q-1 16 -12 28.5t-27 15.5q-14 3 -28 -2l-6 -9q-21 -30 -35 -36q-12 -5 -23.5 0.5t-11.5 18.5q1 16 17 48q13 24 23 44l9 21q-38 3 -69 16q-62 25 -107 77t-59 117q-7 37 -7 65q2 113 71 203q47 63 105 104q29 21 60 39q48 29 69 27q15 -1 24.5 -11
t9.5 -23q6 -12 4 -39q-4 -31 0 -147l3 -95q0 -18 2 -50q0 -37 -1 -41t-5.5 -6t-8.5 0q-5 3 -6 5h-8q-18 5 -28 26q-3 5 -8 19h-3v-3q6 -22 18 -37.5t31 -12.5q10 2 15 -5t2 -15t-13 -9q-19 -2 -37.5 9t-26.5 29q-12 26 -14 96l-6 193q-8 -6 -13 -9q-120 -91 -141 -205
q0 -3 -1 -7t-1 -7q-1 -5 -1 -16q-1 -33 10 -69q15 -47 53.5 -81.5t85.5 -37.5q2 0 6.5 -0.5t6.5 -0.5q58 2 99 38q17 16 26 33q23 41 21 105q-2 31 -8 45q-11 21 -6 44.5t27 35.5q21 12 43.5 5.5t36.5 -26.5zM298 546q-7 -6 -16 -11q2 -18 5.5 -51t4.5 -49h5q-3 59 1 111z
M420 322l-1 2q1 -1 1 -2zM421 320l-1 2v-1z" />
    <glyph glyph-name="Egrave" unicode="&#xc8;" 
d="M121 -13q27 -4 41 1q2 0 3 1q16 8 23 12q16 8 46 24v2q-36 -14 -55 -20q-46 -17 -58 -20zM343 330l-1 3q-16 -5 -47 -14.5t-46 -14.5q-47 -14 -58 -17q-3 -17 -16 -28q33 17 151 64q8 4 17 7zM23 528q75 40 212 76q4 1 11.5 3t11.5 3q82 16 125 19q9 1 27 1
q-69 -18 -118 -29q-136 -30 -202 -53q-30 -9 -67 -26q-4 2 0 6zM584 121q-2 -9 -10 -10q-117 -22 -219 -58q-68 -24 -101 -38h-1q-1 -1 -3.5 -2t-3.5 -1q-5 -3 -16.5 -7t-16.5 -7l-1 -1q-5 -4 -22.5 -10t-32 -10.5t-13.5 -3.5q-6 -1 -10 -1q-32 -6 -42 15q-3 6 -1 14
q-19 8 -29.5 27.5t-3.5 38.5q-4 22 -11 105l-12 120l-12 114q-19 21 -16 49t25 47l4 8q28 12 64 24q73 25 202 52q53 12 157 40q14 -2 20 -4t16 -6q3 -2 8.5 -6.5t7.5 -6.5q11 -35 6 -62q-16 -5 -50 -15q-39 -13 -68 -20q-4 -2 -6 -2q-134 -37 -161 -49q-51 -17 -95 -36
l-2 -2q0 -4 3.5 -26t3.5 -25q118 51 168 69q41 10 97 26q2 1 6.5 2t6.5 1q13 2 35 4q48 2 63 -24q1 -1 1.5 -2.5t1.5 -3t1 -2.5q4 -8 5 -12q1 -1 2 -1q13 -7 17 -25q3 -14 -4.5 -28.5t-21.5 -21.5q-9 -4 -20 -6.5t-24.5 -4t-21.5 -3.5q-39 -6 -73 -15q-80 -22 -142 -48
q-23 -10 -84 -40q1 -11 3 -32.5t3 -32.5v-4q1 0 1 1l2 1q22 10 66 28q56 22 85 33q30 12 45 17q48 18 72 26l39 12q6 1 16.5 5.5t15.5 5.5q27 6 47 -4.5t30.5 -33t15.5 -44.5t7 -47q1 -26 -19 -41zM165 694q-45 48 -49 61q-3 13 10 27q26 20 51 4.5t49 -58.5q4 -6 11 -17.5
t10 -17.5t5.5 -13.5t1.5 -12t-6 -7.5q-14 -10 -47 4q-16 10 -36 30z" />
    <glyph glyph-name="Eacute" unicode="&#xc9;" 
d="M121 -13q27 -4 41 1q2 0 3 1q16 8 23 12q16 8 46 24v2q-36 -14 -55 -20q-46 -17 -58 -20zM343 330l-1 3q-16 -5 -47 -14.5t-46 -14.5q-47 -14 -58 -17q-3 -17 -16 -28q33 17 151 64q8 4 17 7zM23 528q75 40 212 76q4 1 11.5 3t11.5 3q82 16 125 19q9 1 27 1
q-69 -18 -118 -29q-136 -30 -202 -53q-30 -9 -67 -26q-4 2 0 6zM584 121q-2 -9 -10 -10q-117 -22 -219 -58q-68 -24 -101 -38h-1q-1 -1 -3.5 -2t-3.5 -1q-5 -3 -16.5 -7t-16.5 -7l-1 -1q-5 -4 -22.5 -10t-32 -10.5t-13.5 -3.5q-6 -1 -10 -1q-32 -6 -42 15q-3 6 -1 14
q-19 8 -29.5 27.5t-3.5 38.5q-4 22 -11 105l-12 120l-12 114q-19 21 -16 49t25 47l4 8q28 12 64 24q73 25 202 52q53 12 157 40q14 -2 20 -4t16 -6q3 -2 8.5 -6.5t7.5 -6.5q11 -35 6 -62q-16 -5 -50 -15q-39 -13 -68 -20q-4 -2 -6 -2q-134 -37 -161 -49q-51 -17 -95 -36
l-2 -2q0 -4 3.5 -26t3.5 -25q118 51 168 69q41 10 97 26q2 1 6.5 2t6.5 1q13 2 35 4q48 2 63 -24q1 -1 1.5 -2.5t1.5 -3t1 -2.5q4 -8 5 -12q1 -1 2 -1q13 -7 17 -25q3 -14 -4.5 -28.5t-21.5 -21.5q-9 -4 -20 -6.5t-24.5 -4t-21.5 -3.5q-39 -6 -73 -15q-80 -22 -142 -48
q-23 -10 -84 -40q1 -11 3 -32.5t3 -32.5v-4q1 0 1 1l2 1q22 10 66 28q56 22 85 33q30 12 45 17q48 18 72 26l39 12q6 1 16.5 5.5t15.5 5.5q27 6 47 -4.5t30.5 -33t15.5 -44.5t7 -47q1 -26 -19 -41zM336 779q13 -20 8.5 -31t-39.5 -48l-3 -3t-2.5 -3t-2.5 -3q-20 -20 -36 -30
q-33 -14 -47 -4q-5 3 -6 7.5t1.5 12t5.5 13.5t10 17.5t11 17.5q24 43 49 58.5t51 -4.5z" />
    <glyph glyph-name="Ecircumflex" unicode="&#xca;" 
d="M121 -13q27 -4 41 1q2 0 3 1q16 8 23 12q16 8 46 24v2q-36 -14 -55 -20q-46 -17 -58 -20zM343 330l-1 3q-16 -5 -47 -14.5t-46 -14.5q-47 -14 -58 -17q-3 -17 -16 -28q33 17 151 64q8 4 17 7zM23 528q75 40 212 76q4 1 11.5 3t11.5 3q82 16 125 19q9 1 27 1
q-69 -18 -118 -29q-136 -30 -202 -53q-30 -9 -67 -26q-4 2 0 6zM584 121q-2 -9 -10 -10q-117 -22 -219 -58q-68 -24 -101 -38h-1q-1 -1 -3.5 -2t-3.5 -1q-5 -3 -16.5 -7t-16.5 -7l-1 -1q-5 -4 -22.5 -10t-32 -10.5t-13.5 -3.5q-6 -1 -10 -1q-32 -6 -42 15q-3 6 -1 14
q-19 8 -29.5 27.5t-3.5 38.5q-4 22 -11 105l-12 120l-12 114q-19 21 -16 49t25 47l4 8q28 12 64 24q73 25 202 52q53 12 157 40q14 -2 20 -4t16 -6q3 -2 8.5 -6.5t7.5 -6.5q11 -35 6 -62q-16 -5 -50 -15q-39 -13 -68 -20q-4 -2 -6 -2q-134 -37 -161 -49q-51 -17 -95 -36
l-2 -2q0 -4 3.5 -26t3.5 -25q118 51 168 69q41 10 97 26q2 1 6.5 2t6.5 1q13 2 35 4q48 2 63 -24q1 -1 1.5 -2.5t1.5 -3t1 -2.5q4 -8 5 -12q1 -1 2 -1q13 -7 17 -25q3 -14 -4.5 -28.5t-21.5 -21.5q-9 -4 -20 -6.5t-24.5 -4t-21.5 -3.5q-39 -6 -73 -15q-80 -22 -142 -48
q-23 -10 -84 -40q1 -11 3 -32.5t3 -32.5v-4q1 0 1 1l2 1q22 10 66 28q56 22 85 33q30 12 45 17q48 18 72 26l39 12q6 1 16.5 5.5t15.5 5.5q27 6 47 -4.5t30.5 -33t15.5 -44.5t7 -47q1 -26 -19 -41zM363 708q21 -22 1 -36q-22 -15 -52 4q-5 3 -10 7q-10 9 -19 21.5t-13.5 20
t-9.5 12t-10.5 1t-14.5 -16.5q-6 -9 -23.5 -27t-28.5 -32q-6 -9 -27 -4.5t-21 17.5q0 18 32.5 56.5t57.5 52.5q14 8 29 8t26.5 -5.5t25 -16.5t21.5 -20.5t19.5 -23t16.5 -18.5z" />
    <glyph glyph-name="Edieresis" unicode="&#xcb;" 
d="M121 -13q27 -4 41 1q2 0 3 1q16 8 23 12q16 8 46 24v2q-36 -14 -55 -20q-46 -17 -58 -20zM343 330l-1 3q-16 -5 -47 -14.5t-46 -14.5q-47 -14 -58 -17q-3 -17 -16 -28q33 17 151 64q8 4 17 7zM23 528q75 40 212 76q4 1 11.5 3t11.5 3q82 16 125 19q9 1 27 1
q-69 -18 -118 -29q-136 -30 -202 -53q-30 -9 -67 -26q-4 2 0 6zM584 121q-2 -9 -10 -10q-117 -22 -219 -58q-68 -24 -101 -38h-1q-1 -1 -3.5 -2t-3.5 -1q-5 -3 -16.5 -7t-16.5 -7l-1 -1q-5 -4 -22.5 -10t-32 -10.5t-13.5 -3.5q-6 -1 -10 -1q-32 -6 -42 15q-3 6 -1 14
q-19 8 -29.5 27.5t-3.5 38.5q-4 22 -11 105l-12 120l-12 114q-19 21 -16 49t25 47l4 8q28 12 64 24q73 25 202 52q53 12 157 40q14 -2 20 -4t16 -6q3 -2 8.5 -6.5t7.5 -6.5q11 -35 6 -62q-16 -5 -50 -15q-39 -13 -68 -20q-4 -2 -6 -2q-134 -37 -161 -49q-51 -17 -95 -36
l-2 -2q0 -4 3.5 -26t3.5 -25q118 51 168 69q41 10 97 26q2 1 6.5 2t6.5 1q13 2 35 4q48 2 63 -24q1 -1 1.5 -2.5t1.5 -3t1 -2.5q4 -8 5 -12q1 -1 2 -1q13 -7 17 -25q3 -14 -4.5 -28.5t-21.5 -21.5q-9 -4 -20 -6.5t-24.5 -4t-21.5 -3.5q-39 -6 -73 -15q-80 -22 -142 -48
q-23 -10 -84 -40q1 -11 3 -32.5t3 -32.5v-4q1 0 1 1l2 1q22 10 66 28q56 22 85 33q30 12 45 17q48 18 72 26l39 12q6 1 16.5 5.5t15.5 5.5q27 6 47 -4.5t30.5 -33t15.5 -44.5t7 -47q1 -26 -19 -41zM236 700q-1 -1 -2.5 -5t-3.5 -6q-5 -11 -16 -16q-22 -13 -44 0
q-11 5 -15 15q-6 10 -6 22q0 20 13 32q1 0 4.5 3t5.5 4q10 6 22 6q3 0 11 -2q10 -1 19 -10q8 -10 12 -20q2 -11 0 -23zM353 693q-9 -25 -31 -29q-22 -8 -40 10q-8 8 -11 19q-3 8 -1 19q-2 16 11 27q13 15 35 10q17 -6 25 -15q17 -17 12 -41z" />
    <glyph glyph-name="Igrave" unicode="&#xcc;" horiz-adv-x="210" 
d="M195 53q-7 -12 -21 -17q2 -14 -10 -19q-18 -9 -38.5 -5t-34.5 18q-1 0 -1 1t-1 2q-7 3 -15 9q-5 5 -9 11t-6 11.5t-4 14t-3 13t-2.5 15t-1.5 13.5q-14 118 -13 223q0 82 3 109q5 34 21 50q2 4 8 10q15 10 21.5 14t23 11.5t27 3.5t16.5 -18q14 2 16 -12q0 -18 -1 -54.5
t-1 -55.5q0 -16 0.5 -34.5t1.5 -41t1 -34.5q0 -7 2 -25q1 0 2 -8.5t2.5 -17t2.5 -8.5q-6 131 1 247l7 2q-6 -211 23 -427q0 -5 -3.5 -7t-8 -0.5t-5.5 6.5zM84 461q-4 -13 -7 -27t-4.5 -31t-2 -27.5t-1.5 -31t-1 -27.5v-10v-2q2 -24 8 -72h3l-1 67q0 68 1 68q0 65 13 103h-1
q-7 -5 -7 -10zM71 600q-45 48 -49 61q-3 13 10 27q26 20 51 4.5t49 -58.5q4 -6 11 -17.5t10 -17.5t5.5 -13.5t1.5 -12t-6 -7.5q-14 -10 -47 4q-16 10 -36 30z" />
    <glyph glyph-name="Iacute" unicode="&#xcd;" horiz-adv-x="210" 
d="M195 53q-7 -12 -21 -17q2 -14 -10 -19q-18 -9 -38.5 -5t-34.5 18q-1 0 -1 1t-1 2q-7 3 -15 9q-5 5 -9 11t-6 11.5t-4 14t-3 13t-2.5 15t-1.5 13.5q-14 118 -13 223q0 82 3 109q5 34 21 50q2 4 8 10q15 10 21.5 14t23 11.5t27 3.5t16.5 -18q14 2 16 -12q0 -18 -1 -54.5
t-1 -55.5q0 -16 0.5 -34.5t1.5 -41t1 -34.5q0 -7 2 -25q1 0 2 -8.5t2.5 -17t2.5 -8.5q-6 131 1 247l7 2q-6 -211 23 -427q0 -5 -3.5 -7t-8 -0.5t-5.5 6.5zM84 461q-4 -13 -7 -27t-4.5 -31t-2 -27.5t-1.5 -31t-1 -27.5v-10v-2q2 -24 8 -72h3l-1 67q0 68 1 68q0 65 13 103h-1
q-7 -5 -7 -10zM196 688q13 -20 8.5 -31t-39.5 -48l-3 -3t-2.5 -3t-2.5 -3q-20 -20 -36 -30q-33 -14 -47 -4q-5 3 -6 7.5t1.5 12t5.5 13.5t10 17.5t11 17.5q24 43 49 58.5t51 -4.5z" />
    <glyph glyph-name="Icircumflex" unicode="&#xce;" horiz-adv-x="210" 
d="M195 53q-7 -12 -21 -17q2 -14 -10 -19q-18 -9 -38.5 -5t-34.5 18q-1 0 -1 1t-1 2q-7 3 -15 9q-5 5 -9 11t-6 11.5t-4 14t-3 13t-2.5 15t-1.5 13.5q-14 118 -13 223q0 82 3 109q5 34 21 50q2 4 8 10q15 10 21.5 14t23 11.5t27 3.5t16.5 -18q14 2 16 -12q0 -18 -1 -54.5
t-1 -55.5q0 -16 0.5 -34.5t1.5 -41t1 -34.5q0 -7 2 -25q1 0 2 -8.5t2.5 -17t2.5 -8.5q-6 131 1 247l7 2q-6 -211 23 -427q0 -5 -3.5 -7t-8 -0.5t-5.5 6.5zM84 461q-4 -13 -7 -27t-4.5 -31t-2 -27.5t-1.5 -31t-1 -27.5v-10v-2q2 -24 8 -72h3l-1 67q0 68 1 68q0 65 13 103h-1
q-7 -5 -7 -10zM226 608q21 -22 1 -36q-22 -15 -52 4q-5 3 -10 7q-10 9 -19 21.5t-13.5 20t-9.5 12t-10.5 1t-14.5 -16.5q-6 -9 -23.5 -27t-28.5 -32q-6 -9 -27 -4.5t-21 17.5q0 18 32.5 56.5t57.5 52.5q14 8 29 8t26.5 -5.5t25 -16.5t21.5 -20.5t19.5 -23t16.5 -18.5z" />
    <glyph glyph-name="Idieresis" unicode="&#xcf;" horiz-adv-x="210" 
d="M195 53q-7 -12 -21 -17q2 -14 -10 -19q-18 -9 -38.5 -5t-34.5 18q-1 0 -1 1t-1 2q-7 3 -15 9q-5 5 -9 11t-6 11.5t-4 14t-3 13t-2.5 15t-1.5 13.5q-14 118 -13 223q0 82 3 109q5 34 21 50q2 4 8 10q15 10 21.5 14t23 11.5t27 3.5t16.5 -18q14 2 16 -12q0 -18 -1 -54.5
t-1 -55.5q0 -16 0.5 -34.5t1.5 -41t1 -34.5q0 -7 2 -25q1 0 2 -8.5t2.5 -17t2.5 -8.5q-6 131 1 247l7 2q-6 -211 23 -427q0 -5 -3.5 -7t-8 -0.5t-5.5 6.5zM84 461q-4 -13 -7 -27t-4.5 -31t-2 -27.5t-1.5 -31t-1 -27.5v-10v-2q2 -24 8 -72h3l-1 67q0 68 1 68q0 65 13 103h-1
q-7 -5 -7 -10zM111 606q-1 -1 -2.5 -5t-3.5 -6q-5 -11 -16 -16q-22 -13 -44 0q-11 5 -15 15q-6 10 -6 22q0 20 13 32q1 0 4.5 3t5.5 4q11 6 22 6q3 0 11 -2q10 -1 19 -10q8 -10 12 -20q2 -11 0 -23zM228 599q-9 -25 -31 -29q-22 -8 -40 10q-8 8 -11 19q-3 8 -1 19
q-2 16 11 27q13 15 35 10q17 -6 25 -15q17 -17 12 -41z" />
    <glyph glyph-name="Eth" unicode="&#xd0;" horiz-adv-x="616" 
d="M268 271q-40 -4 -117 0t-109 12q-17 4 -22.5 15.5t2.5 22.5t24 13q13 3 54 3t92 -0.5t69 -0.5q24 1 35 -14t3 -31.5t-31 -19.5zM511 197q-30 46 -46 68q-48 64 -102 111q-55 51 -125 91q-12 6 -19 10q22 -106 46 -250q2 -15 7.5 -45t8.5 -45q54 -19 96 -28q34 -8 65 -9
q39 0 60 6q28 7 42 19q-2 12 -14 36q-14 29 -19 36zM87 502q-1 6 -7 10q-2 2 -2 0q-1 -1 0 -5q7 -28 23 -98.5t26 -108.5q5 -18 14 -53.5t13 -53.5q3 -2 9 -5.5t9 -4.5q-12 34 -16 51q-5 19 -33.5 131.5t-35.5 136.5zM626 91q-13 -31 -45.5 -52.5t-69.5 -30.5
q-67 -16 -157 -2q-39 6 -74 15q-7 -15 -19 -18q-7 -1 -14 2q-7 -7 -16 -7q-23 -2 -37 8q-26 18 -34 55q-50 20 -94 43q-22 12 -28 37t7 46q12 21 36.5 27.5t45.5 -5.5q1 -1 4 -3q-3 21 -7 35q-22 112 -68 334q-1 2 -2.5 6t-1.5 5q-4 14 4.5 26t22.5 14q10 2 14 2
q6 18 31.5 26t46.5 6q31 -2 62.5 -18t50.5 -31.5t49 -44.5q99 -95 152 -156q30 -32 49 -57q44 -58 68 -106q49 -96 24 -156z" />
    <glyph glyph-name="Ntilde" unicode="&#xd1;" horiz-adv-x="510" 
d="M52 107q-1 18 -10 222q-3 71 -5 215q-2 30 8 52q-1 -32 1 -96q1 -69 5 -209q2 -36 5 -113.5t4 -111.5l-4 12zM434 -3q-9 -6 -20 0q-27 12 -38 69q-2 12 -6 34l-174 311q-2 2 -16 22v-64v-75.5v-64.5q2 -40 4 -120q5 -23 1 -57t-30 -38q-20 -33 -57 -21q-16 4 -28 19
q-5 84 -11 252q-1 30 -2 64.5t-2 76t-2 64.5q-2 99 0 131q10 8 19 9q0 12 8 23q13 13 27 14t31 -11t28.5 -23t20.5 -23q40 -53 89 -142q32 -54 64 -120q2 -4 2 -10q6 -11 16 -31q-3 28 -25 154q-16 84 -23 108q-1 3 -3.5 11t-3 12t-1.5 11t0.5 12.5t4.5 11.5q7 12 17 18v1
l1 1q8 15 27.5 16.5t31.5 -8.5q3 -1 7 -5l15 -57q18 -65 35 -179q25 -152 39 -369q-20 -27 -46 -27zM490 34q-2 0 -4 -3q-22 321 -76 567q-2 6 3 11q4 5 11 4t8 -8q58 -282 57 -528q3 -19 1 -43zM164 156l-3 -3q-1 0 -2 -1l-1 -60q0 -2 4 -28.5t0 -35.5q10 17 8 34
q-2 40 -4 59q0 11 -2 35zM342 674q-82 -42 -134 28q-17 23 -39 1q-7 -5 -11 -11l-5 -10l-2 -3q-4 -7 -13.5 -8t-15.5 4q-9 11 -6 27q6 26 22 41q13 11 28.5 18.5t33.5 7t31 -12.5q5 -4 13.5 -13.5t13.5 -14t11.5 -8.5t12.5 -4q10 0 18.5 7t10.5 15q4 24 12.5 33t24.5 -1
q30 -18 22 -55q-5 -29 -28 -41z" />
    <glyph glyph-name="Ograve" unicode="&#xd2;" horiz-adv-x="420" 
d="M253 478q-12 36 -19 53q-8 18 -10 22q-2 2 -4 2h-5q-6 -11 -13 -34q-18 -60 -25 -111q-14 -114 4 -225q3 -17 -4 -30q-49 228 31 397q-5 -3 -14 -19q-27 -53 -40 -119l-2 -4q-4 -23 -8 -69q-4 -96 20 -201q-5 -4 -11 -5q-19 -5 -36 7q1 0 1 -1q15 -30 40 -50t54 -11
q17 6 27 24q10 19 14 34q23 64 23 146q-9 114 -15 150q-1 7 -3.5 22t-4.5 22zM385 242q-10 -110 -47 -163q-18 -25 -37 -41q-30 -30 -70 -36q-17 -2 -33 0q-51 -9 -97 28q-58 50 -77 159q-33 209 65 372l2 2q15 40 40 72q1 1 2 1t0 -2q-12 -20 -16 -30q-5 -11 -13 -33h2.5h3
h2.5q30 66 73 75q24 9 39 8q26 6 43 -4q14 -9 30 -38q15 6 23 -8q27 -52 38 -84q11 -36 20 -91q16 -102 7 -187zM172 718q-45 48 -49 61q-3 13 10 27q26 20 51 4.5t49 -58.5q4 -6 11 -17.5t10 -17.5t5.5 -13.5t1.5 -12t-6 -7.5q-14 -10 -47 4q-16 10 -36 30z" />
    <glyph glyph-name="Oacute" unicode="&#xd3;" horiz-adv-x="420" 
d="M253 478q-12 36 -19 53q-8 18 -10 22q-2 2 -4 2h-5q-6 -11 -13 -34q-18 -60 -25 -111q-14 -114 4 -225q3 -17 -4 -30q-49 228 31 397q-5 -3 -14 -19q-27 -53 -40 -119l-2 -4q-4 -23 -8 -69q-4 -96 20 -201q-5 -4 -11 -5q-19 -5 -36 7q1 0 1 -1q15 -30 40 -50t54 -11
q17 6 27 24q10 19 14 34q23 64 23 146q-9 114 -15 150q-1 7 -3.5 22t-4.5 22zM385 242q-10 -110 -47 -163q-18 -25 -37 -41q-30 -30 -70 -36q-17 -2 -33 0q-51 -9 -97 28q-58 50 -77 159q-33 209 65 372l2 2q15 40 40 72q1 1 2 1t0 -2q-12 -20 -16 -30q-5 -11 -13 -33h2.5h3
h2.5q30 66 73 75q24 9 39 8q26 6 43 -4q14 -9 30 -38q15 6 23 -8q27 -52 38 -84q11 -36 20 -91q16 -102 7 -187zM280 802q13 -20 8.5 -31t-39.5 -48l-3 -3t-2.5 -3t-2.5 -3q-20 -20 -36 -30q-33 -14 -47 -4q-5 3 -6 7.5t1.5 12t5.5 13.5t10 17.5t11 17.5q24 43 49 58.5
t51 -4.5z" />
    <glyph glyph-name="Ocircumflex" unicode="&#xd4;" horiz-adv-x="420" 
d="M253 478q-12 36 -19 53q-8 18 -10 22q-2 2 -4 2h-5q-6 -11 -13 -34q-18 -60 -25 -111q-14 -114 4 -225q3 -17 -4 -30q-49 228 31 397q-5 -3 -14 -19q-27 -53 -40 -119l-2 -4q-4 -23 -8 -69q-4 -96 20 -201q-5 -4 -11 -5q-19 -5 -36 7q1 0 1 -1q15 -30 40 -50t54 -11
q17 6 27 24q10 19 14 34q23 64 23 146q-9 114 -15 150q-1 7 -3.5 22t-4.5 22zM385 242q-10 -110 -47 -163q-18 -25 -37 -41q-30 -30 -70 -36q-17 -2 -33 0q-51 -9 -97 28q-58 50 -77 159q-33 209 65 372l2 2q15 40 40 72q1 1 2 1t0 -2q-12 -20 -16 -30q-5 -11 -13 -33h2.5h3
h2.5q30 66 73 75q24 9 39 8q26 6 43 -4q14 -9 30 -38q15 6 23 -8q27 -52 38 -84q11 -36 20 -91q16 -102 7 -187zM331 719q21 -22 1 -36q-22 -15 -52 4q-5 3 -10 7q-10 9 -19 21.5t-13.5 20t-9.5 12t-10.5 1t-14.5 -16.5q-6 -9 -23.5 -27t-28.5 -32q-6 -9 -27 -4.5t-21 17.5
q0 18 32.5 56.5t57.5 52.5q14 8 29 8t26.5 -5.5t25 -16.5t21.5 -20.5t19.5 -23t16.5 -18.5z" />
    <glyph glyph-name="Otilde" unicode="&#xd5;" horiz-adv-x="420" 
d="M253 478q-12 36 -19 53q-8 18 -10 22q-2 2 -4 2h-5q-6 -11 -13 -34q-18 -60 -25 -111q-14 -114 4 -225q3 -17 -4 -30q-49 228 31 397q-5 -3 -14 -19q-27 -53 -40 -119l-2 -4q-4 -23 -8 -69q-4 -96 20 -201q-5 -4 -11 -5q-19 -5 -36 7q1 0 1 -1q15 -30 40 -50t54 -11
q17 6 27 24q10 19 14 34q23 64 23 146q-9 114 -15 150q-1 7 -3.5 22t-4.5 22zM385 242q-10 -110 -47 -163q-18 -25 -37 -41q-30 -30 -70 -36q-17 -2 -33 0q-51 -9 -97 28q-58 50 -77 159q-33 209 65 372l2 2q15 40 40 72q1 1 2 1t0 -2q-12 -20 -16 -30q-5 -11 -13 -33h2.5h3
h2.5q30 66 73 75q24 9 39 8q26 6 43 -4q14 -9 30 -38q15 6 23 -8q27 -52 38 -84q11 -36 20 -91q16 -102 7 -187zM316 688q-82 -42 -134 28q-17 23 -39 1q-7 -5 -11 -11l-5 -10l-2 -3q-4 -7 -13.5 -8t-15.5 4q-9 11 -6 27q6 26 22 41q13 11 28.5 18.5t33.5 7t31 -12.5
q5 -4 13.5 -13.5t13.5 -14t11.5 -8.5t12.5 -4q10 0 18.5 7t10.5 15q4 24 12.5 33t24.5 -1q30 -18 22 -55q-5 -29 -28 -41z" />
    <glyph glyph-name="Odieresis" unicode="&#xd6;" horiz-adv-x="420" 
d="M253 478q-12 36 -19 53q-8 18 -10 22q-2 2 -4 2h-5q-6 -11 -13 -34q-18 -60 -25 -111q-14 -114 4 -225q3 -17 -4 -30q-49 228 31 397q-5 -3 -14 -19q-27 -53 -40 -119l-2 -4q-4 -23 -8 -69q-4 -96 20 -201q-5 -4 -11 -5q-19 -5 -36 7q1 0 1 -1q15 -30 40 -50t54 -11
q17 6 27 24q10 19 14 34q23 64 23 146q-9 114 -15 150q-1 7 -3.5 22t-4.5 22zM385 242q-10 -110 -47 -163q-18 -25 -37 -41q-30 -30 -70 -36q-17 -2 -33 0q-51 -9 -97 28q-58 50 -77 159q-33 209 65 372l2 2q15 40 40 72q1 1 2 1t0 -2q-12 -20 -16 -30q-5 -11 -13 -33h2.5h3
h2.5q30 66 73 75q24 9 39 8q26 6 43 -4q14 -9 30 -38q15 6 23 -8q27 -52 38 -84q11 -36 20 -91q16 -102 7 -187zM204 724q-1 -1 -2.5 -5t-3.5 -6q-5 -11 -16 -16q-22 -13 -44 0q-11 5 -15 15q-6 11 -6 22q0 20 13 32q1 0 4.5 3t5.5 4q10 6 22 6q3 0 11 -2q10 -1 19 -10
q8 -10 12 -20q2 -11 0 -23zM321 717q-9 -25 -31 -29q-22 -8 -40 10q-8 8 -11 19q-3 8 -1 19q-2 16 11 27q13 15 35 10q17 -6 25 -15q17 -17 12 -41z" />
    <glyph glyph-name="multiply" unicode="&#xd7;" 
 />
    <glyph glyph-name="Oslash" unicode="&#xd8;" horiz-adv-x="420" 
d="M388 596q3 5 8.5 5t8.5 -4t0 -9q-19 -36 -44 -79q12 -45 17 -80q16 -102 7 -187q-10 -110 -47 -163q-18 -25 -37 -41q-30 -30 -70 -36q-17 -2 -33 0q-51 -9 -97 28l-5 4q-19 -33 -24 -39q-7 -8 -15.5 -4.5t-9.5 12.5q-11 1 -19.5 8t-8.5 18t30 73q-17 38 -25 87
q-33 209 65 372l2 2q15 40 40 72q1 1 2 1t0 -2q-12 -20 -16 -30q-5 -11 -13 -33h2.5h3h2.5q30 66 73 75q24 9 39 8q26 6 43 -4q14 -9 30 -38q16 6 23 -9q36 59 45 72q7 12 20 4t8 -21q-17 -41 -49 -103l8 -19q21 33 36 60zM220 555h-5q-6 -11 -13 -34q-18 -60 -25 -111
q-5 -36 -6 -72l32 60q22 44 47 87q-9 27 -16 46q-8 18 -10 22q-2 2 -4 2zM144 341q-2 -27 0 -55l15 29q0 136 49 237q-5 -3 -14 -19q-27 -53 -40 -119l-2 -4q-4 -23 -8 -69zM266 395l-1 7l-7.5 -15t-7.5 -17q-4 -8 -6 -13zM276 284l-5 66q-3 -5 -7.5 -13.5t-5.5 -9.5
q-4 -8 -31 -57.5t-46 -84.5q3 -17 -4 -30l-3 17q-4 -8 -12 -22l2 -10q-5 -3 -10 -5l-15 -26q34 -41 73 -29q17 6 27 24q10 19 14 34q23 64 23 146z" />
    <glyph glyph-name="Ugrave" unicode="&#xd9;" horiz-adv-x="510" 
d="M482 193q-27 -88 -76 -133q-3 -2 -7 -6q-21 -23 -44 -34q-55 -30 -113.5 -13t-98.5 64q-25 29 -42 65q-24 -2 -32 19q-73 184 -24 393q10 45 35.5 76.5t66.5 25.5q39 -5 54 -42q4 -20 3.5 -31.5t-5 -34t-5.5 -32.5q-4 -53 -1 -113q7 -110 50 -224q24 -19 47 -20
q29 6 50 24q7 10 11 23t6.5 29t3.5 27t1.5 29t0.5 23q6 89 4 268q-1 22 20 34.5t40 1.5v10q0 8 6 14.5t14 5.5q21 -2 33 -18.5t14.5 -31t4.5 -40.5q1 -8 2.5 -22.5t2.5 -26.5t1 -23v-40q7 -143 -23 -247zM190 545q-4 -2 -6 2q-4 -18 -8 -26q-13 -111 5 -203q2 -16 8 -38
q2 0 3 -1q-24 134 -2 266zM230 690q-45 48 -49 61q-3 13 10 27q26 20 51 4.5t49 -58.5q4 -6 11 -17.5t10 -17.5t5.5 -13.5t1.5 -12t-6 -7.5q-14 -10 -47 4q-16 10 -36 30z" />
    <glyph glyph-name="Uacute" unicode="&#xda;" horiz-adv-x="510" 
d="M482 193q-27 -88 -76 -133q-3 -2 -7 -6q-21 -23 -44 -34q-55 -30 -113.5 -13t-98.5 64q-25 29 -42 65q-24 -2 -32 19q-73 184 -24 393q10 45 35.5 76.5t66.5 25.5q39 -5 54 -42q4 -20 3.5 -31.5t-5 -34t-5.5 -32.5q-4 -53 -1 -113q7 -110 50 -224q24 -19 47 -20
q29 6 50 24q7 10 11 23t6.5 29t3.5 27t1.5 29t0.5 23q6 89 4 268q-1 22 20 34.5t40 1.5v10q0 8 6 14.5t14 5.5q21 -2 33 -18.5t14.5 -31t4.5 -40.5q1 -8 2.5 -22.5t2.5 -26.5t1 -23v-40q7 -143 -23 -247zM190 545q-4 -2 -6 2q-4 -18 -8 -26q-13 -111 5 -203q2 -16 8 -38
q2 0 3 -1q-24 134 -2 266zM371 755q13 -20 8.5 -31t-39.5 -48l-3 -3t-2.5 -3t-2.5 -3q-20 -20 -36 -30q-33 -14 -47 -4q-5 3 -6 7.5t1.5 12t5.5 13.5t10 17.5t11 17.5q24 43 49 58.5t51 -4.5z" />
    <glyph glyph-name="Ucircumflex" unicode="&#xdb;" horiz-adv-x="510" 
d="M482 193q-27 -88 -76 -133q-3 -2 -7 -6q-21 -23 -44 -34q-55 -30 -113.5 -13t-98.5 64q-25 29 -42 65q-24 -2 -32 19q-73 184 -24 393q10 45 35.5 76.5t66.5 25.5q39 -5 54 -42q4 -20 3.5 -31.5t-5 -34t-5.5 -32.5q-4 -53 -1 -113q7 -110 50 -224q24 -19 47 -20
q29 6 50 24q7 10 11 23t6.5 29t3.5 27t1.5 29t0.5 23q6 89 4 268q-1 22 20 34.5t40 1.5v10q0 8 6 14.5t14 5.5q21 -2 33 -18.5t14.5 -31t4.5 -40.5q1 -8 2.5 -22.5t2.5 -26.5t1 -23v-40q7 -143 -23 -247zM190 545q-4 -2 -6 2q-4 -18 -8 -26q-13 -111 5 -203q2 -16 8 -38
q2 0 3 -1q-24 134 -2 266zM392 722q21 -22 1 -36q-22 -15 -52 4q-5 3 -10 7q-10 9 -19 21.5t-13.5 20t-9.5 12t-10.5 1t-14.5 -16.5q-6 -9 -23.5 -27t-28.5 -32q-6 -9 -27 -4.5t-21 17.5q0 18 32.5 56.5t57.5 52.5q14 8 29 8t26.5 -5.5t25 -16.5t21.5 -20.5t19.5 -23
t16.5 -18.5z" />
    <glyph glyph-name="Udieresis" unicode="&#xdc;" horiz-adv-x="510" 
d="M482 193q-27 -88 -76 -133q-3 -2 -7 -6q-21 -23 -44 -34q-55 -30 -113.5 -13t-98.5 64q-25 29 -42 65q-24 -2 -32 19q-73 184 -24 393q10 45 35.5 76.5t66.5 25.5q39 -5 54 -42q4 -20 3.5 -31.5t-5 -34t-5.5 -32.5q-4 -53 -1 -113q7 -110 50 -224q24 -19 47 -20
q29 6 50 24q7 10 11 23t6.5 29t3.5 27t1.5 29t0.5 23q6 89 4 268q-1 22 20 34.5t40 1.5v10q0 8 6 14.5t14 5.5q21 -2 33 -18.5t14.5 -31t4.5 -40.5q1 -8 2.5 -22.5t2.5 -26.5t1 -23v-40q7 -143 -23 -247zM190 545q-4 -2 -6 2q-4 -18 -8 -26q-13 -111 5 -203q2 -16 8 -38
q2 0 3 -1q-24 134 -2 266zM274 695q-1 -1 -2.5 -5t-3.5 -6q-5 -11 -16 -16q-22 -13 -44 0q-11 5 -15 15q-6 10 -6 22q0 20 13 32q1 0 4.5 3t5.5 4q10 6 22 6q3 0 11 -2q10 -1 19 -10q8 -10 12 -20q2 -11 0 -23zM391 688q-9 -25 -31 -29q-22 -8 -40 10q-8 8 -11 19
q-3 8 -1 19q-2 16 11 27q13 15 35 10q17 -6 25 -15q17 -17 12 -41z" />
    <glyph glyph-name="Yacute" unicode="&#xdd;" horiz-adv-x="560" 
d="M576 574q-17 -29 -52 -81t-48 -73q-6 -8 -8 -12q21 -45 -6 -67q0 -1 -2 -1t-2 -1q-2 -10 -7 -15q-15 -14 -41 -12q-4 -8 -12.5 -23t-12.5 -22q-44 -77 -83 -157q-37 -70 -41 -77q-19 -30 -42 -32q-5 0 -5 4q-25 -12 -50.5 5t-16.5 48q5 15 35 83q4 9 13 27.5t13 27.5
q-5 7 -5 8q-15 -29 -26 -53q-21 -43 -39 -87l3 42q30 71 55 124q-1 13 7 27q16 24 23 35l2 4q20 39 43 80q-16 8 -36 20q-16 10 -53.5 33.5t-58.5 34.5q-6 4 -9 5q-10 4 -28 14q-8 5 -26 13l-3 6q-2 0 -4 2q-2 1 -7 4.5t-7 5t-8 5.5t-7.5 6t-7 6.5t-6.5 7t-5 7.5t-3.5 8
t-2 8.5t0.5 9.5q2 9 4 12q-12 10 -5.5 31.5t21.5 25.5q8 2 11 2h7q19 0 51 -16q68 -28 100 -44q86 -42 148 -83l24 39q7 12 22 34t22 34q31 48 45 61q2 2 6 1t5 -4q6 -1 9.5 -6t-0.5 -10q-58 -81 -95 -140q-5 -7 -13 -23l-1 -1l8 -5l23 35q22 35 23 36q2 3 14.5 22t17.5 26
t15 20.5t19.5 23t19.5 18.5q6 6 12 4q14 6 30.5 2.5t27.5 -14.5q13 -13 15 -31.5t-8 -34.5q2 -8 -2 -13zM351 788q13 -20 8.5 -31t-39.5 -48l-3 -3t-2.5 -3t-2.5 -3q-20 -20 -36 -30q-33 -14 -47 -4q-5 3 -6 7.5t1.5 12t5.5 13.5t10 17.5t11 17.5q24 43 49 58.5t51 -4.5z
" />
    <glyph glyph-name="Thorn" unicode="&#xde;" horiz-adv-x="470" 
d="M493 322q6 -39 -19 -62q-13 -23 -35.5 -35.5t-54 -13.5t-53 1t-53.5 7q-4 1 -13.5 2.5t-13.5 2.5q0 -2 11 -103q4 -44 -5 -72q-7 -25 -30 -46q-29 -24 -44 -5q-9 11 -13 51q-4 23 -5 38q-7 24 -12 51q2 -20 4 -31q4 -33 7 -52q3 -35 1 -40q0 -1 -1 0q-5 7 -10 44l-9 52
q-2 16 -7 71t-8 76q-48 19 -92 42q-1 1 0 2t2 0q38 -18 89 -37q-1 3 -2 8.5t-2 8.5q-23 9 -67 29q-16 7 -20.5 26.5t4.5 33.5q7 12 22 18.5t28 1.5l6 -3q-20 75 -40 131l-1 4l-19 56q-9 27 6.5 59t39.5 41.5t46 -12.5q10 -12 35 -86q17 -2 32 -9q33 -17 95 -57
q88 -59 179 -140q12 -10 10 -23q9 -15 12 -30zM413 310l8 2q-2 4 -4 6q-12 18 -63 49q-58 34 -87 50q-44 22 -67 32q20 -76 28 -115q33 -11 64 -18q56 -12 101 -8q8 0 20 2zM379 225l38 6q0 1 -10.5 0t-10.5 0q-47 -6 -94 2q-16 2 -55 10q0 -1 0.5 -4t1.5 -4q8 -2 11 -2
q79 -12 119 -8zM233 41q16 36 3 98l-6 31v-4v-5.5v-3.5l2 -20q6 -68 -11 -100l2 -3q6 3 10 7z" />
    <glyph glyph-name="germandbls" unicode="&#xdf;" horiz-adv-x="560" 
d="M263 82q-23 29 -7 69q11 29 27 24q4 -1 8 -6q44 -60 84 -80.5t88 -2.5q-26 49 -84 114t-86 84q-16 11 -23 27.5t1 31t31 18.5q54 10 77 15q-92 101 -219 131q2 -14 10 -63.5t11.5 -82t7 -87t-0.5 -116.5t-15 -131q-4 -27 -49 -31q-41 -5 -54 14q-3 5 -2 11
q14 96 16 182.5t-4 147.5t-19 149q0 4 -2.5 18.5t-2.5 22.5t1 20t6.5 22.5t14.5 19.5q32 32 100 13q38 -11 123.5 -62t154.5 -115t46 -96q-18 -25 -45.5 -31t-76.5 -1q69 -38 129.5 -118.5t49.5 -127.5q-12 -54 -91 -62q-74 -8 -117.5 8t-87.5 71z" />
    <glyph glyph-name="agrave" unicode="&#xe0;" horiz-adv-x="470" 
d="M366 30q-21 8 -67 215l-78 -1q-24 -97 -31 -180q0 -6 -4 -8t-8 0t-4 8q9 105 33 180h-9l-30 -151l-6 -45q-4 -43 -36.5 -57t-60.5 8t-22 66q14 100 33 175q-18 -2 -27 -2q2 5 1 9q-32 8 -41.5 39t16 63.5t80.5 40.5q26 120 56 193q1 3 9 20.5t11 24t11.5 20t16 19.5
t18.5 12t23 6q13 1 26 -7t19 -20q22 -2 36.5 -16t16.5 -38q4 -47 11 -120q1 -1 2 -1q2 58 7 102l3 -48q7 -117 11 -153q36 -4 54 -30t11.5 -56.5t-33.5 -47.5q29 -130 38 -200q5 -42 -11.5 -60.5t-40 -6.5t-34.5 47zM218 374l56 4q0 2 -6.5 57t-12.5 82q-29 -102 -37 -143z
M205 736q-45 48 -49 61q-3 13 10 27q26 20 51 4.5t49 -58.5q4 -6 11 -17.5t10 -17.5t5.5 -13.5t1.5 -12t-6 -7.5q-14 -10 -47 4q-16 10 -36 30z" />
    <glyph glyph-name="aacute" unicode="&#xe1;" horiz-adv-x="470" 
d="M366 30q-21 8 -67 215l-78 -1q-24 -97 -31 -180q0 -6 -4 -8t-8 0t-4 8q9 105 33 180h-9l-30 -151l-6 -45q-4 -43 -36.5 -57t-60.5 8t-22 66q14 100 33 175q-18 -2 -27 -2q2 5 1 9q-32 8 -41.5 39t16 63.5t80.5 40.5q26 120 56 193q1 3 9 20.5t11 24t11.5 20t16 19.5
t18.5 12t23 6q13 1 26 -7t19 -20q22 -2 36.5 -16t16.5 -38q4 -47 11 -120q1 -1 2 -1q2 58 7 102l3 -48q7 -117 11 -153q36 -4 54 -30t11.5 -56.5t-33.5 -47.5q29 -130 38 -200q5 -42 -11.5 -60.5t-40 -6.5t-34.5 47zM218 374l56 4q0 2 -6.5 57t-12.5 82q-29 -102 -37 -143z
M349 824q13 -20 8.5 -31t-39.5 -48l-3 -3t-2.5 -3t-2.5 -3q-20 -20 -36 -30q-33 -14 -47 -4q-5 3 -6 7.5t1.5 12t5.5 13.5t10 17.5t11 17.5q24 43 49 58.5t51 -4.5z" />
    <glyph glyph-name="acircumflex" unicode="&#xe2;" horiz-adv-x="470" 
d="M366 30q-21 8 -67 215l-78 -1q-24 -97 -31 -180q0 -6 -4 -8t-8 0t-4 8q9 105 33 180h-9l-30 -151l-6 -45q-4 -43 -36.5 -57t-60.5 8t-22 66q14 100 33 175q-18 -2 -27 -2q2 5 1 9q-32 8 -41.5 39t16 63.5t80.5 40.5q26 120 56 193q1 3 9 20.5t11 24t11.5 20t16 19.5
t18.5 12t23 6q13 1 26 -7t19 -20q22 -2 36.5 -16t16.5 -38q4 -47 11 -120q1 -1 2 -1q2 58 7 102l3 -48q7 -117 11 -153q36 -4 54 -30t11.5 -56.5t-33.5 -47.5q29 -130 38 -200q5 -42 -11.5 -60.5t-40 -6.5t-34.5 47zM218 374l56 4q0 2 -6.5 57t-12.5 82q-29 -102 -37 -143z
M364 739q21 -22 1 -36q-22 -15 -52 4q-5 3 -10 7q-10 9 -19 21.5t-13.5 20t-9.5 12t-10.5 1t-14.5 -16.5q-6 -9 -23.5 -27t-28.5 -32q-6 -9 -27 -4.5t-21 17.5q0 18 32.5 56.5t57.5 52.5q14 8 29 8t26.5 -5.5t25 -16.5t21.5 -20.5t19.5 -23t16.5 -18.5z" />
    <glyph glyph-name="atilde" unicode="&#xe3;" horiz-adv-x="470" 
d="M366 30q-21 8 -67 215l-78 -1q-24 -97 -31 -180q0 -6 -4 -8t-8 0t-4 8q9 105 33 180h-9l-30 -151l-6 -45q-4 -43 -36.5 -57t-60.5 8t-22 66q14 100 33 175q-18 -2 -27 -2q2 5 1 9q-32 8 -41.5 39t16 63.5t80.5 40.5q26 120 56 193q1 3 9 20.5t11 24t11.5 20t16 19.5
t18.5 12t23 6q13 1 26 -7t19 -20q22 -2 36.5 -16t16.5 -38q4 -47 11 -120q1 -1 2 -1q2 58 7 102l3 -48q7 -117 11 -153q36 -4 54 -30t11.5 -56.5t-33.5 -47.5q29 -130 38 -200q5 -42 -11.5 -60.5t-40 -6.5t-34.5 47zM218 374l56 4q0 2 -6.5 57t-12.5 82q-29 -102 -37 -143z
M350 708q-82 -42 -134 28q-17 23 -39 1q-7 -5 -11 -11l-5 -10l-2 -3q-4 -7 -13.5 -8t-15.5 4q-9 11 -6 27q6 26 22 41q13 11 28.5 18.5t33.5 7t31 -12.5q5 -4 13.5 -13.5t13.5 -14t11.5 -8.5t12.5 -4q10 0 18.5 7t10.5 15q4 24 12.5 33t24.5 -1q30 -18 22 -55
q-5 -29 -28 -41z" />
    <glyph glyph-name="adieresis" unicode="&#xe4;" horiz-adv-x="470" 
d="M366 30q-21 8 -67 215l-78 -1q-24 -97 -31 -180q0 -6 -4 -8t-8 0t-4 8q9 105 33 180h-9l-30 -151l-6 -45q-4 -43 -36.5 -57t-60.5 8t-22 66q14 100 33 175q-18 -2 -27 -2q2 5 1 9q-32 8 -41.5 39t16 63.5t80.5 40.5q26 120 56 193q1 3 9 20.5t11 24t11.5 20t16 19.5
t18.5 12t23 6q13 1 26 -7t19 -20q22 -2 36.5 -16t16.5 -38q4 -47 11 -120q1 -1 2 -1q2 58 7 102l3 -48q7 -117 11 -153q36 -4 54 -30t11.5 -56.5t-33.5 -47.5q29 -130 38 -200q5 -42 -11.5 -60.5t-40 -6.5t-34.5 47zM218 374l56 4q0 2 -6.5 57t-12.5 82q-29 -102 -37 -143z
M253 736q-1 -1 -2.5 -5t-3.5 -6q-5 -11 -16 -16q-22 -13 -44 0q-11 5 -15 15q-6 10 -6 22q0 20 13 32q1 0 4.5 3t5.5 4q11 6 22 6q3 0 11 -2q10 -1 19 -10q8 -10 12 -20q2 -11 0 -23zM370 729q-9 -25 -31 -29q-22 -8 -40 10q-8 8 -11 19q-3 8 -1 19q-2 16 11 27q13 15 35 10
q17 -6 25 -15q17 -17 12 -41z" />
    <glyph glyph-name="aring" unicode="&#xe5;" horiz-adv-x="470" 
d="M366 30q-21 8 -67 215l-78 -1q-24 -97 -31 -180q0 -6 -4 -8t-8 0t-4 8q9 105 33 180h-9l-30 -151l-6 -45q-4 -43 -36.5 -57t-60.5 8t-22 66q14 100 33 175q-18 -2 -27 -2q2 5 1 9q-32 8 -41.5 39t16 63.5t80.5 40.5q26 120 56 193q1 3 9 20.5t11 24t11.5 20t16 19.5
t18.5 12t23 6q13 1 26 -7t19 -20q22 -2 36.5 -16t16.5 -38q4 -47 11 -120q1 -1 2 -1q2 58 7 102l3 -48q7 -117 11 -153q36 -4 54 -30t11.5 -56.5t-33.5 -47.5q29 -130 38 -200q5 -42 -11.5 -60.5t-40 -6.5t-34.5 47zM218 374l56 4q0 2 -6.5 57t-12.5 82q-29 -102 -37 -143z
M255 805q-21 -6 -24 -13q-4 -6 -5 -12q2 2 1 2q6 -12 6 -23q8 -1 20 1q29 9 38 18q2 1 5 5t5.5 6t3.5 0q-4 8 -21.5 13t-28.5 3zM264 704q-35 2 -55 18q-23 -4 -36 18q-22 39 -1 81t65 49q49 5 81 -11q17 -8 31.5 -23.5t18.5 -33.5q8 -45 -25 -73t-79 -25z" />
    <glyph glyph-name="ae" unicode="&#xe6;" horiz-adv-x="858" 
d="M886 172q1 -28 -21 -42q-2 -9 -10 -10q-121 -19 -230 -52q-77 -25 -107 -37h-1q-1 -1 -4 -1t-4 -1q-5 -2 -32 -11.5t-51 -17.5l-24 -8q-6 -1 -10 0q-34 -6 -43 16q-3 8 -1 15q-20 8 -30 29t-2 41q-4 29 -6 89l-9 30l-77 -2q-23 -106 -27 -181q0 -5 -4 -7t-8 0t-4 7
q7 110 30 181q-6 0 -10 -1l-28 -151l-4 -44q-3 -43 -35 -58t-61 6t-23 66q12 104 30 176q-20 -2 -27 -2q2 4 1 8q-33 8 -43 39t14.5 63.5t80.5 42.5q22 117 54 193q1 2 7 17.5t8.5 20.5t8.5 18.5t11.5 19l13 13t16.5 11t20 3.5q14 1 27.5 -6.5t18.5 -19.5q35 -2 49 -33
q73 30 180 53l24 5q84 14 131 15q9 1 28 1q-111 -24 -124 -26q-148 -29 -212 -48l-24 -7q1 -4 1 -13l1 -5q5 2 16 5t16 4q86 27 211 47q52 10 166 37q11 -2 20 -6l16 -6q12 -10 17 -14q10 -35 4 -65l-53 -13q-31 -11 -72 -19q-4 -2 -6 -2q-129 -32 -169 -45q-39 -11 -99 -34
l-2 -2q0 -6 2.5 -28.5t2.5 -24.5q155 58 177 65q15 3 32 7t38 9t32 8l13 2q6 1 12 1.5t13 1t11 0.5q50 0 65 -27q1 -1 1.5 -2.5t1.5 -3t1 -2.5q4 -8 5 -13q1 -1 2 -1q14 -9 17 -27q2 -14 -6.5 -29t-22.5 -22q-10 -4 -21 -6t-26 -3.5t-23 -2.5q-44 -5 -76 -13
q-83 -20 -150 -44q-31 -12 -88 -39l4 -68v-4l3 1q25 12 70 27l90 32q10 4 46 16q41 14 76 24l42 12q6 1 17.5 5t15.5 5q28 5 48.5 -6.5t30.5 -35.5t14.5 -47t5.5 -49zM223 340q7 2 33 3t31 2q-12 60 -23 156q-12 -39 -25.5 -97t-15.5 -64zM463 316q-3 -15 -18 -28
q24 11 159 62l18 6l-1 3q-33 -9 -97 -27q-37 -8 -61 -16zM412 39l3 -11q29 13 73.5 24.5t64.5 18.5q6 3 18 7l-1 3q-66 -18 -98 -27q-8 -2 -28.5 -7.5t-31.5 -7.5z" />
    <glyph glyph-name="ccedilla" unicode="&#xe7;" horiz-adv-x="560" 
d="M522 379q42 -65 11 -182q-24 -93 -80 -137q-42 -35 -96 -50l-3 -6q-6 -18 -14 -29q1 0 3.5 -0.5t3.5 -1.5q27 -7 47 -26q33 -22 43.5 -60.5t-10.5 -74.5q-54 -86 -199 -70q-4 0 -6 4t0 7t6 3h1q-20 5 -35 15q-25 16 -13.5 41t39.5 20q4 -1 18.5 -3.5t20 -3t17 -1t21 0.5
t18.5 4q21 6 36 16t14 27q-1 16 -12 28.5t-27 15.5q-14 3 -28 -2l-6 -9q-21 -30 -35 -36q-12 -5 -23.5 0.5t-11.5 18.5q1 16 17 48q13 24 23 44l9 21q-38 3 -69 16q-62 25 -107 77t-59 117q-7 37 -7 65q2 113 71 203q47 63 105 104q29 21 60 39q48 29 69 27q15 -1 24.5 -11
t9.5 -23q6 -12 4 -39q-4 -31 0 -147l3 -95q0 -18 2 -50q0 -37 -1 -41t-5.5 -6t-8.5 0q-5 3 -6 5h-8q-18 5 -28 26q-3 5 -8 19h-3v-3q6 -22 18 -37.5t31 -12.5q10 2 15 -5t2 -15t-13 -9q-19 -2 -37.5 9t-26.5 29q-12 26 -14 96l-6 193q-8 -6 -13 -9q-120 -91 -141 -205
q0 -3 -1 -7t-1 -7q-1 -5 -1 -16q-1 -33 10 -69q15 -47 53.5 -81.5t85.5 -37.5q2 0 6.5 -0.5t6.5 -0.5q58 2 99 38q17 16 26 33q23 41 21 105q-2 31 -8 45q-11 21 -6 44.5t27 35.5q21 12 43.5 5.5t36.5 -26.5zM298 546q-7 -6 -16 -11q2 -18 5.5 -51t4.5 -49h5q-3 59 1 111z
M420 322l-1 2q1 -1 1 -2zM421 320l-1 2v-1z" />
    <glyph glyph-name="egrave" unicode="&#xe8;" 
d="M121 -13q27 -4 41 1q2 0 3 1q16 8 23 12q16 8 46 24v2q-36 -14 -55 -20q-46 -17 -58 -20zM343 330l-1 3q-16 -5 -47 -14.5t-46 -14.5q-47 -14 -58 -17q-3 -17 -16 -28q33 17 151 64q8 4 17 7zM23 528q75 40 212 76q4 1 11.5 3t11.5 3q82 16 125 19q9 1 27 1
q-69 -18 -118 -29q-136 -30 -202 -53q-30 -9 -67 -26q-4 2 0 6zM584 121q-2 -9 -10 -10q-117 -22 -219 -58q-68 -24 -101 -38h-1q-1 -1 -3.5 -2t-3.5 -1q-5 -3 -16.5 -7t-16.5 -7l-1 -1q-5 -4 -22.5 -10t-32 -10.5t-13.5 -3.5q-6 -1 -10 -1q-32 -6 -42 15q-3 6 -1 14
q-19 8 -29.5 27.5t-3.5 38.5q-4 22 -11 105l-12 120l-12 114q-19 21 -16 49t25 47l4 8q28 12 64 24q73 25 202 52q53 12 157 40q14 -2 20 -4t16 -6q3 -2 8.5 -6.5t7.5 -6.5q11 -35 6 -62q-16 -5 -50 -15q-39 -13 -68 -20q-4 -2 -6 -2q-134 -37 -161 -49q-51 -17 -95 -36
l-2 -2q0 -4 3.5 -26t3.5 -25q118 51 168 69q41 10 97 26q2 1 6.5 2t6.5 1q13 2 35 4q48 2 63 -24q1 -1 1.5 -2.5t1.5 -3t1 -2.5q4 -8 5 -12q1 -1 2 -1q13 -7 17 -25q3 -14 -4.5 -28.5t-21.5 -21.5q-9 -4 -20 -6.5t-24.5 -4t-21.5 -3.5q-39 -6 -73 -15q-80 -22 -142 -48
q-23 -10 -84 -40q1 -11 3 -32.5t3 -32.5v-4q1 0 1 1l2 1q22 10 66 28q56 22 85 33q30 12 45 17q48 18 72 26l39 12q6 1 16.5 5.5t15.5 5.5q27 6 47 -4.5t30.5 -33t15.5 -44.5t7 -47q1 -26 -19 -41zM165 694q-45 48 -49 61q-3 13 10 27q26 20 51 4.5t49 -58.5q4 -6 11 -17.5
t10 -17.5t5.5 -13.5t1.5 -12t-6 -7.5q-14 -10 -47 4q-16 10 -36 30z" />
    <glyph glyph-name="eacute" unicode="&#xe9;" 
d="M121 -13q27 -4 41 1q2 0 3 1q16 8 23 12q16 8 46 24v2q-36 -14 -55 -20q-46 -17 -58 -20zM343 330l-1 3q-16 -5 -47 -14.5t-46 -14.5q-47 -14 -58 -17q-3 -17 -16 -28q33 17 151 64q8 4 17 7zM23 528q75 40 212 76q4 1 11.5 3t11.5 3q82 16 125 19q9 1 27 1
q-69 -18 -118 -29q-136 -30 -202 -53q-30 -9 -67 -26q-4 2 0 6zM584 121q-2 -9 -10 -10q-117 -22 -219 -58q-68 -24 -101 -38h-1q-1 -1 -3.5 -2t-3.5 -1q-5 -3 -16.5 -7t-16.5 -7l-1 -1q-5 -4 -22.5 -10t-32 -10.5t-13.5 -3.5q-6 -1 -10 -1q-32 -6 -42 15q-3 6 -1 14
q-19 8 -29.5 27.5t-3.5 38.5q-4 22 -11 105l-12 120l-12 114q-19 21 -16 49t25 47l4 8q28 12 64 24q73 25 202 52q53 12 157 40q14 -2 20 -4t16 -6q3 -2 8.5 -6.5t7.5 -6.5q11 -35 6 -62q-16 -5 -50 -15q-39 -13 -68 -20q-4 -2 -6 -2q-134 -37 -161 -49q-51 -17 -95 -36
l-2 -2q0 -4 3.5 -26t3.5 -25q118 51 168 69q41 10 97 26q2 1 6.5 2t6.5 1q13 2 35 4q48 2 63 -24q1 -1 1.5 -2.5t1.5 -3t1 -2.5q4 -8 5 -12q1 -1 2 -1q13 -7 17 -25q3 -14 -4.5 -28.5t-21.5 -21.5q-9 -4 -20 -6.5t-24.5 -4t-21.5 -3.5q-39 -6 -73 -15q-80 -22 -142 -48
q-23 -10 -84 -40q1 -11 3 -32.5t3 -32.5v-4q1 0 1 1l2 1q22 10 66 28q56 22 85 33q30 12 45 17q48 18 72 26l39 12q6 1 16.5 5.5t15.5 5.5q27 6 47 -4.5t30.5 -33t15.5 -44.5t7 -47q1 -26 -19 -41zM336 779q13 -20 8.5 -31t-39.5 -48l-3 -3t-2.5 -3t-2.5 -3q-20 -20 -36 -30
q-33 -14 -47 -4q-5 3 -6 7.5t1.5 12t5.5 13.5t10 17.5t11 17.5q24 43 49 58.5t51 -4.5z" />
    <glyph glyph-name="ecircumflex" unicode="&#xea;" 
d="M121 -13q27 -4 41 1q2 0 3 1q16 8 23 12q16 8 46 24v2q-36 -14 -55 -20q-46 -17 -58 -20zM343 330l-1 3q-16 -5 -47 -14.5t-46 -14.5q-47 -14 -58 -17q-3 -17 -16 -28q33 17 151 64q8 4 17 7zM23 528q75 40 212 76q4 1 11.5 3t11.5 3q82 16 125 19q9 1 27 1
q-69 -18 -118 -29q-136 -30 -202 -53q-30 -9 -67 -26q-4 2 0 6zM584 121q-2 -9 -10 -10q-117 -22 -219 -58q-68 -24 -101 -38h-1q-1 -1 -3.5 -2t-3.5 -1q-5 -3 -16.5 -7t-16.5 -7l-1 -1q-5 -4 -22.5 -10t-32 -10.5t-13.5 -3.5q-6 -1 -10 -1q-32 -6 -42 15q-3 6 -1 14
q-19 8 -29.5 27.5t-3.5 38.5q-4 22 -11 105l-12 120l-12 114q-19 21 -16 49t25 47l4 8q28 12 64 24q73 25 202 52q53 12 157 40q14 -2 20 -4t16 -6q3 -2 8.5 -6.5t7.5 -6.5q11 -35 6 -62q-16 -5 -50 -15q-39 -13 -68 -20q-4 -2 -6 -2q-134 -37 -161 -49q-51 -17 -95 -36
l-2 -2q0 -4 3.5 -26t3.5 -25q118 51 168 69q41 10 97 26q2 1 6.5 2t6.5 1q13 2 35 4q48 2 63 -24q1 -1 1.5 -2.5t1.5 -3t1 -2.5q4 -8 5 -12q1 -1 2 -1q13 -7 17 -25q3 -14 -4.5 -28.5t-21.5 -21.5q-9 -4 -20 -6.5t-24.5 -4t-21.5 -3.5q-39 -6 -73 -15q-80 -22 -142 -48
q-23 -10 -84 -40q1 -11 3 -32.5t3 -32.5v-4q1 0 1 1l2 1q22 10 66 28q56 22 85 33q30 12 45 17q48 18 72 26l39 12q6 1 16.5 5.5t15.5 5.5q27 6 47 -4.5t30.5 -33t15.5 -44.5t7 -47q1 -26 -19 -41zM363 708q21 -22 1 -36q-22 -15 -52 4q-5 3 -10 7q-10 9 -19 21.5t-13.5 20
t-9.5 12t-10.5 1t-14.5 -16.5q-6 -9 -23.5 -27t-28.5 -32q-6 -9 -27 -4.5t-21 17.5q0 18 32.5 56.5t57.5 52.5q14 8 29 8t26.5 -5.5t25 -16.5t21.5 -20.5t19.5 -23t16.5 -18.5z" />
    <glyph glyph-name="edieresis" unicode="&#xeb;" 
d="M121 -13q27 -4 41 1q2 0 3 1q16 8 23 12q16 8 46 24v2q-36 -14 -55 -20q-46 -17 -58 -20zM343 330l-1 3q-16 -5 -47 -14.5t-46 -14.5q-47 -14 -58 -17q-3 -17 -16 -28q33 17 151 64q8 4 17 7zM23 528q75 40 212 76q4 1 11.5 3t11.5 3q82 16 125 19q9 1 27 1
q-69 -18 -118 -29q-136 -30 -202 -53q-30 -9 -67 -26q-4 2 0 6zM584 121q-2 -9 -10 -10q-117 -22 -219 -58q-68 -24 -101 -38h-1q-1 -1 -3.5 -2t-3.5 -1q-5 -3 -16.5 -7t-16.5 -7l-1 -1q-5 -4 -22.5 -10t-32 -10.5t-13.5 -3.5q-6 -1 -10 -1q-32 -6 -42 15q-3 6 -1 14
q-19 8 -29.5 27.5t-3.5 38.5q-4 22 -11 105l-12 120l-12 114q-19 21 -16 49t25 47l4 8q28 12 64 24q73 25 202 52q53 12 157 40q14 -2 20 -4t16 -6q3 -2 8.5 -6.5t7.5 -6.5q11 -35 6 -62q-16 -5 -50 -15q-39 -13 -68 -20q-4 -2 -6 -2q-134 -37 -161 -49q-51 -17 -95 -36
l-2 -2q0 -4 3.5 -26t3.5 -25q118 51 168 69q41 10 97 26q2 1 6.5 2t6.5 1q13 2 35 4q48 2 63 -24q1 -1 1.5 -2.5t1.5 -3t1 -2.5q4 -8 5 -12q1 -1 2 -1q13 -7 17 -25q3 -14 -4.5 -28.5t-21.5 -21.5q-9 -4 -20 -6.5t-24.5 -4t-21.5 -3.5q-39 -6 -73 -15q-80 -22 -142 -48
q-23 -10 -84 -40q1 -11 3 -32.5t3 -32.5v-4q1 0 1 1l2 1q22 10 66 28q56 22 85 33q30 12 45 17q48 18 72 26l39 12q6 1 16.5 5.5t15.5 5.5q27 6 47 -4.5t30.5 -33t15.5 -44.5t7 -47q1 -26 -19 -41zM236 700q-1 -1 -2.5 -5t-3.5 -6q-5 -11 -16 -16q-22 -13 -44 0
q-11 5 -15 15q-6 10 -6 22q0 20 13 32q1 0 4.5 3t5.5 4q10 6 22 6q3 0 11 -2q10 -1 19 -10q8 -10 12 -20q2 -11 0 -23zM353 693q-9 -25 -31 -29q-22 -8 -40 10q-8 8 -11 19q-3 8 -1 19q-2 16 11 27q13 15 35 10q17 -6 25 -15q17 -17 12 -41z" />
    <glyph glyph-name="igrave" unicode="&#xec;" horiz-adv-x="210" 
d="M195 53q-7 -12 -21 -17q2 -14 -10 -19q-18 -9 -38.5 -5t-34.5 18q-1 0 -1 1t-1 2q-7 3 -15 9q-5 5 -9 11t-6 11.5t-4 14t-3 13t-2.5 15t-1.5 13.5q-14 118 -13 223q0 82 3 109q5 34 21 50q2 4 8 10q15 10 21.5 14t23 11.5t27 3.5t16.5 -18q14 2 16 -12q0 -18 -1 -54.5
t-1 -55.5q0 -16 0.5 -34.5t1.5 -41t1 -34.5q0 -7 2 -25q1 0 2 -8.5t2.5 -17t2.5 -8.5q-6 131 1 247l7 2q-6 -211 23 -427q0 -5 -3.5 -7t-8 -0.5t-5.5 6.5zM84 461q-4 -13 -7 -27t-4.5 -31t-2 -27.5t-1.5 -31t-1 -27.5v-10v-2q2 -24 8 -72h3l-1 67q0 68 1 68q0 65 13 103h-1
q-7 -5 -7 -10zM71 600q-45 48 -49 61q-3 13 10 27q26 20 51 4.5t49 -58.5q4 -6 11 -17.5t10 -17.5t5.5 -13.5t1.5 -12t-6 -7.5q-14 -10 -47 4q-16 10 -36 30z" />
    <glyph glyph-name="iacute" unicode="&#xed;" horiz-adv-x="210" 
d="M195 53q-7 -12 -21 -17q2 -14 -10 -19q-18 -9 -38.5 -5t-34.5 18q-1 0 -1 1t-1 2q-7 3 -15 9q-5 5 -9 11t-6 11.5t-4 14t-3 13t-2.5 15t-1.5 13.5q-14 118 -13 223q0 82 3 109q5 34 21 50q2 4 8 10q15 10 21.5 14t23 11.5t27 3.5t16.5 -18q14 2 16 -12q0 -18 -1 -54.5
t-1 -55.5q0 -16 0.5 -34.5t1.5 -41t1 -34.5q0 -7 2 -25q1 0 2 -8.5t2.5 -17t2.5 -8.5q-6 131 1 247l7 2q-6 -211 23 -427q0 -5 -3.5 -7t-8 -0.5t-5.5 6.5zM84 461q-4 -13 -7 -27t-4.5 -31t-2 -27.5t-1.5 -31t-1 -27.5v-10v-2q2 -24 8 -72h3l-1 67q0 68 1 68q0 65 13 103h-1
q-7 -5 -7 -10zM196 688q13 -20 8.5 -31t-39.5 -48l-3 -3t-2.5 -3t-2.5 -3q-20 -20 -36 -30q-33 -14 -47 -4q-5 3 -6 7.5t1.5 12t5.5 13.5t10 17.5t11 17.5q24 43 49 58.5t51 -4.5z" />
    <glyph glyph-name="icircumflex" unicode="&#xee;" horiz-adv-x="210" 
d="M195 53q-7 -12 -21 -17q2 -14 -10 -19q-18 -9 -38.5 -5t-34.5 18q-1 0 -1 1t-1 2q-7 3 -15 9q-5 5 -9 11t-6 11.5t-4 14t-3 13t-2.5 15t-1.5 13.5q-14 118 -13 223q0 82 3 109q5 34 21 50q2 4 8 10q15 10 21.5 14t23 11.5t27 3.5t16.5 -18q14 2 16 -12q0 -18 -1 -54.5
t-1 -55.5q0 -16 0.5 -34.5t1.5 -41t1 -34.5q0 -7 2 -25q1 0 2 -8.5t2.5 -17t2.5 -8.5q-6 131 1 247l7 2q-6 -211 23 -427q0 -5 -3.5 -7t-8 -0.5t-5.5 6.5zM84 461q-4 -13 -7 -27t-4.5 -31t-2 -27.5t-1.5 -31t-1 -27.5v-10v-2q2 -24 8 -72h3l-1 67q0 68 1 68q0 65 13 103h-1
q-7 -5 -7 -10zM226 608q21 -22 1 -36q-22 -15 -52 4q-5 3 -10 7q-10 9 -19 21.5t-13.5 20t-9.5 12t-10.5 1t-14.5 -16.5q-6 -9 -23.5 -27t-28.5 -32q-6 -9 -27 -4.5t-21 17.5q0 18 32.5 56.5t57.5 52.5q14 8 29 8t26.5 -5.5t25 -16.5t21.5 -20.5t19.5 -23t16.5 -18.5z" />
    <glyph glyph-name="idieresis" unicode="&#xef;" horiz-adv-x="210" 
d="M195 53q-7 -12 -21 -17q2 -14 -10 -19q-18 -9 -38.5 -5t-34.5 18q-1 0 -1 1t-1 2q-7 3 -15 9q-5 5 -9 11t-6 11.5t-4 14t-3 13t-2.5 15t-1.5 13.5q-14 118 -13 223q0 82 3 109q5 34 21 50q2 4 8 10q15 10 21.5 14t23 11.5t27 3.5t16.5 -18q14 2 16 -12q0 -18 -1 -54.5
t-1 -55.5q0 -16 0.5 -34.5t1.5 -41t1 -34.5q0 -7 2 -25q1 0 2 -8.5t2.5 -17t2.5 -8.5q-6 131 1 247l7 2q-6 -211 23 -427q0 -5 -3.5 -7t-8 -0.5t-5.5 6.5zM84 461q-4 -13 -7 -27t-4.5 -31t-2 -27.5t-1.5 -31t-1 -27.5v-10v-2q2 -24 8 -72h3l-1 67q0 68 1 68q0 65 13 103h-1
q-7 -5 -7 -10zM111 606q-1 -1 -2.5 -5t-3.5 -6q-5 -11 -16 -16q-22 -13 -44 0q-11 5 -15 15q-6 10 -6 22q0 20 13 32q1 0 4.5 3t5.5 4q11 6 22 6q3 0 11 -2q10 -1 19 -10q8 -10 12 -20q2 -11 0 -23zM228 599q-9 -25 -31 -29q-22 -8 -40 10q-8 8 -11 19q-3 8 -1 19
q-2 16 11 27q13 15 35 10q17 -6 25 -15q17 -17 12 -41z" />
    <glyph glyph-name="eth" unicode="&#xf0;" horiz-adv-x="616" 
d="M268 271q-40 -4 -117 0t-109 12q-17 4 -22.5 15.5t2.5 22.5t24 13q13 3 54 3t92 -0.5t69 -0.5q24 1 35 -14t3 -31.5t-31 -19.5zM511 197q-30 46 -46 68q-48 64 -102 111q-55 51 -125 91q-12 6 -19 10q22 -106 46 -250q2 -15 7.5 -45t8.5 -45q54 -19 96 -28q34 -8 65 -9
q39 0 60 6q28 7 42 19q-2 12 -14 36q-14 29 -19 36zM87 502q-1 6 -7 10q-2 2 -2 0q-1 -1 0 -5q7 -28 23 -98.5t26 -108.5q5 -18 14 -53.5t13 -53.5q3 -2 9 -5.5t9 -4.5q-12 34 -16 51q-5 19 -33.5 131.5t-35.5 136.5zM626 91q-13 -31 -45.5 -52.5t-69.5 -30.5
q-67 -16 -157 -2q-39 6 -74 15q-7 -15 -19 -18q-7 -1 -14 2q-7 -7 -16 -7q-23 -2 -37 8q-26 18 -34 55q-50 20 -94 43q-22 12 -28 37t7 46q12 21 36.5 27.5t45.5 -5.5q1 -1 4 -3q-3 21 -7 35q-22 112 -68 334q-1 2 -2.5 6t-1.5 5q-4 14 4.5 26t22.5 14q10 2 14 2
q6 18 31.5 26t46.5 6q31 -2 62.5 -18t50.5 -31.5t49 -44.5q99 -95 152 -156q30 -32 49 -57q44 -58 68 -106q49 -96 24 -156z" />
    <glyph glyph-name="ntilde" unicode="&#xf1;" horiz-adv-x="510" 
d="M52 107q-1 18 -10 222q-3 71 -5 215q-2 30 8 52q-1 -32 1 -96q1 -69 5 -209q2 -36 5 -113.5t4 -111.5l-4 12zM434 -3q-9 -6 -20 0q-27 12 -38 69q-2 12 -6 34l-174 311q-2 2 -16 22v-64v-75.5v-64.5q2 -40 4 -120q5 -23 1 -57t-30 -38q-20 -33 -57 -21q-16 4 -28 19
q-5 84 -11 252q-1 30 -2 64.5t-2 76t-2 64.5q-2 99 0 131q10 8 19 9q0 12 8 23q13 13 27 14t31 -11t28.5 -23t20.5 -23q40 -53 89 -142q32 -54 64 -120q2 -4 2 -10q6 -11 16 -31q-3 28 -25 154q-16 84 -23 108q-1 3 -3.5 11t-3 12t-1.5 11t0.5 12.5t4.5 11.5q7 12 17 18v1
l1 1q8 15 27.5 16.5t31.5 -8.5q3 -1 7 -5l15 -57q18 -65 35 -179q25 -152 39 -369q-20 -27 -46 -27zM490 34q-2 0 -4 -3q-22 321 -76 567q-2 6 3 11q4 5 11 4t8 -8q58 -282 57 -528q3 -19 1 -43zM164 156l-3 -3q-1 0 -2 -1l-1 -60q0 -2 4 -28.5t0 -35.5q10 17 8 34
q-2 40 -4 59q0 11 -2 35zM342 674q-82 -42 -134 28q-17 23 -39 1q-7 -5 -11 -11l-5 -10l-2 -3q-4 -7 -13.5 -8t-15.5 4q-9 11 -6 27q6 26 22 41q13 11 28.5 18.5t33.5 7t31 -12.5q5 -4 13.5 -13.5t13.5 -14t11.5 -8.5t12.5 -4q10 0 18.5 7t10.5 15q4 24 12.5 33t24.5 -1
q30 -18 22 -55q-5 -29 -28 -41z" />
    <glyph glyph-name="ograve" unicode="&#xf2;" horiz-adv-x="420" 
d="M253 478q-12 36 -19 53q-8 18 -10 22q-2 2 -4 2h-5q-6 -11 -13 -34q-18 -60 -25 -111q-14 -114 4 -225q3 -17 -4 -30q-49 228 31 397q-5 -3 -14 -19q-27 -53 -40 -119l-2 -4q-4 -23 -8 -69q-4 -96 20 -201q-5 -4 -11 -5q-19 -5 -36 7q1 0 1 -1q15 -30 40 -50t54 -11
q17 6 27 24q10 19 14 34q23 64 23 146q-9 114 -15 150q-1 7 -3.5 22t-4.5 22zM385 242q-10 -110 -47 -163q-18 -25 -37 -41q-30 -30 -70 -36q-17 -2 -33 0q-51 -9 -97 28q-58 50 -77 159q-33 209 65 372l2 2q15 40 40 72q1 1 2 1t0 -2q-12 -20 -16 -30q-5 -11 -13 -33h2.5h3
h2.5q30 66 73 75q24 9 39 8q26 6 43 -4q14 -9 30 -38q15 6 23 -8q27 -52 38 -84q11 -36 20 -91q16 -102 7 -187zM172 718q-45 48 -49 61q-3 13 10 27q26 20 51 4.5t49 -58.5q4 -6 11 -17.5t10 -17.5t5.5 -13.5t1.5 -12t-6 -7.5q-14 -10 -47 4q-16 10 -36 30z" />
    <glyph glyph-name="oacute" unicode="&#xf3;" horiz-adv-x="420" 
d="M253 478q-12 36 -19 53q-8 18 -10 22q-2 2 -4 2h-5q-6 -11 -13 -34q-18 -60 -25 -111q-14 -114 4 -225q3 -17 -4 -30q-49 228 31 397q-5 -3 -14 -19q-27 -53 -40 -119l-2 -4q-4 -23 -8 -69q-4 -96 20 -201q-5 -4 -11 -5q-19 -5 -36 7q1 0 1 -1q15 -30 40 -50t54 -11
q17 6 27 24q10 19 14 34q23 64 23 146q-9 114 -15 150q-1 7 -3.5 22t-4.5 22zM385 242q-10 -110 -47 -163q-18 -25 -37 -41q-30 -30 -70 -36q-17 -2 -33 0q-51 -9 -97 28q-58 50 -77 159q-33 209 65 372l2 2q15 40 40 72q1 1 2 1t0 -2q-12 -20 -16 -30q-5 -11 -13 -33h2.5h3
h2.5q30 66 73 75q24 9 39 8q26 6 43 -4q14 -9 30 -38q15 6 23 -8q27 -52 38 -84q11 -36 20 -91q16 -102 7 -187zM280 802q13 -20 8.5 -31t-39.5 -48l-3 -3t-2.5 -3t-2.5 -3q-20 -20 -36 -30q-33 -14 -47 -4q-5 3 -6 7.5t1.5 12t5.5 13.5t10 17.5t11 17.5q24 43 49 58.5
t51 -4.5z" />
    <glyph glyph-name="ocircumflex" unicode="&#xf4;" horiz-adv-x="420" 
d="M253 478q-12 36 -19 53q-8 18 -10 22q-2 2 -4 2h-5q-6 -11 -13 -34q-18 -60 -25 -111q-14 -114 4 -225q3 -17 -4 -30q-49 228 31 397q-5 -3 -14 -19q-27 -53 -40 -119l-2 -4q-4 -23 -8 -69q-4 -96 20 -201q-5 -4 -11 -5q-19 -5 -36 7q1 0 1 -1q15 -30 40 -50t54 -11
q17 6 27 24q10 19 14 34q23 64 23 146q-9 114 -15 150q-1 7 -3.5 22t-4.5 22zM385 242q-10 -110 -47 -163q-18 -25 -37 -41q-30 -30 -70 -36q-17 -2 -33 0q-51 -9 -97 28q-58 50 -77 159q-33 209 65 372l2 2q15 40 40 72q1 1 2 1t0 -2q-12 -20 -16 -30q-5 -11 -13 -33h2.5h3
h2.5q30 66 73 75q24 9 39 8q26 6 43 -4q14 -9 30 -38q15 6 23 -8q27 -52 38 -84q11 -36 20 -91q16 -102 7 -187zM331 719q21 -22 1 -36q-22 -15 -52 4q-5 3 -10 7q-10 9 -19 21.5t-13.5 20t-9.5 12t-10.5 1t-14.5 -16.5q-6 -9 -23.5 -27t-28.5 -32q-6 -9 -27 -4.5t-21 17.5
q0 18 32.5 56.5t57.5 52.5q14 8 29 8t26.5 -5.5t25 -16.5t21.5 -20.5t19.5 -23t16.5 -18.5z" />
    <glyph glyph-name="otilde" unicode="&#xf5;" horiz-adv-x="420" 
d="M253 478q-12 36 -19 53q-8 18 -10 22q-2 2 -4 2h-5q-6 -11 -13 -34q-18 -60 -25 -111q-14 -114 4 -225q3 -17 -4 -30q-49 228 31 397q-5 -3 -14 -19q-27 -53 -40 -119l-2 -4q-4 -23 -8 -69q-4 -96 20 -201q-5 -4 -11 -5q-19 -5 -36 7q1 0 1 -1q15 -30 40 -50t54 -11
q17 6 27 24q10 19 14 34q23 64 23 146q-9 114 -15 150q-1 7 -3.5 22t-4.5 22zM385 242q-10 -110 -47 -163q-18 -25 -37 -41q-30 -30 -70 -36q-17 -2 -33 0q-51 -9 -97 28q-58 50 -77 159q-33 209 65 372l2 2q15 40 40 72q1 1 2 1t0 -2q-12 -20 -16 -30q-5 -11 -13 -33h2.5h3
h2.5q30 66 73 75q24 9 39 8q26 6 43 -4q14 -9 30 -38q15 6 23 -8q27 -52 38 -84q11 -36 20 -91q16 -102 7 -187zM316 688q-82 -42 -134 28q-17 23 -39 1q-7 -5 -11 -11l-5 -10l-2 -3q-4 -7 -13.5 -8t-15.5 4q-9 11 -6 27q6 26 22 41q13 11 28.5 18.5t33.5 7t31 -12.5
q5 -4 13.5 -13.5t13.5 -14t11.5 -8.5t12.5 -4q10 0 18.5 7t10.5 15q4 24 12.5 33t24.5 -1q30 -18 22 -55q-5 -29 -28 -41z" />
    <glyph glyph-name="odieresis" unicode="&#xf6;" horiz-adv-x="420" 
d="M253 478q-12 36 -19 53q-8 18 -10 22q-2 2 -4 2h-5q-6 -11 -13 -34q-18 -60 -25 -111q-14 -114 4 -225q3 -17 -4 -30q-49 228 31 397q-5 -3 -14 -19q-27 -53 -40 -119l-2 -4q-4 -23 -8 -69q-4 -96 20 -201q-5 -4 -11 -5q-19 -5 -36 7q1 0 1 -1q15 -30 40 -50t54 -11
q17 6 27 24q10 19 14 34q23 64 23 146q-9 114 -15 150q-1 7 -3.5 22t-4.5 22zM385 242q-10 -110 -47 -163q-18 -25 -37 -41q-30 -30 -70 -36q-17 -2 -33 0q-51 -9 -97 28q-58 50 -77 159q-33 209 65 372l2 2q15 40 40 72q1 1 2 1t0 -2q-12 -20 -16 -30q-5 -11 -13 -33h2.5h3
h2.5q30 66 73 75q24 9 39 8q26 6 43 -4q14 -9 30 -38q15 6 23 -8q27 -52 38 -84q11 -36 20 -91q16 -102 7 -187zM204 724q-1 -1 -2.5 -5t-3.5 -6q-5 -11 -16 -16q-22 -13 -44 0q-11 5 -15 15q-6 11 -6 22q0 20 13 32q1 0 4.5 3t5.5 4q10 6 22 6q3 0 11 -2q10 -1 19 -10
q8 -10 12 -20q2 -11 0 -23zM321 717q-9 -25 -31 -29q-22 -8 -40 10q-8 8 -11 19q-3 8 -1 19q-2 16 11 27q13 15 35 10q17 -6 25 -15q17 -17 12 -41z" />
    <glyph glyph-name="divide" unicode="&#xf7;" 
 />
    <glyph glyph-name="oslash" unicode="&#xf8;" horiz-adv-x="420" 
d="M388 596q3 5 8.5 5t8.5 -4t0 -9q-19 -36 -44 -79q12 -45 17 -80q16 -102 7 -187q-10 -110 -47 -163q-18 -25 -37 -41q-30 -30 -70 -36q-17 -2 -33 0q-51 -9 -97 28l-5 4q-19 -33 -24 -39q-7 -8 -15.5 -4.5t-9.5 12.5q-11 1 -19.5 8t-8.5 18t30 73q-17 38 -25 87
q-33 209 65 372l2 2q15 40 40 72q1 1 2 1t0 -2q-12 -20 -16 -30q-5 -11 -13 -33h2.5h3h2.5q30 66 73 75q24 9 39 8q26 6 43 -4q14 -9 30 -38q16 6 23 -9q36 59 45 72q7 12 20 4t8 -21q-17 -41 -49 -103l8 -19q21 33 36 60zM220 555h-5q-6 -11 -13 -34q-18 -60 -25 -111
q-5 -36 -6 -72l32 60q22 44 47 87q-9 27 -16 46q-8 18 -10 22q-2 2 -4 2zM144 341q-2 -27 0 -55l15 29q0 136 49 237q-5 -3 -14 -19q-27 -53 -40 -119l-2 -4q-4 -23 -8 -69zM266 395l-1 7l-7.5 -15t-7.5 -17q-4 -8 -6 -13zM276 284l-5 66q-3 -5 -7.5 -13.5t-5.5 -9.5
q-4 -8 -31 -57.5t-46 -84.5q3 -17 -4 -30l-3 17q-4 -8 -12 -22l2 -10q-5 -3 -10 -5l-15 -26q34 -41 73 -29q17 6 27 24q10 19 14 34q23 64 23 146z" />
    <glyph glyph-name="ugrave" unicode="&#xf9;" horiz-adv-x="510" 
d="M482 193q-27 -88 -76 -133q-3 -2 -7 -6q-21 -23 -44 -34q-55 -30 -113.5 -13t-98.5 64q-25 29 -42 65q-24 -2 -32 19q-73 184 -24 393q10 45 35.5 76.5t66.5 25.5q39 -5 54 -42q4 -20 3.5 -31.5t-5 -34t-5.5 -32.5q-4 -53 -1 -113q7 -110 50 -224q24 -19 47 -20
q29 6 50 24q7 10 11 23t6.5 29t3.5 27t1.5 29t0.5 23q6 89 4 268q-1 22 20 34.5t40 1.5v10q0 8 6 14.5t14 5.5q21 -2 33 -18.5t14.5 -31t4.5 -40.5q1 -8 2.5 -22.5t2.5 -26.5t1 -23v-40q7 -143 -23 -247zM190 545q-4 -2 -6 2q-4 -18 -8 -26q-13 -111 5 -203q2 -16 8 -38
q2 0 3 -1q-24 134 -2 266zM230 690q-45 48 -49 61q-3 13 10 27q26 20 51 4.5t49 -58.5q4 -6 11 -17.5t10 -17.5t5.5 -13.5t1.5 -12t-6 -7.5q-14 -10 -47 4q-16 10 -36 30z" />
    <glyph glyph-name="uacute" unicode="&#xfa;" horiz-adv-x="510" 
d="M482 193q-27 -88 -76 -133q-3 -2 -7 -6q-21 -23 -44 -34q-55 -30 -113.5 -13t-98.5 64q-25 29 -42 65q-24 -2 -32 19q-73 184 -24 393q10 45 35.5 76.5t66.5 25.5q39 -5 54 -42q4 -20 3.5 -31.5t-5 -34t-5.5 -32.5q-4 -53 -1 -113q7 -110 50 -224q24 -19 47 -20
q29 6 50 24q7 10 11 23t6.5 29t3.5 27t1.5 29t0.5 23q6 89 4 268q-1 22 20 34.5t40 1.5v10q0 8 6 14.5t14 5.5q21 -2 33 -18.5t14.5 -31t4.5 -40.5q1 -8 2.5 -22.5t2.5 -26.5t1 -23v-40q7 -143 -23 -247zM190 545q-4 -2 -6 2q-4 -18 -8 -26q-13 -111 5 -203q2 -16 8 -38
q2 0 3 -1q-24 134 -2 266zM371 755q13 -20 8.5 -31t-39.5 -48l-3 -3t-2.5 -3t-2.5 -3q-20 -20 -36 -30q-33 -14 -47 -4q-5 3 -6 7.5t1.5 12t5.5 13.5t10 17.5t11 17.5q24 43 49 58.5t51 -4.5z" />
    <glyph glyph-name="ucircumflex" unicode="&#xfb;" horiz-adv-x="510" 
d="M482 193q-27 -88 -76 -133q-3 -2 -7 -6q-21 -23 -44 -34q-55 -30 -113.5 -13t-98.5 64q-25 29 -42 65q-24 -2 -32 19q-73 184 -24 393q10 45 35.5 76.5t66.5 25.5q39 -5 54 -42q4 -20 3.5 -31.5t-5 -34t-5.5 -32.5q-4 -53 -1 -113q7 -110 50 -224q24 -19 47 -20
q29 6 50 24q7 10 11 23t6.5 29t3.5 27t1.5 29t0.5 23q6 89 4 268q-1 22 20 34.5t40 1.5v10q0 8 6 14.5t14 5.5q21 -2 33 -18.5t14.5 -31t4.5 -40.5q1 -8 2.5 -22.5t2.5 -26.5t1 -23v-40q7 -143 -23 -247zM190 545q-4 -2 -6 2q-4 -18 -8 -26q-13 -111 5 -203q2 -16 8 -38
q2 0 3 -1q-24 134 -2 266zM392 722q21 -22 1 -36q-22 -15 -52 4q-5 3 -10 7q-10 9 -19 21.5t-13.5 20t-9.5 12t-10.5 1t-14.5 -16.5q-6 -9 -23.5 -27t-28.5 -32q-6 -9 -27 -4.5t-21 17.5q0 18 32.5 56.5t57.5 52.5q14 8 29 8t26.5 -5.5t25 -16.5t21.5 -20.5t19.5 -23
t16.5 -18.5z" />
    <glyph glyph-name="udieresis" unicode="&#xfc;" horiz-adv-x="510" 
d="M482 193q-27 -88 -76 -133q-3 -2 -7 -6q-21 -23 -44 -34q-55 -30 -113.5 -13t-98.5 64q-25 29 -42 65q-24 -2 -32 19q-73 184 -24 393q10 45 35.5 76.5t66.5 25.5q39 -5 54 -42q4 -20 3.5 -31.5t-5 -34t-5.5 -32.5q-4 -53 -1 -113q7 -110 50 -224q24 -19 47 -20
q29 6 50 24q7 10 11 23t6.5 29t3.5 27t1.5 29t0.5 23q6 89 4 268q-1 22 20 34.5t40 1.5v10q0 8 6 14.5t14 5.5q21 -2 33 -18.5t14.5 -31t4.5 -40.5q1 -8 2.5 -22.5t2.5 -26.5t1 -23v-40q7 -143 -23 -247zM190 545q-4 -2 -6 2q-4 -18 -8 -26q-13 -111 5 -203q2 -16 8 -38
q2 0 3 -1q-24 134 -2 266zM274 695q-1 -1 -2.5 -5t-3.5 -6q-5 -11 -16 -16q-22 -13 -44 0q-11 5 -15 15q-6 10 -6 22q0 20 13 32q1 0 4.5 3t5.5 4q10 6 22 6q3 0 11 -2q10 -1 19 -10q8 -10 12 -20q2 -11 0 -23zM391 688q-9 -25 -31 -29q-22 -8 -40 10q-8 8 -11 19
q-3 8 -1 19q-2 16 11 27q13 15 35 10q17 -6 25 -15q17 -17 12 -41z" />
    <glyph glyph-name="yacute" unicode="&#xfd;" horiz-adv-x="560" 
d="M576 574q-17 -29 -52 -81t-48 -73q-6 -8 -8 -12q21 -45 -6 -67q0 -1 -2 -1t-2 -1q-2 -10 -7 -15q-15 -14 -41 -12q-4 -8 -12.5 -23t-12.5 -22q-44 -77 -83 -157q-37 -70 -41 -77q-19 -30 -42 -32q-5 0 -5 4q-25 -12 -50.5 5t-16.5 48q5 15 35 83q4 9 13 27.5t13 27.5
q-5 7 -5 8q-15 -29 -26 -53q-21 -43 -39 -87l3 42q30 71 55 124q-1 13 7 27q16 24 23 35l2 4q20 39 43 80q-16 8 -36 20q-16 10 -53.5 33.5t-58.5 34.5q-6 4 -9 5q-10 4 -28 14q-8 5 -26 13l-3 6q-2 0 -4 2q-2 1 -7 4.5t-7 5t-8 5.5t-7.5 6t-7 6.5t-6.5 7t-5 7.5t-3.5 8
t-2 8.5t0.5 9.5q2 9 4 12q-12 10 -5.5 31.5t21.5 25.5q8 2 11 2h7q19 0 51 -16q68 -28 100 -44q86 -42 148 -83l24 39q7 12 22 34t22 34q31 48 45 61q2 2 6 1t5 -4q6 -1 9.5 -6t-0.5 -10q-58 -81 -95 -140q-5 -7 -13 -23l-1 -1l8 -5l23 35q22 35 23 36q2 3 14.5 22t17.5 26
t15 20.5t19.5 23t19.5 18.5q6 6 12 4q14 6 30.5 2.5t27.5 -14.5q13 -13 15 -31.5t-8 -34.5q2 -8 -2 -13zM351 788q13 -20 8.5 -31t-39.5 -48l-3 -3t-2.5 -3t-2.5 -3q-20 -20 -36 -30q-33 -14 -47 -4q-5 3 -6 7.5t1.5 12t5.5 13.5t10 17.5t11 17.5q24 43 49 58.5t51 -4.5z
" />
    <glyph glyph-name="thorn" unicode="&#xfe;" horiz-adv-x="470" 
d="M493 322q6 -39 -19 -62q-13 -23 -35.5 -35.5t-54 -13.5t-53 1t-53.5 7q-4 1 -13.5 2.5t-13.5 2.5q0 -2 11 -103q4 -44 -5 -72q-7 -25 -30 -46q-29 -24 -44 -5q-9 11 -13 51q-4 23 -5 38q-7 24 -12 51q2 -20 4 -31q4 -33 7 -52q3 -35 1 -40q0 -1 -1 0q-5 7 -10 44l-9 52
q-2 16 -7 71t-8 76q-48 19 -92 42q-1 1 0 2t2 0q38 -18 89 -37q-1 3 -2 8.5t-2 8.5q-23 9 -67 29q-16 7 -20.5 26.5t4.5 33.5q7 12 22 18.5t28 1.5l6 -3q-20 75 -40 131l-1 4l-19 56q-9 27 6.5 59t39.5 41.5t46 -12.5q10 -12 35 -86q17 -2 32 -9q33 -17 95 -57
q88 -59 179 -140q12 -10 10 -23q9 -15 12 -30zM413 310l8 2q-2 4 -4 6q-12 18 -63 49q-58 34 -87 50q-44 22 -67 32q20 -76 28 -115q33 -11 64 -18q56 -12 101 -8q8 0 20 2zM379 225l38 6q0 1 -10.5 0t-10.5 0q-47 -6 -94 2q-16 2 -55 10q0 -1 0.5 -4t1.5 -4q8 -2 11 -2
q79 -12 119 -8zM233 41q16 36 3 98l-6 31v-4v-5.5v-3.5l2 -20q6 -68 -11 -100l2 -3q6 3 10 7z" />
    <glyph glyph-name="ydieresis" unicode="&#xff;" horiz-adv-x="560" 
d="M576 574q-17 -29 -52 -81t-48 -73q-6 -8 -8 -12q21 -45 -6 -67q0 -1 -2 -1t-2 -1q-2 -10 -7 -15q-15 -14 -41 -12q-4 -8 -12.5 -23t-12.5 -22q-44 -77 -83 -157q-37 -70 -41 -77q-19 -30 -42 -32q-5 0 -5 4q-25 -12 -50.5 5t-16.5 48q5 15 35 83q4 9 13 27.5t13 27.5
q-5 7 -5 8q-15 -29 -26 -53q-21 -43 -39 -87l3 42q30 71 55 124q-1 13 7 27q16 24 23 35l2 4q20 39 43 80q-16 8 -36 20q-16 10 -53.5 33.5t-58.5 34.5q-6 4 -9 5q-10 4 -28 14q-8 5 -26 13l-3 6q-2 0 -4 2q-2 1 -7 4.5t-7 5t-8 5.5t-7.5 6t-7 6.5t-6.5 7t-5 7.5t-3.5 8
t-2 8.5t0.5 9.5q2 9 4 12q-12 10 -5.5 31.5t21.5 25.5q8 2 11 2h7q19 0 51 -16q68 -28 100 -44q86 -42 148 -83l24 39q7 12 22 34t22 34q31 48 45 61q2 2 6 1t5 -4q6 -1 9.5 -6t-0.5 -10q-58 -81 -95 -140q-5 -7 -13 -23l-1 -1l8 -5l23 35q22 35 23 36q2 3 14.5 22t17.5 26
t15 20.5t19.5 23t19.5 18.5q6 6 12 4q14 6 30.5 2.5t27.5 -14.5q13 -13 15 -31.5t-8 -34.5q2 -8 -2 -13zM257 720q-1 -1 -2.5 -5t-3.5 -6q-5 -11 -16 -16q-22 -13 -44 0q-11 5 -15 15q-6 10 -6 22q0 20 13 32q1 0 4.5 3t5.5 4q10 6 22 6q3 0 11 -2q10 -1 19 -10
q8 -10 12 -20q2 -11 0 -23zM374 713q-9 -25 -31 -29q-22 -8 -40 10q-8 8 -11 19q-3 8 -1 19q-2 16 11 27q13 15 35 10q17 -6 25 -15q17 -17 12 -41z" />
    <glyph glyph-name="Amacron" unicode="&#x100;" horiz-adv-x="470" 
d="M366 30q-21 8 -67 215l-78 -1q-24 -97 -31 -180q0 -6 -4 -8t-8 0t-4 8q9 105 33 180h-9l-30 -151l-6 -45q-4 -43 -36.5 -57t-60.5 8t-22 66q14 100 33 175q-18 -2 -27 -2q2 5 1 9q-32 8 -41.5 39t16 63.5t80.5 40.5q26 120 56 193q1 3 9 20.5t11 24t11.5 20t16 19.5
t18.5 12t23 6q13 1 26 -7t19 -20q22 -2 36.5 -16t16.5 -38q4 -47 11 -120q1 -1 2 -1q2 58 7 102l3 -48q7 -117 11 -153q36 -4 54 -30t11.5 -56.5t-33.5 -47.5q29 -130 38 -200q5 -42 -11.5 -60.5t-40 -6.5t-34.5 47zM218 374l56 4q0 2 -6.5 57t-12.5 82q-29 -102 -37 -143z
M346 714q-40 -6 -96 -7.5t-90 3.5q-18 3 -24 14.5t1 22.5t23 15q13 4 43 7t72.5 5.5t58.5 4.5q24 2 36 -12t5 -31t-29 -22z" />
    <glyph glyph-name="amacron" unicode="&#x101;" horiz-adv-x="470" 
d="M366 30q-21 8 -67 215l-78 -1q-24 -97 -31 -180q0 -6 -4 -8t-8 0t-4 8q9 105 33 180h-9l-30 -151l-6 -45q-4 -43 -36.5 -57t-60.5 8t-22 66q14 100 33 175q-18 -2 -27 -2q2 5 1 9q-32 8 -41.5 39t16 63.5t80.5 40.5q26 120 56 193q1 3 9 20.5t11 24t11.5 20t16 19.5
t18.5 12t23 6q13 1 26 -7t19 -20q22 -2 36.5 -16t16.5 -38q4 -47 11 -120q1 -1 2 -1q2 58 7 102l3 -48q7 -117 11 -153q36 -4 54 -30t11.5 -56.5t-33.5 -47.5q29 -130 38 -200q5 -42 -11.5 -60.5t-40 -6.5t-34.5 47zM218 374l56 4q0 2 -6.5 57t-12.5 82q-29 -102 -37 -143z
M346 714q-40 -6 -96 -7.5t-90 3.5q-18 3 -24 14.5t1 22.5t23 15q13 4 43 7t72.5 5.5t58.5 4.5q24 2 36 -12t5 -31t-29 -22z" />
    <glyph glyph-name="Abreve" unicode="&#x102;" horiz-adv-x="470" 
d="M366 30q-21 8 -67 215l-78 -1q-24 -97 -31 -180q0 -6 -4 -8t-8 0t-4 8q9 105 33 180h-9l-30 -151l-6 -45q-4 -43 -36.5 -57t-60.5 8t-22 66q14 100 33 175q-18 -2 -27 -2q2 5 1 9q-32 8 -41.5 39t16 63.5t80.5 40.5q26 120 56 193q1 3 9 20.5t11 24t11.5 20t16 19.5
t18.5 12t23 6q13 1 26 -7t19 -20q22 -2 36.5 -16t16.5 -38q4 -47 11 -120q1 -1 2 -1q2 58 7 102l3 -48q7 -117 11 -153q36 -4 54 -30t11.5 -56.5t-33.5 -47.5q29 -130 38 -200q5 -42 -11.5 -60.5t-40 -6.5t-34.5 47zM218 374l56 4q0 2 -6.5 57t-12.5 82q-29 -102 -37 -143z
M345 756q-40 -64 -102 -55q-30 4 -56 22.5t-35 47.5q-5 16 11.5 26t28.5 -4q22 -26 50 -29q32 -3 57 33q7 10 22 11.5t21 -6.5q18 -24 3 -46z" />
    <glyph glyph-name="abreve" unicode="&#x103;" horiz-adv-x="470" 
d="M366 30q-21 8 -67 215l-78 -1q-24 -97 -31 -180q0 -6 -4 -8t-8 0t-4 8q9 105 33 180h-9l-30 -151l-6 -45q-4 -43 -36.5 -57t-60.5 8t-22 66q14 100 33 175q-18 -2 -27 -2q2 5 1 9q-32 8 -41.5 39t16 63.5t80.5 40.5q26 120 56 193q1 3 9 20.5t11 24t11.5 20t16 19.5
t18.5 12t23 6q13 1 26 -7t19 -20q22 -2 36.5 -16t16.5 -38q4 -47 11 -120q1 -1 2 -1q2 58 7 102l3 -48q7 -117 11 -153q36 -4 54 -30t11.5 -56.5t-33.5 -47.5q29 -130 38 -200q5 -42 -11.5 -60.5t-40 -6.5t-34.5 47zM218 374l56 4q0 2 -6.5 57t-12.5 82q-29 -102 -37 -143z
M345 756q-40 -64 -102 -55q-30 4 -56 22.5t-35 47.5q-5 16 11.5 26t28.5 -4q22 -26 50 -29q32 -3 57 33q7 10 22 11.5t21 -6.5q18 -24 3 -46z" />
    <glyph glyph-name="Aogonek" unicode="&#x104;" horiz-adv-x="470" 
d="M423 -148q22 0 32.5 -17.5t5.5 -37.5t-22 -26q-30 -11 -64 -3.5t-57 32.5q-42 49 -23.5 112t79.5 100q-8 15 -14.5 29.5t-11.5 25.5t-10 27t-8 24t-8 28t-7 27.5t-7.5 33.5t-8.5 37l-78 -1q-24 -95 -31 -180q0 -5 -4 -7t-8 0t-4 7q9 106 33 180h-9q-6 -21 -13.5 -58.5
t-12.5 -64.5l-4 -27l-6 -45q-4 -41 -36 -54.5t-60.5 7.5t-22.5 63q13 100 33 176q-18 -2 -27 -2q2 4 1 9q-32 8 -41.5 39t16 63t80.5 41q26 120 56 193q1 2 9 20t11 24t12 20t16 20t18 12t23 6q13 1 26 -7t19 -21q22 -2 37 -16t16 -38q4 -47 11 -119q1 -1 2 -1q2 57 7 102
l3 -48q7 -117 11 -153q36 -5 54 -31t11.5 -56t-33.5 -47q29 -136 38 -200q2 -18 1.5 -30.5t-9.5 -19.5t-27 -7q-49 -56 -49 -102q0 -45 55 -39zM225 373q10 2 51 5q-2 14 -6.5 70.5t-5.5 66.5q-6 -14 -20.5 -72.5t-18.5 -69.5z" />
    <glyph glyph-name="aogonek" unicode="&#x105;" horiz-adv-x="470" 
d="M423 -148q22 0 32.5 -17.5t5.5 -37.5t-22 -26q-30 -11 -64 -3.5t-57 32.5q-42 49 -23.5 112t79.5 100q-8 15 -14.5 29.5t-11.5 25.5t-10 27t-8 24t-8 28t-7 27.5t-7.5 33.5t-8.5 37l-78 -1q-24 -95 -31 -180q0 -5 -4 -7t-8 0t-4 7q9 106 33 180h-9q-6 -21 -13.5 -58.5
t-12.5 -64.5l-4 -27l-6 -45q-4 -41 -36 -54.5t-60.5 7.5t-22.5 63q13 100 33 176q-18 -2 -27 -2q2 4 1 9q-32 8 -41.5 39t16 63t80.5 41q26 120 56 193q1 2 9 20t11 24t12 20t16 20t18 12t23 6q13 1 26 -7t19 -21q22 -2 37 -16t16 -38q4 -47 11 -119q1 -1 2 -1q2 57 7 102
l3 -48q7 -117 11 -153q36 -5 54 -31t11.5 -56t-33.5 -47q29 -136 38 -200q2 -18 1.5 -30.5t-9.5 -19.5t-27 -7q-49 -56 -49 -102q0 -45 55 -39zM225 373q10 2 51 5q-2 14 -6.5 70.5t-5.5 66.5q-6 -14 -20.5 -72.5t-18.5 -69.5z" />
    <glyph glyph-name="Cacute" unicode="&#x106;" horiz-adv-x="520" 
d="M493 197q-24 -93 -80 -137q-52 -42 -119.5 -54.5t-131.5 11.5q-62 25 -107 77t-59 117q-7 37 -7 65q2 127 61 203q52 70 115 114q29 21 60 39q33 20 69 17q15 -1 24.5 -11t9.5 -23q6 -12 4 -39q-4 -31 0 -147q1 -31 3 -95q0 -18 2 -50q0 -37 -1 -41t-5.5 -6t-8.5 0
q-5 3 -6 5h-8q-18 5 -28 26q-3 5 -8 19h-3v-3q6 -22 18 -37.5t31 -12.5q10 2 15 -5t2 -15t-13 -9q-19 -2 -37.5 9t-26.5 29q-12 26 -14 96q-2 65 -6 193q-8 -6 -13 -9q-96 -74 -121 -205q0 -3 -1 -7t-1 -7q-1 -5 -1 -16q-1 -33 10 -69q37 -114 119 -119q2 0 6.5 -0.5
t6.5 -0.5q58 2 99 38q17 16 26 33q23 41 21 105q-2 34 -10 49q1 0 1 -2t1 -2q-11 21 -6 44.5t27 35.5q21 12 43.5 5.5t36.5 -26.5q42 -65 11 -182zM252 435h5q-3 59 1 111q-7 -6 -16 -11q2 -18 5.5 -51t4.5 -49zM376 791q13 -20 8.5 -31t-39.5 -48l-3 -3t-2.5 -3t-2.5 -3
q-20 -20 -36 -30q-33 -14 -47 -4q-5 3 -6 7.5t1.5 12t5.5 13.5t10 17.5t11 17.5q24 43 49 58.5t51 -4.5z" />
    <glyph glyph-name="cacute" unicode="&#x107;" horiz-adv-x="520" 
d="M493 197q-24 -93 -80 -137q-52 -42 -119.5 -54.5t-131.5 11.5q-62 25 -107 77t-59 117q-7 37 -7 65q2 127 61 203q52 70 115 114q29 21 60 39q33 20 69 17q15 -1 24.5 -11t9.5 -23q6 -12 4 -39q-4 -31 0 -147q1 -31 3 -95q0 -18 2 -50q0 -37 -1 -41t-5.5 -6t-8.5 0
q-5 3 -6 5h-8q-18 5 -28 26q-3 5 -8 19h-3v-3q6 -22 18 -37.5t31 -12.5q10 2 15 -5t2 -15t-13 -9q-19 -2 -37.5 9t-26.5 29q-12 26 -14 96q-2 65 -6 193q-8 -6 -13 -9q-96 -74 -121 -205q0 -3 -1 -7t-1 -7q-1 -5 -1 -16q-1 -33 10 -69q37 -114 119 -119q2 0 6.5 -0.5
t6.5 -0.5q58 2 99 38q17 16 26 33q23 41 21 105q-2 34 -10 49q1 0 1 -2t1 -2q-11 21 -6 44.5t27 35.5q21 12 43.5 5.5t36.5 -26.5q42 -65 11 -182zM252 435h5q-3 59 1 111q-7 -6 -16 -11q2 -18 5.5 -51t4.5 -49zM376 791q13 -20 8.5 -31t-39.5 -48l-3 -3t-2.5 -3t-2.5 -3
q-20 -20 -36 -30q-33 -14 -47 -4q-5 3 -6 7.5t1.5 12t5.5 13.5t10 17.5t11 17.5q24 43 49 58.5t51 -4.5z" />
    <glyph glyph-name="Cdotaccent" unicode="&#x10a;" horiz-adv-x="520" 
d="M493 197q-24 -93 -80 -137q-52 -42 -119.5 -54.5t-131.5 11.5q-62 25 -107 77t-59 117q-7 37 -7 65q2 127 61 203q52 70 115 114q29 21 60 39q33 20 69 17q15 -1 24.5 -11t9.5 -23q6 -12 4 -39q-4 -31 0 -147q1 -31 3 -95q0 -18 2 -50q0 -37 -1 -41t-5.5 -6t-8.5 0
q-5 3 -6 5h-8q-18 5 -28 26q-3 5 -8 19h-3v-3q6 -22 18 -37.5t31 -12.5q10 2 15 -5t2 -15t-13 -9q-19 -2 -37.5 9t-26.5 29q-12 26 -14 96q-2 65 -6 193q-8 -6 -13 -9q-96 -74 -121 -205q0 -3 -1 -7t-1 -7q-1 -5 -1 -16q-1 -33 10 -69q37 -114 119 -119q2 0 6.5 -0.5
t6.5 -0.5q58 2 99 38q17 16 26 33q23 41 21 105q-2 34 -10 49q1 0 1 -2t1 -2q-11 21 -6 44.5t27 35.5q21 12 43.5 5.5t36.5 -26.5q42 -65 11 -182zM252 435h5q-3 59 1 111q-7 -6 -16 -11q2 -18 5.5 -51t4.5 -49zM341 736q11 -12 4 -28l-1 -2v-2q-7 -22 -29.5 -30t-41.5 6
q-2 1 -4 3q-7 0 -10 7q-2 6 -2 10q-4 7 -4 17q0 11 6 21q6 8 12 12q1 0 3 2t3 2q11 9 22 8h5q27 -2 37 -26z" />
    <glyph glyph-name="cdotaccent" unicode="&#x10b;" horiz-adv-x="520" 
d="M493 197q-24 -93 -80 -137q-52 -42 -119.5 -54.5t-131.5 11.5q-62 25 -107 77t-59 117q-7 37 -7 65q2 127 61 203q52 70 115 114q29 21 60 39q33 20 69 17q15 -1 24.5 -11t9.5 -23q6 -12 4 -39q-4 -31 0 -147q1 -31 3 -95q0 -18 2 -50q0 -37 -1 -41t-5.5 -6t-8.5 0
q-5 3 -6 5h-8q-18 5 -28 26q-3 5 -8 19h-3v-3q6 -22 18 -37.5t31 -12.5q10 2 15 -5t2 -15t-13 -9q-19 -2 -37.5 9t-26.5 29q-12 26 -14 96q-2 65 -6 193q-8 -6 -13 -9q-96 -74 -121 -205q0 -3 -1 -7t-1 -7q-1 -5 -1 -16q-1 -33 10 -69q37 -114 119 -119q2 0 6.5 -0.5
t6.5 -0.5q58 2 99 38q17 16 26 33q23 41 21 105q-2 34 -10 49q1 0 1 -2t1 -2q-11 21 -6 44.5t27 35.5q21 12 43.5 5.5t36.5 -26.5q42 -65 11 -182zM252 435h5q-3 59 1 111q-7 -6 -16 -11q2 -18 5.5 -51t4.5 -49zM341 736q11 -12 4 -28l-1 -2v-2q-7 -22 -29.5 -30t-41.5 6
q-2 1 -4 3q-7 0 -10 7q-2 6 -2 10q-4 7 -4 17q0 11 6 21q6 8 12 12q1 0 3 2t3 2q11 9 22 8h5q27 -2 37 -26z" />
    <glyph glyph-name="Ccaron" unicode="&#x10c;" horiz-adv-x="520" 
d="M493 197q-24 -93 -80 -137q-52 -42 -119.5 -54.5t-131.5 11.5q-62 25 -107 77t-59 117q-7 37 -7 65q2 127 61 203q52 70 115 114q29 21 60 39q33 20 69 17q15 -1 24.5 -11t9.5 -23q6 -12 4 -39q-4 -31 0 -147q1 -31 3 -95q0 -18 2 -50q0 -37 -1 -41t-5.5 -6t-8.5 0
q-5 3 -6 5h-8q-18 5 -28 26q-3 5 -8 19h-3v-3q6 -22 18 -37.5t31 -12.5q10 2 15 -5t2 -15t-13 -9q-19 -2 -37.5 9t-26.5 29q-12 26 -14 96q-2 65 -6 193q-8 -6 -13 -9q-96 -74 -121 -205q0 -3 -1 -7t-1 -7q-1 -5 -1 -16q-1 -33 10 -69q37 -114 119 -119q2 0 6.5 -0.5
t6.5 -0.5q58 2 99 38q17 16 26 33q23 41 21 105q-2 34 -10 49q1 0 1 -2t1 -2q-11 21 -6 44.5t27 35.5q21 12 43.5 5.5t36.5 -26.5q42 -65 11 -182zM252 435h5q-3 59 1 111q-7 -6 -16 -11q2 -18 5.5 -51t4.5 -49zM351 774q29 25 57 14q23 -10 10 -31q-2 -4 -6 -8
q-5 -5 -16.5 -18.5t-19.5 -23t-21.5 -20.5t-25 -16.5t-26.5 -5.5t-29 8q-25 14 -57.5 52.5t-32.5 56.5q0 13 21 17.5t27 -4.5q11 -14 28.5 -32t23.5 -27q9 -13 14.5 -16.5t10.5 1t9.5 12t13.5 20t19 21.5z" />
    <glyph glyph-name="ccaron" unicode="&#x10d;" horiz-adv-x="520" 
d="M493 197q-24 -93 -80 -137q-52 -42 -119.5 -54.5t-131.5 11.5q-62 25 -107 77t-59 117q-7 37 -7 65q2 127 61 203q52 70 115 114q29 21 60 39q33 20 69 17q15 -1 24.5 -11t9.5 -23q6 -12 4 -39q-4 -31 0 -147q1 -31 3 -95q0 -18 2 -50q0 -37 -1 -41t-5.5 -6t-8.5 0
q-5 3 -6 5h-8q-18 5 -28 26q-3 5 -8 19h-3v-3q6 -22 18 -37.5t31 -12.5q10 2 15 -5t2 -15t-13 -9q-19 -2 -37.5 9t-26.5 29q-12 26 -14 96q-2 65 -6 193q-8 -6 -13 -9q-96 -74 -121 -205q0 -3 -1 -7t-1 -7q-1 -5 -1 -16q-1 -33 10 -69q37 -114 119 -119q2 0 6.5 -0.5
t6.5 -0.5q58 2 99 38q17 16 26 33q23 41 21 105q-2 34 -10 49q1 0 1 -2t1 -2q-11 21 -6 44.5t27 35.5q21 12 43.5 5.5t36.5 -26.5q42 -65 11 -182zM252 435h5q-3 59 1 111q-7 -6 -16 -11q2 -18 5.5 -51t4.5 -49zM351 774q29 25 57 14q23 -10 10 -31q-2 -4 -6 -8
q-5 -5 -16.5 -18.5t-19.5 -23t-21.5 -20.5t-25 -16.5t-26.5 -5.5t-29 8q-25 14 -57.5 52.5t-32.5 56.5q0 13 21 17.5t27 -4.5q11 -14 28.5 -32t23.5 -27q9 -13 14.5 -16.5t10.5 1t9.5 12t13.5 20t19 21.5z" />
    <glyph glyph-name="Dcaron" unicode="&#x10e;" horiz-adv-x="576" 
d="M452 650q21 -6 22 -22.5t-12 -65.5q-7 -23 -15 -40q-19 -27 -36 -25q-5 0 -8.5 3.5t-4.5 9.5t-1 14v17.5v19.5q-1 46 13 71.5t42 17.5zM461 197q-30 46 -46 68q-48 64 -102 111q-55 51 -125 91q-12 6 -19 10q22 -106 46 -250q3 -15 8.5 -45t7.5 -45q54 -19 96 -28
q34 -8 65 -9q39 0 60 6q28 7 42 19q-2 12 -14 36q-14 29 -19 36zM37 502q-1 6 -7 10q-2 2 -2 0q-1 -1 0 -5q7 -28 23 -98.5t26 -108.5q5 -18 14 -53.5t13 -53.5q3 -2 9 -5.5t9 -4.5q-12 34 -16 51q-5 19 -33.5 131.5t-35.5 136.5zM576 91q-13 -31 -45.5 -52.5t-69.5 -30.5
q-67 -16 -157 -2q-39 6 -74 15q-7 -15 -19 -18q-7 -1 -14 2q-7 -7 -16 -7q-23 -2 -37 8q-26 18 -34 55q-50 20 -94 43q-22 12 -28 37t7 46q12 21 36.5 27.5t45.5 -5.5l2 -2t2 -1q-3 21 -7 35q-22 112 -68 334q-1 2 -2.5 6t-1.5 5q-4 14 4.5 26t22.5 14q10 2 14 2
q6 18 31.5 26t46.5 6q31 -2 62.5 -18t50.5 -31.5t49 -44.5q99 -95 152 -156q30 -32 49 -57q44 -58 68 -106q49 -96 24 -156z" />
    <glyph glyph-name="dcaron" unicode="&#x10f;" horiz-adv-x="576" 
d="M452 650q21 -6 22 -22.5t-12 -65.5q-7 -23 -15 -40q-19 -27 -36 -25q-5 0 -8.5 3.5t-4.5 9.5t-1 14v17.5v19.5q-1 46 13 71.5t42 17.5zM461 197q-30 46 -46 68q-48 64 -102 111q-55 51 -125 91q-12 6 -19 10q22 -106 46 -250q3 -15 8.5 -45t7.5 -45q54 -19 96 -28
q34 -8 65 -9q39 0 60 6q28 7 42 19q-2 12 -14 36q-14 29 -19 36zM37 502q-1 6 -7 10q-2 2 -2 0q-1 -1 0 -5q7 -28 23 -98.5t26 -108.5q5 -18 14 -53.5t13 -53.5q3 -2 9 -5.5t9 -4.5q-12 34 -16 51q-5 19 -33.5 131.5t-35.5 136.5zM576 91q-13 -31 -45.5 -52.5t-69.5 -30.5
q-67 -16 -157 -2q-39 6 -74 15q-7 -15 -19 -18q-7 -1 -14 2q-7 -7 -16 -7q-23 -2 -37 8q-26 18 -34 55q-50 20 -94 43q-22 12 -28 37t7 46q12 21 36.5 27.5t45.5 -5.5l2 -2t2 -1q-3 21 -7 35q-22 112 -68 334q-1 2 -2.5 6t-1.5 5q-4 14 4.5 26t22.5 14q10 2 14 2
q6 18 31.5 26t46.5 6q31 -2 62.5 -18t50.5 -31.5t49 -44.5q99 -95 152 -156q30 -32 49 -57q44 -58 68 -106q49 -96 24 -156z" />
    <glyph glyph-name="Dcroat" unicode="&#x110;" horiz-adv-x="616" 
d="M268 271q-40 -4 -117 0t-109 12q-17 4 -22.5 15.5t2.5 22.5t24 13q13 3 54 3t92 -0.5t69 -0.5q24 1 35 -14t3 -31.5t-31 -19.5zM511 197q-30 46 -46 68q-48 64 -102 111q-55 51 -125 91q-12 6 -19 10q22 -106 46 -250q2 -15 7.5 -45t8.5 -45q54 -19 96 -28q34 -8 65 -9
q39 0 60 6q28 7 42 19q-2 12 -14 36q-14 29 -19 36zM87 502q-1 6 -7 10q-2 2 -2 0q-1 -1 0 -5q7 -28 23 -98.5t26 -108.5q5 -18 14 -53.5t13 -53.5q3 -2 9 -5.5t9 -4.5q-12 34 -16 51q-5 19 -33.5 131.5t-35.5 136.5zM626 91q-13 -31 -45.5 -52.5t-69.5 -30.5
q-67 -16 -157 -2q-39 6 -74 15q-7 -15 -19 -18q-7 -1 -14 2q-7 -7 -16 -7q-23 -2 -37 8q-26 18 -34 55q-50 20 -94 43q-22 12 -28 37t7 46q12 21 36.5 27.5t45.5 -5.5q1 -1 4 -3q-3 21 -7 35q-22 112 -68 334q-1 2 -2.5 6t-1.5 5q-4 14 4.5 26t22.5 14q10 2 14 2
q6 18 31.5 26t46.5 6q31 -2 62.5 -18t50.5 -31.5t49 -44.5q99 -95 152 -156q30 -32 49 -57q44 -58 68 -106q49 -96 24 -156z" />
    <glyph glyph-name="dcroat" unicode="&#x111;" horiz-adv-x="616" 
d="M268 271q-40 -4 -117 0t-109 12q-17 4 -22.5 15.5t2.5 22.5t24 13q13 3 54 3t92 -0.5t69 -0.5q24 1 35 -14t3 -31.5t-31 -19.5zM511 197q-30 46 -46 68q-48 64 -102 111q-55 51 -125 91q-12 6 -19 10q22 -106 46 -250q2 -15 7.5 -45t8.5 -45q54 -19 96 -28q34 -8 65 -9
q39 0 60 6q28 7 42 19q-2 12 -14 36q-14 29 -19 36zM87 502q-1 6 -7 10q-2 2 -2 0q-1 -1 0 -5q7 -28 23 -98.5t26 -108.5q5 -18 14 -53.5t13 -53.5q3 -2 9 -5.5t9 -4.5q-12 34 -16 51q-5 19 -33.5 131.5t-35.5 136.5zM626 91q-13 -31 -45.5 -52.5t-69.5 -30.5
q-67 -16 -157 -2q-39 6 -74 15q-7 -15 -19 -18q-7 -1 -14 2q-7 -7 -16 -7q-23 -2 -37 8q-26 18 -34 55q-50 20 -94 43q-22 12 -28 37t7 46q12 21 36.5 27.5t45.5 -5.5q1 -1 4 -3q-3 21 -7 35q-22 112 -68 334q-1 2 -2.5 6t-1.5 5q-4 14 4.5 26t22.5 14q10 2 14 2
q6 18 31.5 26t46.5 6q31 -2 62.5 -18t50.5 -31.5t49 -44.5q99 -95 152 -156q30 -32 49 -57q44 -58 68 -106q49 -96 24 -156z" />
    <glyph glyph-name="Emacron" unicode="&#x112;" 
d="M121 -13q27 -4 41 1q2 0 3 1q16 8 23 12q16 8 46 24v2q-36 -14 -55 -20q-46 -17 -58 -20zM343 330l-1 3q-16 -5 -47 -14.5t-46 -14.5q-47 -14 -58 -17q-3 -17 -16 -28q33 17 151 64q8 4 17 7zM23 528q75 40 212 76q4 1 11.5 3t11.5 3q82 16 125 19q9 1 27 1
q-69 -18 -118 -29q-136 -30 -202 -53q-30 -9 -67 -26q-4 2 0 6zM584 121q-2 -9 -10 -10q-117 -22 -219 -58q-68 -24 -101 -38h-1q-1 -1 -3.5 -2t-3.5 -1q-5 -3 -16.5 -7t-16.5 -7l-1 -1q-5 -4 -22.5 -10t-32 -10.5t-13.5 -3.5q-6 -1 -10 -1q-32 -6 -42 15q-3 6 -1 14
q-19 8 -29.5 27.5t-3.5 38.5q-4 22 -11 105l-12 120l-12 114q-19 21 -16 49t25 47l4 8q28 12 64 24q73 25 202 52q53 12 157 40q14 -2 20 -4t16 -6q3 -2 8.5 -6.5t7.5 -6.5q11 -35 6 -62q-16 -5 -50 -15q-39 -13 -68 -20q-4 -2 -6 -2q-134 -37 -161 -49q-51 -17 -95 -36
l-2 -2q0 -4 3.5 -26t3.5 -25q118 51 168 69q41 10 97 26q2 1 6.5 2t6.5 1q13 2 35 4q48 2 63 -24q1 -1 1.5 -2.5t1.5 -3t1 -2.5q4 -8 5 -12q1 -1 2 -1q13 -7 17 -25q3 -14 -4.5 -28.5t-21.5 -21.5q-9 -4 -20 -6.5t-24.5 -4t-21.5 -3.5q-39 -6 -73 -15q-80 -22 -142 -48
q-23 -10 -84 -40q1 -11 3 -32.5t3 -32.5v-4q1 0 1 1l2 1q22 10 66 28q56 22 85 33q30 12 45 17q48 18 72 26l39 12q6 1 16.5 5.5t15.5 5.5q27 6 47 -4.5t30.5 -33t15.5 -44.5t7 -47q1 -26 -19 -41zM319 667q-40 -6 -96 -7.5t-90 3.5q-18 3 -24 14.5t1 22.5t23 15q13 4 43 7
t72.5 5.5t58.5 4.5q24 2 36 -12t5 -31t-29 -22z" />
    <glyph glyph-name="emacron" unicode="&#x113;" 
d="M121 -13q27 -4 41 1q2 0 3 1q16 8 23 12q16 8 46 24v2q-36 -14 -55 -20q-46 -17 -58 -20zM343 330l-1 3q-16 -5 -47 -14.5t-46 -14.5q-47 -14 -58 -17q-3 -17 -16 -28q33 17 151 64q8 4 17 7zM23 528q75 40 212 76q4 1 11.5 3t11.5 3q82 16 125 19q9 1 27 1
q-69 -18 -118 -29q-136 -30 -202 -53q-30 -9 -67 -26q-4 2 0 6zM584 121q-2 -9 -10 -10q-117 -22 -219 -58q-68 -24 -101 -38h-1q-1 -1 -3.5 -2t-3.5 -1q-5 -3 -16.5 -7t-16.5 -7l-1 -1q-5 -4 -22.5 -10t-32 -10.5t-13.5 -3.5q-6 -1 -10 -1q-32 -6 -42 15q-3 6 -1 14
q-19 8 -29.5 27.5t-3.5 38.5q-4 22 -11 105l-12 120l-12 114q-19 21 -16 49t25 47l4 8q28 12 64 24q73 25 202 52q53 12 157 40q14 -2 20 -4t16 -6q3 -2 8.5 -6.5t7.5 -6.5q11 -35 6 -62q-16 -5 -50 -15q-39 -13 -68 -20q-4 -2 -6 -2q-134 -37 -161 -49q-51 -17 -95 -36
l-2 -2q0 -4 3.5 -26t3.5 -25q118 51 168 69q41 10 97 26q2 1 6.5 2t6.5 1q13 2 35 4q48 2 63 -24q1 -1 1.5 -2.5t1.5 -3t1 -2.5q4 -8 5 -12q1 -1 2 -1q13 -7 17 -25q3 -14 -4.5 -28.5t-21.5 -21.5q-9 -4 -20 -6.5t-24.5 -4t-21.5 -3.5q-39 -6 -73 -15q-80 -22 -142 -48
q-23 -10 -84 -40q1 -11 3 -32.5t3 -32.5v-4q1 0 1 1l2 1q22 10 66 28q56 22 85 33q30 12 45 17q48 18 72 26l39 12q6 1 16.5 5.5t15.5 5.5q27 6 47 -4.5t30.5 -33t15.5 -44.5t7 -47q1 -26 -19 -41zM319 667q-40 -6 -96 -7.5t-90 3.5q-18 3 -24 14.5t1 22.5t23 15q13 4 43 7
t72.5 5.5t58.5 4.5q24 2 36 -12t5 -31t-29 -22z" />
    <glyph glyph-name="Edotaccent" unicode="&#x116;" 
d="M121 -13q27 -4 41 1q2 0 3 1q16 8 23 12q16 8 46 24v2q-36 -14 -55 -20q-46 -17 -58 -20zM343 330l-1 3q-16 -5 -47 -14.5t-46 -14.5q-47 -14 -58 -17q-3 -17 -16 -28q33 17 151 64q8 4 17 7zM23 528q75 40 212 76q4 1 11.5 3t11.5 3q82 16 125 19q9 1 27 1
q-69 -18 -118 -29q-136 -30 -202 -53q-30 -9 -67 -26q-4 2 0 6zM584 121q-2 -9 -10 -10q-117 -22 -219 -58q-68 -24 -101 -38h-1q-1 -1 -3.5 -2t-3.5 -1q-5 -3 -16.5 -7t-16.5 -7l-1 -1q-5 -4 -22.5 -10t-32 -10.5t-13.5 -3.5q-6 -1 -10 -1q-32 -6 -42 15q-3 6 -1 14
q-19 8 -29.5 27.5t-3.5 38.5q-4 22 -11 105l-12 120l-12 114q-19 21 -16 49t25 47l4 8q28 12 64 24q73 25 202 52q53 12 157 40q14 -2 20 -4t16 -6q3 -2 8.5 -6.5t7.5 -6.5q11 -35 6 -62q-16 -5 -50 -15q-39 -13 -68 -20q-4 -2 -6 -2q-134 -37 -161 -49q-51 -17 -95 -36
l-2 -2q0 -4 3.5 -26t3.5 -25q118 51 168 69q41 10 97 26q2 1 6.5 2t6.5 1q13 2 35 4q48 2 63 -24q1 -1 1.5 -2.5t1.5 -3t1 -2.5q4 -8 5 -12q1 -1 2 -1q13 -7 17 -25q3 -14 -4.5 -28.5t-21.5 -21.5q-9 -4 -20 -6.5t-24.5 -4t-21.5 -3.5q-39 -6 -73 -15q-80 -22 -142 -48
q-23 -10 -84 -40q1 -11 3 -32.5t3 -32.5v-4q1 0 1 1l2 1q22 10 66 28q56 22 85 33q30 12 45 17q48 18 72 26l39 12q6 1 16.5 5.5t15.5 5.5q27 6 47 -4.5t30.5 -33t15.5 -44.5t7 -47q1 -26 -19 -41zM268 722q11 -12 4 -28v-2l-1 -2q-7 -22 -29.5 -30t-41.5 6q-2 1 -4 3
q-7 0 -10 7q-2 6 -2 10q-4 7 -4 17q0 11 6 21q6 8 12 12q1 0 3 1.5t3 2.5q11 9 22 8h5q27 -2 37 -26z" />
    <glyph glyph-name="edotaccent" unicode="&#x117;" 
d="M121 -13q27 -4 41 1q2 0 3 1q16 8 23 12q16 8 46 24v2q-36 -14 -55 -20q-46 -17 -58 -20zM343 330l-1 3q-16 -5 -47 -14.5t-46 -14.5q-47 -14 -58 -17q-3 -17 -16 -28q33 17 151 64q8 4 17 7zM23 528q75 40 212 76q4 1 11.5 3t11.5 3q82 16 125 19q9 1 27 1
q-69 -18 -118 -29q-136 -30 -202 -53q-30 -9 -67 -26q-4 2 0 6zM584 121q-2 -9 -10 -10q-117 -22 -219 -58q-68 -24 -101 -38h-1q-1 -1 -3.5 -2t-3.5 -1q-5 -3 -16.5 -7t-16.5 -7l-1 -1q-5 -4 -22.5 -10t-32 -10.5t-13.5 -3.5q-6 -1 -10 -1q-32 -6 -42 15q-3 6 -1 14
q-19 8 -29.5 27.5t-3.5 38.5q-4 22 -11 105l-12 120l-12 114q-19 21 -16 49t25 47l4 8q28 12 64 24q73 25 202 52q53 12 157 40q14 -2 20 -4t16 -6q3 -2 8.5 -6.5t7.5 -6.5q11 -35 6 -62q-16 -5 -50 -15q-39 -13 -68 -20q-4 -2 -6 -2q-134 -37 -161 -49q-51 -17 -95 -36
l-2 -2q0 -4 3.5 -26t3.5 -25q118 51 168 69q41 10 97 26q2 1 6.5 2t6.5 1q13 2 35 4q48 2 63 -24q1 -1 1.5 -2.5t1.5 -3t1 -2.5q4 -8 5 -12q1 -1 2 -1q13 -7 17 -25q3 -14 -4.5 -28.5t-21.5 -21.5q-9 -4 -20 -6.5t-24.5 -4t-21.5 -3.5q-39 -6 -73 -15q-80 -22 -142 -48
q-23 -10 -84 -40q1 -11 3 -32.5t3 -32.5v-4q1 0 1 1l2 1q22 10 66 28q56 22 85 33q30 12 45 17q48 18 72 26l39 12q6 1 16.5 5.5t15.5 5.5q27 6 47 -4.5t30.5 -33t15.5 -44.5t7 -47q1 -26 -19 -41zM268 722q11 -12 4 -28v-2l-1 -2q-7 -22 -29.5 -30t-41.5 6q-2 1 -4 3
q-7 0 -10 7q-2 6 -2 10q-4 7 -4 17q0 11 6 21q6 8 12 12q1 0 3 1.5t3 2.5q11 9 22 8h5q27 -2 37 -26z" />
    <glyph glyph-name="Eogonek" unicode="&#x118;" 
d="M23 552q-4 2 0 6q75 40 212 76l23 6q82 16 125 19q9 1 27 1q-69 -18 -118 -29q-136 -30 -202 -53q-30 -9 -67 -26zM580 -14q22 0 32.5 -17.5t5.5 -37.5t-22 -26q-30 -11 -64 -3.5t-57 32.5q-33 39 -30 91.5t37 95.5q-73 -19 -127 -38q-68 -24 -101 -38h-1q-1 -1 -3.5 -2
t-3.5 -1q-5 -3 -16.5 -7.5t-16.5 -6.5l-1 -1q-5 -4 -22.5 -10t-32 -10.5t-13.5 -3.5q-6 -1 -10 -1q-32 -6 -42 15q-3 6 -1 14q-19 8 -29.5 27.5t-3.5 38.5q-4 22 -11 105l-12 120l-12 114q-19 21 -16 49t25 47l4 8q28 12 64 24q73 25 202 52q53 12 157 40q14 -2 20 -4l16 -6
q3 -2 8.5 -6.5t7.5 -6.5q11 -35 6 -62l-50 -15q-39 -13 -68 -20q-4 -2 -6 -2q-134 -37 -161 -49q-51 -17 -95 -36l-2 -2q0 -4 3.5 -26t3.5 -25q118 51 168 69q41 10 97 26l13 3q13 2 35 4q48 2 63 -24q1 -1 1.5 -2.5t1.5 -3t1 -2.5q4 -8 5 -12q1 -1 2 -1q13 -7 17 -25
q3 -14 -4.5 -28.5t-21.5 -21.5q-9 -4 -20 -6.5t-24.5 -4t-21.5 -3.5q-39 -6 -73 -15q-80 -22 -142 -48q-23 -10 -84 -40l6 -65v-4l3 2q22 10 66 28l85 33q30 12 45 17q48 18 72 26l39 12q6 1 16.5 5.5t15.5 5.5q27 6 47 -4.5t30.5 -33t15.5 -44.5t7 -47q2 -32 -4 -38
q-53 -42 -71 -99t25 -68q11 -3 27 -1zM191 317q-3 -17 -16 -28q33 17 151 64q8 4 17 7l-1 3q-16 -5 -47 -14.5t-46 -14.5q-47 -14 -58 -17zM234 55v2q-36 -14 -55 -20q-46 -17 -58 -20q27 -4 41 1q2 0 3 1q16 8 23 12q16 8 46 24z" />
    <glyph glyph-name="eogonek" unicode="&#x119;" 
d="M23 552q-4 2 0 6q75 40 212 76l23 6q82 16 125 19q9 1 27 1q-69 -18 -118 -29q-136 -30 -202 -53q-30 -9 -67 -26zM580 -14q22 0 32.5 -17.5t5.5 -37.5t-22 -26q-30 -11 -64 -3.5t-57 32.5q-33 39 -30 91.5t37 95.5q-73 -19 -127 -38q-68 -24 -101 -38h-1q-1 -1 -3.5 -2
t-3.5 -1q-5 -3 -16.5 -7.5t-16.5 -6.5l-1 -1q-5 -4 -22.5 -10t-32 -10.5t-13.5 -3.5q-6 -1 -10 -1q-32 -6 -42 15q-3 6 -1 14q-19 8 -29.5 27.5t-3.5 38.5q-4 22 -11 105l-12 120l-12 114q-19 21 -16 49t25 47l4 8q28 12 64 24q73 25 202 52q53 12 157 40q14 -2 20 -4l16 -6
q3 -2 8.5 -6.5t7.5 -6.5q11 -35 6 -62l-50 -15q-39 -13 -68 -20q-4 -2 -6 -2q-134 -37 -161 -49q-51 -17 -95 -36l-2 -2q0 -4 3.5 -26t3.5 -25q118 51 168 69q41 10 97 26l13 3q13 2 35 4q48 2 63 -24q1 -1 1.5 -2.5t1.5 -3t1 -2.5q4 -8 5 -12q1 -1 2 -1q13 -7 17 -25
q3 -14 -4.5 -28.5t-21.5 -21.5q-9 -4 -20 -6.5t-24.5 -4t-21.5 -3.5q-39 -6 -73 -15q-80 -22 -142 -48q-23 -10 -84 -40l6 -65v-4l3 2q22 10 66 28l85 33q30 12 45 17q48 18 72 26l39 12q6 1 16.5 5.5t15.5 5.5q27 6 47 -4.5t30.5 -33t15.5 -44.5t7 -47q2 -32 -4 -38
q-53 -42 -71 -99t25 -68q11 -3 27 -1zM191 317q-3 -17 -16 -28q33 17 151 64q8 4 17 7l-1 3q-16 -5 -47 -14.5t-46 -14.5q-47 -14 -58 -17zM234 55v2q-36 -14 -55 -20q-46 -17 -58 -20q27 -4 41 1q2 0 3 1q16 8 23 12q16 8 46 24z" />
    <glyph glyph-name="Ecaron" unicode="&#x11a;" 
d="M121 -13q27 -4 41 1q2 0 3 1q16 8 23 12q16 8 46 24v2q-36 -14 -55 -20q-46 -17 -58 -20zM343 330l-1 3q-16 -5 -47 -14.5t-46 -14.5q-47 -14 -58 -17q-3 -17 -16 -28q33 17 151 64q8 4 17 7zM23 528q75 40 212 76q4 1 11.5 3t11.5 3q82 16 125 19q9 1 27 1
q-69 -18 -118 -29q-136 -30 -202 -53q-30 -9 -67 -26q-4 2 0 6zM584 121q-2 -9 -10 -10q-117 -22 -219 -58q-68 -24 -101 -38h-1q-1 -1 -3.5 -2t-3.5 -1q-5 -3 -16.5 -7t-16.5 -7l-1 -1q-5 -4 -22.5 -10t-32 -10.5t-13.5 -3.5q-6 -1 -10 -1q-32 -6 -42 15q-3 6 -1 14
q-19 8 -29.5 27.5t-3.5 38.5q-4 22 -11 105l-12 120l-12 114q-19 21 -16 49t25 47l4 8q28 12 64 24q73 25 202 52q53 12 157 40q14 -2 20 -4t16 -6q3 -2 8.5 -6.5t7.5 -6.5q11 -35 6 -62q-16 -5 -50 -15q-39 -13 -68 -20q-4 -2 -6 -2q-134 -37 -161 -49q-51 -17 -95 -36
l-2 -2q0 -4 3.5 -26t3.5 -25q118 51 168 69q41 10 97 26q2 1 6.5 2t6.5 1q13 2 35 4q48 2 63 -24q1 -1 1.5 -2.5t1.5 -3t1 -2.5q4 -8 5 -12q1 -1 2 -1q13 -7 17 -25q3 -14 -4.5 -28.5t-21.5 -21.5q-9 -4 -20 -6.5t-24.5 -4t-21.5 -3.5q-39 -6 -73 -15q-80 -22 -142 -48
q-23 -10 -84 -40q1 -11 3 -32.5t3 -32.5v-4q1 0 1 1l2 1q22 10 66 28q56 22 85 33q30 12 45 17q48 18 72 26l39 12q6 1 16.5 5.5t15.5 5.5q27 6 47 -4.5t30.5 -33t15.5 -44.5t7 -47q1 -26 -19 -41zM296 764q29 25 57 14q23 -10 10 -31q-2 -4 -6 -8q-5 -5 -16.5 -18.5
t-19.5 -23t-21.5 -20.5t-25 -16.5t-26.5 -5.5t-29 8q-25 14 -57.5 52.5t-32.5 56.5q0 13 21 17.5t27 -4.5q11 -14 28.5 -32t23.5 -27q9 -13 14.5 -16.5t10.5 1t9.5 12t13.5 20t19 21.5z" />
    <glyph glyph-name="ecaron" unicode="&#x11b;" 
d="M121 -13q27 -4 41 1q2 0 3 1q16 8 23 12q16 8 46 24v2q-36 -14 -55 -20q-46 -17 -58 -20zM343 330l-1 3q-16 -5 -47 -14.5t-46 -14.5q-47 -14 -58 -17q-3 -17 -16 -28q33 17 151 64q8 4 17 7zM23 528q75 40 212 76q4 1 11.5 3t11.5 3q82 16 125 19q9 1 27 1
q-69 -18 -118 -29q-136 -30 -202 -53q-30 -9 -67 -26q-4 2 0 6zM584 121q-2 -9 -10 -10q-117 -22 -219 -58q-68 -24 -101 -38h-1q-1 -1 -3.5 -2t-3.5 -1q-5 -3 -16.5 -7t-16.5 -7l-1 -1q-5 -4 -22.5 -10t-32 -10.5t-13.5 -3.5q-6 -1 -10 -1q-32 -6 -42 15q-3 6 -1 14
q-19 8 -29.5 27.5t-3.5 38.5q-4 22 -11 105l-12 120l-12 114q-19 21 -16 49t25 47l4 8q28 12 64 24q73 25 202 52q53 12 157 40q14 -2 20 -4t16 -6q3 -2 8.5 -6.5t7.5 -6.5q11 -35 6 -62q-16 -5 -50 -15q-39 -13 -68 -20q-4 -2 -6 -2q-134 -37 -161 -49q-51 -17 -95 -36
l-2 -2q0 -4 3.5 -26t3.5 -25q118 51 168 69q41 10 97 26q2 1 6.5 2t6.5 1q13 2 35 4q48 2 63 -24q1 -1 1.5 -2.5t1.5 -3t1 -2.5q4 -8 5 -12q1 -1 2 -1q13 -7 17 -25q3 -14 -4.5 -28.5t-21.5 -21.5q-9 -4 -20 -6.5t-24.5 -4t-21.5 -3.5q-39 -6 -73 -15q-80 -22 -142 -48
q-23 -10 -84 -40q1 -11 3 -32.5t3 -32.5v-4q1 0 1 1l2 1q22 10 66 28q56 22 85 33q30 12 45 17q48 18 72 26l39 12q6 1 16.5 5.5t15.5 5.5q27 6 47 -4.5t30.5 -33t15.5 -44.5t7 -47q1 -26 -19 -41zM296 764q29 25 57 14q23 -10 10 -31q-2 -4 -6 -8q-5 -5 -16.5 -18.5
t-19.5 -23t-21.5 -20.5t-25 -16.5t-26.5 -5.5t-29 8q-25 14 -57.5 52.5t-32.5 56.5q0 13 21 17.5t27 -4.5q11 -14 28.5 -32t23.5 -27q9 -13 14.5 -16.5t10.5 1t9.5 12t13.5 20t19 21.5z" />
    <glyph glyph-name="Gbreve" unicode="&#x11e;" horiz-adv-x="560" 
d="M556 405q-22 -58 -48 -99q-38 -63 -90 -110q-32 -34 -60 -53q-60 -42 -118 -57q-2 0 -5.5 -1t-5.5 -2q-35 -10 -67 -10q11 -12 77 4q35 9 67 26q48 23 120 89.5t116 161.5q2 -4 4 -6q-1 -5 -3.5 -15l-4.5 -18t-4 -15l-3 -9l-6 -12q-54 -84 -120 -137q-72 -56 -145 -73
q-39 -9 -79 -9q-23 3 -24 13q-35 2 -58 16q-33 19 -53 57q-40 43 -47 101q-16 108 77 216q76 88 173 118q2 10 13 13q132 35 225 16q72 -14 59 -52q-4 -12 -25 -16q2 -5 -1 -9t-8 -4q-11 0 -33 -0.5t-34 0.5q-33 0 -60 -4q-61 -9 -116 -38q-97 -53 -143 -152
q-27 -58 -27 -105q-2 -56 32 -77q2 -1 6.5 -2t6.5 -1q34 -6 72 4q4 1 11 3.5t9 3.5q49 21 88 59q41 40 74 93q10 16 28 48h-4q-11 -3 -33 -7.5t-33 -6.5q-20 -4 -42.5 -10.5t-49 -14t-42.5 -11.5q-32 -8 -45.5 23.5t15.5 47.5l6 3q-4 31 25 38q1 1 2 1q2 1 3 1q65 19 137 36
q110 26 139 30q19 2 35 -7t21 -27q7 -23 -4 -52zM445 696q-40 -64 -102 -55q-30 4 -56 22.5t-35 47.5q-5 16 11.5 26t28.5 -4q22 -26 50 -29q32 -3 57 33q7 10 22 11.5t21 -6.5q18 -24 3 -46z" />
    <glyph glyph-name="gbreve" unicode="&#x11f;" horiz-adv-x="560" 
d="M556 405q-22 -58 -48 -99q-38 -63 -90 -110q-32 -34 -60 -53q-60 -42 -118 -57q-2 0 -5.5 -1t-5.5 -2q-35 -10 -67 -10q11 -12 77 4q35 9 67 26q48 23 120 89.5t116 161.5q2 -4 4 -6q-1 -5 -3.5 -15l-4.5 -18t-4 -15l-3 -9l-6 -12q-54 -84 -120 -137q-72 -56 -145 -73
q-39 -9 -79 -9q-23 3 -24 13q-35 2 -58 16q-33 19 -53 57q-40 43 -47 101q-16 108 77 216q76 88 173 118q2 10 13 13q132 35 225 16q72 -14 59 -52q-4 -12 -25 -16q2 -5 -1 -9t-8 -4q-11 0 -33 -0.5t-34 0.5q-33 0 -60 -4q-61 -9 -116 -38q-97 -53 -143 -152
q-27 -58 -27 -105q-2 -56 32 -77q2 -1 6.5 -2t6.5 -1q34 -6 72 4q4 1 11 3.5t9 3.5q49 21 88 59q41 40 74 93q10 16 28 48h-4q-11 -3 -33 -7.5t-33 -6.5q-20 -4 -42.5 -10.5t-49 -14t-42.5 -11.5q-32 -8 -45.5 23.5t15.5 47.5l6 3q-4 31 25 38q1 1 2 1q2 1 3 1q65 19 137 36
q110 26 139 30q19 2 35 -7t21 -27q7 -23 -4 -52zM445 696q-40 -64 -102 -55q-30 4 -56 22.5t-35 47.5q-5 16 11.5 26t28.5 -4q22 -26 50 -29q32 -3 57 33q7 10 22 11.5t21 -6.5q18 -24 3 -46z" />
    <glyph glyph-name="Gdotaccent" unicode="&#x120;" horiz-adv-x="560" 
d="M556 405q-22 -58 -48 -99q-38 -63 -90 -110q-32 -34 -60 -53q-60 -42 -118 -57q-2 0 -5.5 -1t-5.5 -2q-35 -10 -67 -10q11 -12 77 4q35 9 67 26q48 23 120 89.5t116 161.5q2 -4 4 -6q-1 -5 -3.5 -15l-4.5 -18t-4 -15l-3 -9l-6 -12q-54 -84 -120 -137q-72 -56 -145 -73
q-39 -9 -79 -9q-23 3 -24 13q-35 2 -58 16q-33 19 -53 57q-40 43 -47 101q-16 108 77 216q76 88 173 118q2 10 13 13q132 35 225 16q72 -14 59 -52q-4 -12 -25 -16q2 -5 -1 -9t-8 -4q-11 0 -33 -0.5t-34 0.5q-33 0 -60 -4q-61 -9 -116 -38q-97 -53 -143 -152
q-27 -58 -27 -105q-2 -56 32 -77q2 -1 6.5 -2t6.5 -1q34 -6 72 4q4 1 11 3.5t9 3.5q49 21 88 59q41 40 74 93q10 16 28 48h-4q-11 -3 -33 -7.5t-33 -6.5q-20 -4 -42.5 -10.5t-49 -14t-42.5 -11.5q-32 -8 -45.5 23.5t15.5 47.5l6 3q-4 31 25 38q1 1 2 1q2 1 3 1q65 19 137 36
q110 26 139 30q19 2 35 -7t21 -27q7 -23 -4 -52zM375 709q11 -12 4 -28q0 -1 -0.5 -2t-0.5 -2q-7 -22 -29.5 -30t-41.5 6q-2 1 -4 3q-7 0 -10 7q-2 6 -2 10q-4 7 -4 17t6 21q6 7 12 12q1 1 3 2t3 2q11 9 22 8h5q27 -2 37 -26z" />
    <glyph glyph-name="gdotaccent" unicode="&#x121;" horiz-adv-x="560" 
d="M556 405q-22 -58 -48 -99q-38 -63 -90 -110q-32 -34 -60 -53q-60 -42 -118 -57q-2 0 -5.5 -1t-5.5 -2q-35 -10 -67 -10q11 -12 77 4q35 9 67 26q48 23 120 89.5t116 161.5q2 -4 4 -6q-1 -5 -3.5 -15l-4.5 -18t-4 -15l-3 -9l-6 -12q-54 -84 -120 -137q-72 -56 -145 -73
q-39 -9 -79 -9q-23 3 -24 13q-35 2 -58 16q-33 19 -53 57q-40 43 -47 101q-16 108 77 216q76 88 173 118q2 10 13 13q132 35 225 16q72 -14 59 -52q-4 -12 -25 -16q2 -5 -1 -9t-8 -4q-11 0 -33 -0.5t-34 0.5q-33 0 -60 -4q-61 -9 -116 -38q-97 -53 -143 -152
q-27 -58 -27 -105q-2 -56 32 -77q2 -1 6.5 -2t6.5 -1q34 -6 72 4q4 1 11 3.5t9 3.5q49 21 88 59q41 40 74 93q10 16 28 48h-4q-11 -3 -33 -7.5t-33 -6.5q-20 -4 -42.5 -10.5t-49 -14t-42.5 -11.5q-32 -8 -45.5 23.5t15.5 47.5l6 3q-4 31 25 38q1 1 2 1q2 1 3 1q65 19 137 36
q110 26 139 30q19 2 35 -7t21 -27q7 -23 -4 -52zM375 709q11 -12 4 -28q0 -1 -0.5 -2t-0.5 -2q-7 -22 -29.5 -30t-41.5 6q-2 1 -4 3q-7 0 -10 7q-2 6 -2 10q-4 7 -4 17t6 21q6 7 12 12q1 1 3 2t3 2q11 9 22 8h5q27 -2 37 -26z" />
    <glyph glyph-name="Gcommaaccent" unicode="&#x122;" horiz-adv-x="570" 
d="M556 405q-22 -58 -48 -99q-38 -63 -90 -110q-32 -34 -60 -53q-60 -42 -118 -57q-2 0 -5.5 -1t-5.5 -2q-35 -10 -67 -10q11 -12 77 4q35 9 67 26q48 23 120 89.5t116 161.5q2 -4 4 -6q-1 -5 -3.5 -15l-4.5 -18t-4 -15l-3 -9l-6 -12q-54 -84 -120 -137q-72 -56 -145 -73
q-39 -9 -79 -9q-23 3 -24 13q-35 2 -58 16q-33 19 -53 57q-40 43 -47 101q-16 108 77 216q76 88 173 118q2 10 13 13q132 35 225 16q72 -14 59 -52q-4 -12 -25 -16q2 -5 -1 -9t-8 -4q-11 0 -33 -0.5t-34 0.5q-33 0 -60 -4q-61 -9 -116 -38q-97 -53 -143 -152
q-27 -58 -27 -105q-2 -56 32 -77q2 -1 6.5 -2t6.5 -1q34 -6 72 4q4 1 11 3.5t9 3.5q49 21 88 59q41 40 74 93q10 16 28 48h-4q-11 -3 -33 -7.5t-33 -6.5q-20 -4 -42.5 -10.5t-49 -14t-42.5 -11.5q-32 -8 -45.5 23.5t15.5 47.5l6 3q-4 31 25 38q1 1 2 1q2 1 3 1q65 19 137 36
q110 26 139 30q19 2 35 -7t21 -27q7 -23 -4 -52zM303 667q-17 26 -2 52v3q4 14 21.5 37.5t37.5 37.5q8 5 17.5 -6.5t3.5 -18.5q-14 -12 -20 -31q-2 -1 -2 -3q19 0 26 -21t-2.5 -44t-30.5 -27q-8 -5 -23 -1.5t-26 22.5z" />
    <glyph glyph-name="gcommaaccent" unicode="&#x123;" horiz-adv-x="570" 
d="M556 405q-22 -58 -48 -99q-38 -63 -90 -110q-32 -34 -60 -53q-60 -42 -118 -57q-2 0 -5.5 -1t-5.5 -2q-35 -10 -67 -10q11 -12 77 4q35 9 67 26q48 23 120 89.5t116 161.5q2 -4 4 -6q-1 -5 -3.5 -15l-4.5 -18t-4 -15l-3 -9l-6 -12q-54 -84 -120 -137q-72 -56 -145 -73
q-39 -9 -79 -9q-23 3 -24 13q-35 2 -58 16q-33 19 -53 57q-40 43 -47 101q-16 108 77 216q76 88 173 118q2 10 13 13q132 35 225 16q72 -14 59 -52q-4 -12 -25 -16q2 -5 -1 -9t-8 -4q-11 0 -33 -0.5t-34 0.5q-33 0 -60 -4q-61 -9 -116 -38q-97 -53 -143 -152
q-27 -58 -27 -105q-2 -56 32 -77q2 -1 6.5 -2t6.5 -1q34 -6 72 4q4 1 11 3.5t9 3.5q49 21 88 59q41 40 74 93q10 16 28 48h-4q-11 -3 -33 -7.5t-33 -6.5q-20 -4 -42.5 -10.5t-49 -14t-42.5 -11.5q-32 -8 -45.5 23.5t15.5 47.5l6 3q-4 31 25 38q1 1 2 1q2 1 3 1q65 19 137 36
q110 26 139 30q19 2 35 -7t21 -27q7 -23 -4 -52zM303 667q-17 26 -2 52v3q4 14 21.5 37.5t37.5 37.5q8 5 17.5 -6.5t3.5 -18.5q-14 -12 -20 -31q-2 -1 -2 -3q19 0 26 -21t-2.5 -44t-30.5 -27q-8 -5 -23 -1.5t-26 22.5z" />
    <glyph glyph-name="Hbar" unicode="&#x126;" horiz-adv-x="550" 
d="M503 406q28 -9 33 -40.5t-15 -51.5v-3q-2 -17 -16.5 -27t-31.5 -8q-2 -52 -8 -148q-4 -47 -7 -73q-8 -56 -28 -68q0 -1 -1 -1q-4 -6 -13 -11q-27 -16 -47 9q-10 11 -12 40q-5 59 -6 116q-3 57 -3 115v37h-20q-58 0 -115 -3q2 -58 2 -87q0 -72 -5 -99v-3q0 -4 -1 -12.5
t-1 -12.5q-5 -40 -17 -53q-18 -21 -42.5 -20.5t-38.5 25.5q-3 5 -7 15q-13 0 -13 11q-2 24 -10 223l-10 -4q-26 -11 -44.5 12.5t-0.5 47.5q5 8 16 17q11 18 36 26l-3 87h-20q-18 2 -25 12.5t-0.5 22.5t22.5 17q8 3 21 4q-3 107 -2 121q1 1 3 0q10 -47 15 -119l15 2
q-3 46 -9 91q-2 17 8.5 31t27.5 16q16 2 31 -8.5t16 -27.5v-2q5 0 11 -3q12 -5 15 -32l3 -48v-6l140 13q-12 69 23 93q22 16 50 12.5t42 -27.5q12 -20 16 -64l5 1q18 3 30 -4.5t15 -19t-4.5 -23.5t-23.5 -17l-21 -4q2 -29 0 -59v-22q5 -1 13.5 -3t11.5 -3zM322 413q6 1 16 2
t16 2l-4 63q-78 -7 -139 -11l4 -67h2q35 5 105 11zM105 382h2q0 27 -2 81l-11 -1q6 -56 8 -83l1 1q1 2 2 2zM348 314v5q-66 2 -99 0q-5 0 -16 -0.5t-17 -0.5q-2 -4 -4 -5v-4q58 6 116 6q7 -1 20 -1z" />
    <glyph glyph-name="hbar" unicode="&#x127;" horiz-adv-x="551" 
d="M503 406q28 -9 33 -40.5t-15 -51.5v-3q-2 -17 -16.5 -27t-31.5 -8q-2 -52 -8 -148q-4 -47 -7 -73q-8 -56 -28 -68q0 -1 -1 -1q-4 -6 -13 -11q-27 -16 -47 9q-10 11 -12 40q-5 59 -6 116q-3 57 -3 115v37h-20q-58 0 -115 -3q2 -58 2 -87q0 -72 -5 -99v-3q0 -4 -1 -12.5
t-1 -12.5q-5 -40 -17 -53q-18 -21 -42.5 -20.5t-38.5 25.5q-3 5 -7 15q-13 0 -13 11q-2 24 -10 223l-10 -4q-26 -11 -44.5 12.5t-0.5 47.5q5 8 16 17q11 18 36 26l-3 87h-20q-18 2 -25 12.5t-0.5 22.5t22.5 17q8 3 21 4q-3 107 -2 121q1 1 3 0q10 -47 15 -119l15 2
q-3 46 -9 91q-2 17 8.5 31t27.5 16q16 2 31 -8.5t16 -27.5v-2q5 0 11 -3q12 -5 15 -32l3 -48v-6l140 13q-12 69 23 93q22 16 50 12.5t42 -27.5q12 -20 16 -64l5 1q18 3 30 -4.5t15 -19t-4.5 -23.5t-23.5 -17l-21 -4q2 -29 0 -59v-22q5 -1 13.5 -3t11.5 -3zM322 413q6 1 16 2
t16 2l-4 63q-78 -7 -139 -11l4 -67h2q35 5 105 11zM105 382h2q0 27 -2 81l-11 -1q6 -56 8 -83l1 1q1 2 2 2zM348 314v5q-66 2 -99 0q-5 0 -16 -0.5t-17 -0.5q-2 -4 -4 -5v-4q58 6 116 6q7 -1 20 -1z" />
    <glyph glyph-name="Imacron" unicode="&#x12a;" horiz-adv-x="210" 
d="M195 53q-7 -12 -21 -17q2 -14 -10 -19q-18 -9 -38.5 -5t-34.5 18q-1 0 -1 1t-1 2q-7 3 -15 9q-5 5 -9 11t-6 11.5t-4 14t-3 13t-2.5 15t-1.5 13.5q-14 118 -13 223q0 82 3 109q5 34 21 50q2 4 8 10q15 10 21.5 14t23 11.5t27 3.5t16.5 -18q14 2 16 -12q0 -18 -1 -54.5
t-1 -55.5q0 -16 0.5 -34.5t1.5 -41t1 -34.5q0 -7 2 -25q1 0 2 -8.5t2.5 -17t2.5 -8.5q-6 131 1 247l7 2q-6 -211 23 -427q0 -5 -3.5 -7t-8 -0.5t-5.5 6.5zM84 461q-4 -13 -7 -27t-4.5 -31t-2 -27.5t-1.5 -31t-1 -27.5v-10v-2q2 -24 8 -72h3l-1 67q0 68 1 68q0 65 13 103h-1
q-7 -5 -7 -10zM209 581q-40 -6 -96 -7.5t-90 3.5q-18 3 -24 14.5t1 22.5t23 15q13 4 43 7t72.5 5.5t58.5 4.5q24 2 36 -12t5 -31t-29 -22z" />
    <glyph glyph-name="imacron" unicode="&#x12b;" horiz-adv-x="210" 
d="M195 53q-7 -12 -21 -17q2 -14 -10 -19q-18 -9 -38.5 -5t-34.5 18q-1 0 -1 1t-1 2q-7 3 -15 9q-5 5 -9 11t-6 11.5t-4 14t-3 13t-2.5 15t-1.5 13.5q-14 118 -13 223q0 82 3 109q5 34 21 50q2 4 8 10q15 10 21.5 14t23 11.5t27 3.5t16.5 -18q14 2 16 -12q0 -18 -1 -54.5
t-1 -55.5q0 -16 0.5 -34.5t1.5 -41t1 -34.5q0 -7 2 -25q1 0 2 -8.5t2.5 -17t2.5 -8.5q-6 131 1 247l7 2q-6 -211 23 -427q0 -5 -3.5 -7t-8 -0.5t-5.5 6.5zM84 461q-4 -13 -7 -27t-4.5 -31t-2 -27.5t-1.5 -31t-1 -27.5v-10v-2q2 -24 8 -72h3l-1 67q0 68 1 68q0 65 13 103h-1
q-7 -5 -7 -10zM209 581q-40 -6 -96 -7.5t-90 3.5q-18 3 -24 14.5t1 22.5t23 15q13 4 43 7t72.5 5.5t58.5 4.5q24 2 36 -12t5 -31t-29 -22z" />
    <glyph glyph-name="Iogonek" unicode="&#x12e;" horiz-adv-x="210" 
d="M185 -119q22 0 32.5 -17.5t5.5 -37.5t-22 -26q-30 -11 -64 -3.5t-57 32.5q-36 41 -30 97.5t46 99.5l-5 4q-1 0 -1 1t-1 2q-7 3 -15 9q-5 5 -9 11t-6 11.5t-4 14t-3 13t-2.5 15t-1.5 13.5q-14 118 -13 223q0 82 3 109q5 34 21 50q2 4 8 10q15 10 21.5 14t23 11.5t27 3.5
t16.5 -18q14 2 16 -12q0 -18 -1 -54.5t-1 -55.5q0 -16 0.5 -34.5t1.5 -41t1 -34.5q0 -7 2 -25q1 0 2 -8.5t2.5 -17t2.5 -8.5q-6 131 1 247l7 2q-3 -94 4.5 -254.5t7.5 -180.5q-52 -42 -69 -98q-16 -57 27 -66q11 -3 26 -1zM79 368q0 65 13 103h-1q-7 -5 -7 -10
q-4 -13 -7 -27t-4.5 -31t-2 -27.5t-1.5 -31t-1 -27.5v-10v-2q2 -24 8 -72h3l-1 67q0 68 1 68z" />
    <glyph glyph-name="iogonek" unicode="&#x12f;" horiz-adv-x="210" 
d="M185 -119q22 0 32.5 -17.5t5.5 -37.5t-22 -26q-30 -11 -64 -3.5t-57 32.5q-36 41 -30 97.5t46 99.5l-5 4q-1 0 -1 1t-1 2q-7 3 -15 9q-5 5 -9 11t-6 11.5t-4 14t-3 13t-2.5 15t-1.5 13.5q-14 118 -13 223q0 82 3 109q5 34 21 50q2 4 8 10q15 10 21.5 14t23 11.5t27 3.5
t16.5 -18q14 2 16 -12q0 -18 -1 -54.5t-1 -55.5q0 -16 0.5 -34.5t1.5 -41t1 -34.5q0 -7 2 -25q1 0 2 -8.5t2.5 -17t2.5 -8.5q-6 131 1 247l7 2q-3 -94 4.5 -254.5t7.5 -180.5q-52 -42 -69 -98q-16 -57 27 -66q11 -3 26 -1zM79 368q0 65 13 103h-1q-7 -5 -7 -10
q-4 -13 -7 -27t-4.5 -31t-2 -27.5t-1.5 -31t-1 -27.5v-10v-2q2 -24 8 -72h3l-1 67q0 68 1 68z" />
    <glyph glyph-name="Idotaccent" unicode="&#x130;" horiz-adv-x="210" 
d="M195 53q-7 -12 -21 -17q2 -14 -10 -19q-18 -9 -38.5 -5t-34.5 18q-1 0 -1 1t-1 2q-7 3 -15 9q-5 5 -9 11t-6 11.5t-4 14t-3 13t-2.5 15t-1.5 13.5q-14 118 -13 223q0 82 3 109q5 34 21 50q2 4 8 10q15 10 21.5 14t23 11.5t27 3.5t16.5 -18q14 2 16 -12q0 -18 -1 -54.5
t-1 -55.5q0 -16 0.5 -34.5t1.5 -41t1 -34.5q0 -7 2 -25q1 0 2 -8.5t2.5 -17t2.5 -8.5q-6 131 1 247l7 2q-6 -211 23 -427q0 -5 -3.5 -7t-8 -0.5t-5.5 6.5zM84 461q-4 -13 -7 -27t-4.5 -31t-2 -27.5t-1.5 -31t-1 -27.5v-10v-2q2 -24 8 -72h3l-1 67q0 68 1 68q0 65 13 103h-1
q-7 -5 -7 -10zM150 635q11 -12 4 -28q0 -1 -0.5 -2t-0.5 -2q-7 -22 -29.5 -30t-41.5 6q-2 1 -4 3q-7 0 -10 7q-2 6 -2 10q-4 7 -4 17t6 21q6 7 12 12q1 0 3 1.5t3 2.5q11 9 22 8h5q27 -2 37 -26z" />
    <glyph glyph-name="dotlessi" unicode="&#x131;" horiz-adv-x="210" 
d="M195 53q-7 -12 -21 -17q2 -14 -10 -19q-18 -9 -38.5 -5t-34.5 18q-1 0 -1 1t-1 2q-7 3 -15 9q-5 5 -9 11t-6 11.5t-4 14t-3 13t-2.5 15t-1.5 13.5q-14 118 -13 223q0 82 3 109q5 34 21 50q2 4 8 10q15 10 21.5 14t23 11.5t27 3.5t16.5 -18q14 2 16 -12q0 -18 -1 -54.5
t-1 -55.5q0 -16 0.5 -34.5t1.5 -41t1 -34.5q0 -7 2 -25q1 0 2 -8.5t2.5 -17t2.5 -8.5q-6 131 1 247l7 2q-6 -211 23 -427q0 -5 -3.5 -7t-8 -0.5t-5.5 6.5zM84 461q-4 -13 -7 -27t-4.5 -31t-2 -27.5t-1.5 -31t-1 -27.5v-10v-2q2 -24 8 -72h3l-1 67q0 68 1 68q0 65 13 103h-1
q-7 -5 -7 -10z" />
    <glyph glyph-name="IJ" unicode="&#x132;" horiz-adv-x="670" 
d="M81 553q13 0 21.5 2.5t11.5 4.5t2 2q-22 -6 -48 -1q-21 4 -29.5 19t-0.5 33q-7 -8 -13 -19q-7 -15 3 -23t19 -11q15 -5 34 -7zM14 577q-4 14 12 37q10 15 25 25q4 4 6 5q47 33 88 22q43 -11 57 -48q5 -15 -11 -27q-25 -18 -53 -24q-16 -19 -53 -19q-26 0 -46 8
q-22 7 -25 21zM185 53q-7 -12 -21 -17q2 -14 -10 -19q-18 -9 -38.5 -5t-34.5 18q-1 0 -1 1t-1 2q-7 3 -15 9q-5 5 -9 11t-6 11.5t-4 14t-3 13t-2.5 15t-1.5 13.5q-14 118 -13 223q0 82 3 109q5 34 21 50q2 4 8 10q15 10 21.5 14t23 11.5t27 3.5t16.5 -18q14 2 16 -12
q0 -18 -1 -54.5t-1 -55.5q0 -16 0.5 -34.5t1.5 -41t1 -34.5q0 -7 2 -25q1 0 2 -8.5t2.5 -17t2.5 -8.5q-6 131 1 247l7 2q-6 -211 23 -427q0 -5 -3.5 -7t-8 -0.5t-5.5 6.5zM74 461q-4 -13 -7 -27t-4.5 -31t-2 -27.5t-1.5 -31t-1 -27.5v-10v-2q2 -24 8 -72h3l-1 67q0 68 1 68
q0 65 13 103h-1q-7 -5 -7 -10zM457 86q-15 0 -33 7q39 -30 71 -11q16 9 36 31q-33 -30 -74 -27zM499 452q-44 0 -70 7q-25 8 -31 22q0 -4 0.5 -11.5t0.5 -11.5q1 -8 26 -8q50 0 74 1v1zM562 604q-31 -12 -68 -1q0 -5 -3 -7q16 -9 36.5 -6.5t34.5 14.5zM465 638q9 13 26 24
t33 13q27 5 46 -7q4 5 10.5 5t11.5 -6q15 -26 2 -53t-41 -36q-16 -9 -47.5 -3.5t-32.5 27.5q-24 15 -8 36zM646 174q-11 -88 -58 -128q-36 -32 -77 -33q-22 -4 -46 0q-12 -1 -29 2q-61 13 -108 71q-44 50 -64 114q-13 38 -17 74q-3 3 -5 8q-21 124 34 148q35 14 57 -13
q17 -20 12 -52q0 -1 1 -3q-2 -60 11 -109q13 -51 54 -105q26 -19 50 -15q18 2 30 16.5t16 33.5q8 34 6 103q-2 62 -7 112q0 4 -1 12.5t-2 12.5q-21 0 -65 2q-1 0 -12 0.5t-16 1t-13.5 2.5t-12.5 6.5t-5 11.5q-1 8 -1.5 23t-0.5 20q0 34 1 38q3 12 16 17q-2 11 2 17q1 3 4 4
q59 -17 133 -10h2h1q19 2 57 8v-2q1 0 1 -1t1 -2q2 10 11 5q22 -383 10 -429q-14 -58 -46 -81q20 13 32 26q20 23 25 56.5t5 93.5q0 38 -3 88t-7 118t-6 112l2 1q2 1 4 1l2 1q2 -23 8 -89t8 -102q1 -9 5.5 -62t3.5 -62.5t-3 -61.5z" />
    <glyph glyph-name="ij" unicode="&#x133;" horiz-adv-x="670" 
d="M81 553q13 0 21.5 2.5t11.5 4.5t2 2q-22 -6 -48 -1q-21 4 -29.5 19t-0.5 33q-7 -8 -13 -19q-7 -15 3 -23t19 -11q15 -5 34 -7zM14 577q-4 14 12 37q10 15 25 25q4 4 6 5q47 33 88 22q43 -11 57 -48q5 -15 -11 -27q-25 -18 -53 -24q-16 -19 -53 -19q-26 0 -46 8
q-22 7 -25 21zM185 53q-7 -12 -21 -17q2 -14 -10 -19q-18 -9 -38.5 -5t-34.5 18q-1 0 -1 1t-1 2q-7 3 -15 9q-5 5 -9 11t-6 11.5t-4 14t-3 13t-2.5 15t-1.5 13.5q-14 118 -13 223q0 82 3 109q5 34 21 50q2 4 8 10q15 10 21.5 14t23 11.5t27 3.5t16.5 -18q14 2 16 -12
q0 -18 -1 -54.5t-1 -55.5q0 -16 0.5 -34.5t1.5 -41t1 -34.5q0 -7 2 -25q1 0 2 -8.5t2.5 -17t2.5 -8.5q-6 131 1 247l7 2q-6 -211 23 -427q0 -5 -3.5 -7t-8 -0.5t-5.5 6.5zM74 461q-4 -13 -7 -27t-4.5 -31t-2 -27.5t-1.5 -31t-1 -27.5v-10v-2q2 -24 8 -72h3l-1 67q0 68 1 68
q0 65 13 103h-1q-7 -5 -7 -10zM457 86q-15 0 -33 7q39 -30 71 -11q16 9 36 31q-33 -30 -74 -27zM499 452q-44 0 -70 7q-25 8 -31 22q0 -4 0.5 -11.5t0.5 -11.5q1 -8 26 -8q50 0 74 1v1zM562 604q-31 -12 -68 -1q0 -5 -3 -7q16 -9 36.5 -6.5t34.5 14.5zM465 638q9 13 26 24
t33 13q27 5 46 -7q4 5 10.5 5t11.5 -6q15 -26 2 -53t-41 -36q-16 -9 -47.5 -3.5t-32.5 27.5q-24 15 -8 36zM646 174q-11 -88 -58 -128q-36 -32 -77 -33q-22 -4 -46 0q-12 -1 -29 2q-61 13 -108 71q-44 50 -64 114q-13 38 -17 74q-3 3 -5 8q-21 124 34 148q35 14 57 -13
q17 -20 12 -52q0 -1 1 -3q-2 -60 11 -109q13 -51 54 -105q26 -19 50 -15q18 2 30 16.5t16 33.5q8 34 6 103q-2 62 -7 112q0 4 -1 12.5t-2 12.5q-21 0 -65 2q-1 0 -12 0.5t-16 1t-13.5 2.5t-12.5 6.5t-5 11.5q-1 8 -1.5 23t-0.5 20q0 34 1 38q3 12 16 17q-2 11 2 17q1 3 4 4
q59 -17 133 -10h2h1q19 2 57 8v-2q1 0 1 -1t1 -2q2 10 11 5q22 -383 10 -429q-14 -58 -46 -81q20 13 32 26q20 23 25 56.5t5 93.5q0 38 -3 88t-7 118t-6 112l2 1q2 1 4 1l2 1q2 -23 8 -89t8 -102q1 -9 5.5 -62t3.5 -62.5t-3 -61.5z" />
    <glyph glyph-name="Kcommaaccent" unicode="&#x136;" horiz-adv-x="500" 
d="M510 39q-2 -1 -2 1t1 3q7 3 10.5 8.5t3.5 13.5t-1 16t-4 18t-5.5 17t-5.5 15.5t-4 10.5q-44 119 -132 216q33 -41 86 -141t56 -140q2 -21 -11 -37t-36 -16q-32 0 -45 28q-7 13 -7 28q-48 97 -145 203q-48 54 -77 75q-10 -4 -16 -6q-5 -2 -13.5 -5.5t-10.5 -4.5
q8 -84 18 -167l12 -66q1 -4 8.5 -27t9.5 -37q4 -16 -6 -24q-38 -32 -82 -16q-17 -2 -33 7t-24 26q-8 19 -15 88q-16 136 -21 204q-5 69 -11 205q0 9 -0.5 27t-0.5 27q-2 41 22 47q1 2 5 11q13 23 39 24t43 -17.5t8 -44.5q-4 -12 -6 -67l-3 -90q5 5 8 6q7 70 16 127h1v-7
q2 -72 4 -110q143 62 259 129q2 1 13 8t14.5 8.5t15 5t15.5 -0.5q24 -6 24 -35l3 3q8 6 15 0t3 -15q-24 -44 -64 -76t-101 -66q-5 -3 -13.5 -7t-12.5 -7q3 -2 7 -6t7 -6q-1 5 5 8.5t10 -0.5q94 -88 143 -201q24 -53 40 -114q10 -49 -17 -57zM361 -5q17 -26 2 -52v-3
q-4 -14 -21.5 -37.5t-37.5 -37.5q-8 -5 -17.5 6.5t-3.5 18.5q14 12 20 31q2 1 2 3q-19 0 -26 21t2.5 44t30.5 27q8 5 23 1.5t26 -22.5z" />
    <glyph glyph-name="kcommaaccent" unicode="&#x137;" horiz-adv-x="500" 
d="M510 39q-2 -1 -2 1t1 3q7 3 10.5 8.5t3.5 13.5t-1 16t-4 18t-5.5 17t-5.5 15.5t-4 10.5q-44 119 -132 216q33 -41 86 -141t56 -140q2 -21 -11 -37t-36 -16q-32 0 -45 28q-7 13 -7 28q-48 97 -145 203q-48 54 -77 75q-10 -4 -16 -6q-5 -2 -13.5 -5.5t-10.5 -4.5
q8 -84 18 -167l12 -66q1 -4 8.5 -27t9.5 -37q4 -16 -6 -24q-38 -32 -82 -16q-17 -2 -33 7t-24 26q-8 19 -15 88q-16 136 -21 204q-5 69 -11 205q0 9 -0.5 27t-0.5 27q-2 41 22 47q1 2 5 11q13 23 39 24t43 -17.5t8 -44.5q-4 -12 -6 -67l-3 -90q5 5 8 6q7 70 16 127h1v-7
q2 -72 4 -110q143 62 259 129q2 1 13 8t14.5 8.5t15 5t15.5 -0.5q24 -6 24 -35l3 3q8 6 15 0t3 -15q-24 -44 -64 -76t-101 -66q-5 -3 -13.5 -7t-12.5 -7q3 -2 7 -6t7 -6q-1 5 5 8.5t10 -0.5q94 -88 143 -201q24 -53 40 -114q10 -49 -17 -57zM361 -5q17 -26 2 -52v-3
q-4 -14 -21.5 -37.5t-37.5 -37.5q-8 -5 -17.5 6.5t-3.5 18.5q14 12 20 31q2 1 2 3q-19 0 -26 21t2.5 44t30.5 27q8 5 23 1.5t26 -22.5z" />
    <glyph glyph-name="Lacute" unicode="&#x139;" horiz-adv-x="470" 
d="M427 -12q-86 6 -164 2q-41 -2 -81 -6q-2 0 -34 -4.5t-47 -2.5q-2 0 0 2q15 7 79 17q54 6 76 8q86 8 171 6q6 0 8.5 -6t0 -11t-8.5 -5zM444 29q-176 12 -340 -32q-18 -5 -34.5 7.5t-15.5 31.5q0 5 0.5 14.5t0.5 14.5l3 117q-5 42 -16 142q-21 224 -25 283q-2 24 15.5 37
t41.5 9q13 -1 28 -9q16 -4 26 -11q10 -54 18 -108l5 -29q1 26 -2 78q-2 40 -15 64q-1 2 1 3t3 -1q8 -10 13.5 -21t8.5 -27t4.5 -23.5t4 -29t2.5 -24.5q5 -47 13 -152q6 -79 9 -159l3 -51q1 0 2 1v-2q0 -2 -0.5 -3.5t-0.5 -2.5q68 17 146 19h19h22h18q31 -2 44 -12
q22 -16 22 -34q0 -6 -2 -16q8 -10 12 -16q11 -18 -1 -39t-33 -19zM38 573q1 -9 2.5 -27.5t2.5 -27.5q3 -32 5.5 -68t5 -79t4.5 -67v55l-3 147q-3 69 2 85q2 22 3 34q2 5 5 10q-7 0 -15 -3t-11.5 -11t-3.5 -14t1.5 -18.5t1.5 -15.5zM141 806q13 -20 8.5 -31t-39.5 -48l-3 -3
t-2.5 -3t-2.5 -3q-20 -20 -36 -30q-33 -14 -47 -4q-5 3 -6 7.5t1.5 12t5.5 13.5t10 17.5t11 17.5q24 43 49 58.5t51 -4.5z" />
    <glyph glyph-name="lacute" unicode="&#x13a;" horiz-adv-x="470" 
d="M427 -12q-86 6 -164 2q-41 -2 -81 -6q-2 0 -34 -4.5t-47 -2.5q-2 0 0 2q15 7 79 17q54 6 76 8q86 8 171 6q6 0 8.5 -6t0 -11t-8.5 -5zM444 29q-176 12 -340 -32q-18 -5 -34.5 7.5t-15.5 31.5q0 5 0.5 14.5t0.5 14.5l3 117q-5 42 -16 142q-21 224 -25 283q-2 24 15.5 37
t41.5 9q13 -1 28 -9q16 -4 26 -11q10 -54 18 -108l5 -29q1 26 -2 78q-2 40 -15 64q-1 2 1 3t3 -1q8 -10 13.5 -21t8.5 -27t4.5 -23.5t4 -29t2.5 -24.5q5 -47 13 -152q6 -79 9 -159l3 -51q1 0 2 1v-2q0 -2 -0.5 -3.5t-0.5 -2.5q68 17 146 19h19h22h18q31 -2 44 -12
q22 -16 22 -34q0 -6 -2 -16q8 -10 12 -16q11 -18 -1 -39t-33 -19zM38 573q1 -9 2.5 -27.5t2.5 -27.5q3 -32 5.5 -68t5 -79t4.5 -67v55l-3 147q-3 69 2 85q2 22 3 34q2 5 5 10q-7 0 -15 -3t-11.5 -11t-3.5 -14t1.5 -18.5t1.5 -15.5zM141 806q13 -20 8.5 -31t-39.5 -48l-3 -3
t-2.5 -3t-2.5 -3q-20 -20 -36 -30q-33 -14 -47 -4q-5 3 -6 7.5t1.5 12t5.5 13.5t10 17.5t11 17.5q24 43 49 58.5t51 -4.5z" />
    <glyph glyph-name="Lcommaaccent" unicode="&#x13b;" horiz-adv-x="470" 
d="M427 -12q-86 6 -164 2q-41 -2 -81 -6q-2 0 -34 -4.5t-47 -2.5q-2 0 0 2q15 7 79 17q54 6 76 8q86 8 171 6q6 0 8.5 -6t0 -11t-8.5 -5zM444 29q-176 12 -340 -32q-18 -5 -34.5 7.5t-15.5 31.5q0 5 0.5 14.5t0.5 14.5l3 117q-5 42 -16 142q-21 224 -25 283q-2 24 15.5 37
t41.5 9q13 -1 28 -9q16 -4 26 -11q10 -54 18 -108l5 -29q1 26 -2 78q-2 40 -15 64q-1 2 1 3t3 -1q8 -10 13.5 -21t8.5 -27t4.5 -23.5t4 -29t2.5 -24.5q5 -47 13 -152q6 -79 9 -159l3 -51q1 0 2 1v-2q0 -2 -0.5 -3.5t-0.5 -2.5q68 17 146 19h19h22h18q31 -2 44 -12
q22 -16 22 -34q0 -6 -2 -16q8 -10 12 -16q11 -18 -1 -39t-33 -19zM38 573q1 -9 2.5 -27.5t2.5 -27.5q3 -32 5.5 -68t5 -79t4.5 -67v55l-3 147q-3 69 2 85q2 22 3 34q2 5 5 10q-7 0 -15 -3t-11.5 -11t-3.5 -14t1.5 -18.5t1.5 -15.5zM304 -84q17 -26 2 -52v-3
q-4 -14 -21.5 -37.5t-37.5 -37.5q-8 -5 -17.5 6.5t-3.5 18.5q14 12 20 31q2 1 2 3q-19 0 -26 21t2.5 44t30.5 27q8 5 23 1.5t26 -22.5z" />
    <glyph glyph-name="lcommaaccent" unicode="&#x13c;" horiz-adv-x="470" 
d="M427 -12q-86 6 -164 2q-41 -2 -81 -6q-2 0 -34 -4.5t-47 -2.5q-2 0 0 2q15 7 79 17q54 6 76 8q86 8 171 6q6 0 8.5 -6t0 -11t-8.5 -5zM444 29q-176 12 -340 -32q-18 -5 -34.5 7.5t-15.5 31.5q0 5 0.5 14.5t0.5 14.5l3 117q-5 42 -16 142q-21 224 -25 283q-2 24 15.5 37
t41.5 9q13 -1 28 -9q16 -4 26 -11q10 -54 18 -108l5 -29q1 26 -2 78q-2 40 -15 64q-1 2 1 3t3 -1q8 -10 13.5 -21t8.5 -27t4.5 -23.5t4 -29t2.5 -24.5q5 -47 13 -152q6 -79 9 -159l3 -51q1 0 2 1v-2q0 -2 -0.5 -3.5t-0.5 -2.5q68 17 146 19h19h22h18q31 -2 44 -12
q22 -16 22 -34q0 -6 -2 -16q8 -10 12 -16q11 -18 -1 -39t-33 -19zM38 573q1 -9 2.5 -27.5t2.5 -27.5q3 -32 5.5 -68t5 -79t4.5 -67v55l-3 147q-3 69 2 85q2 22 3 34q2 5 5 10q-7 0 -15 -3t-11.5 -11t-3.5 -14t1.5 -18.5t1.5 -15.5zM304 -84q17 -26 2 -52v-3
q-4 -14 -21.5 -37.5t-37.5 -37.5q-8 -5 -17.5 6.5t-3.5 18.5q14 12 20 31q2 1 2 3q-19 0 -26 21t2.5 44t30.5 27q8 5 23 1.5t26 -22.5z" />
    <glyph glyph-name="Lcaron" unicode="&#x13d;" horiz-adv-x="470" 
d="M402 624q13 -7 15.5 -15t-1.5 -20.5t-16 -40.5q-2 -3 -3 -5.5t-2 -5.5q-12 -23 -22 -36q-24 -21 -39 -17q-5 1 -7.5 4.5t-2 11t1 13t3.5 17.5t4 18q7 44 25 66t44 10zM427 -12q-86 6 -164 2q-41 -2 -81 -6q-2 0 -34 -4.5t-47 -2.5q-2 0 0 2q15 7 79 17q54 6 76 8
q86 8 171 6q6 0 8.5 -6t0 -11t-8.5 -5zM444 29q-176 12 -340 -32q-18 -5 -34.5 7.5t-15.5 31.5q0 5 0.5 14.5t0.5 14.5l3 117q-5 42 -16 142q-21 224 -25 283q-2 24 15.5 37t41.5 9q13 -1 28 -9q16 -4 26 -11q10 -54 18 -108l5 -29q1 26 -2 78q-2 40 -15 64q-1 2 1 3t3 -1
q8 -10 13.5 -21t8.5 -27t4.5 -23.5t4 -29t2.5 -24.5q5 -47 13 -152q6 -79 9 -159l3 -51q1 0 2 1v-2q0 -2 -0.5 -3.5t-0.5 -2.5q68 17 146 19h19h22h18q31 -2 44 -12q22 -16 22 -34q0 -6 -2 -16q8 -10 12 -16q11 -18 -1 -39t-33 -19zM38 573q1 -9 2.5 -27.5t2.5 -27.5
q3 -32 5.5 -68t5 -79t4.5 -67v55l-3 147q-3 69 2 85q2 22 3 34q2 5 5 10q-7 0 -15 -3t-11.5 -11t-3.5 -14t1.5 -18.5t1.5 -15.5z" />
    <glyph glyph-name="lcaron" unicode="&#x13e;" horiz-adv-x="470" 
d="M402 624q13 -7 15.5 -15t-1.5 -20.5t-16 -40.5q-2 -3 -3 -5.5t-2 -5.5q-12 -23 -22 -36q-24 -21 -39 -17q-5 1 -7.5 4.5t-2 11t1 13t3.5 17.5t4 18q7 44 25 66t44 10zM427 -12q-86 6 -164 2q-41 -2 -81 -6q-2 0 -34 -4.5t-47 -2.5q-2 0 0 2q15 7 79 17q54 6 76 8
q86 8 171 6q6 0 8.5 -6t0 -11t-8.5 -5zM444 29q-176 12 -340 -32q-18 -5 -34.5 7.5t-15.5 31.5q0 5 0.5 14.5t0.5 14.5l3 117q-5 42 -16 142q-21 224 -25 283q-2 24 15.5 37t41.5 9q13 -1 28 -9q16 -4 26 -11q10 -54 18 -108l5 -29q1 26 -2 78q-2 40 -15 64q-1 2 1 3t3 -1
q8 -10 13.5 -21t8.5 -27t4.5 -23.5t4 -29t2.5 -24.5q5 -47 13 -152q6 -79 9 -159l3 -51q1 0 2 1v-2q0 -2 -0.5 -3.5t-0.5 -2.5q68 17 146 19h19h22h18q31 -2 44 -12q22 -16 22 -34q0 -6 -2 -16q8 -10 12 -16q11 -18 -1 -39t-33 -19zM38 573q1 -9 2.5 -27.5t2.5 -27.5
q3 -32 5.5 -68t5 -79t4.5 -67v55l-3 147q-3 69 2 85q2 22 3 34q2 5 5 10q-7 0 -15 -3t-11.5 -11t-3.5 -14t1.5 -18.5t1.5 -15.5z" />
    <glyph glyph-name="Ldot" unicode="&#x13f;" horiz-adv-x="470" 
d="M337 344q11 -12 4 -28l-1 -2v-2q-7 -22 -29.5 -30t-41.5 6q-2 1 -4 3q-7 0 -10 7q-2 6 -2 10q-4 7 -4 17q0 11 6 21q6 8 12 12q1 0 3 1.5t3 2.5q11 9 22 8h5q27 -2 37 -26zM427 -12q-86 6 -164 2q-41 -2 -81 -6q-2 0 -34 -4.5t-47 -2.5q-2 0 0 2q15 7 79 17q54 6 76 8
q86 8 171 6q6 0 8.5 -6t0 -11t-8.5 -5zM444 29q-176 12 -340 -32q-18 -5 -34.5 7.5t-15.5 31.5q0 5 0.5 14.5t0.5 14.5l3 117q-5 42 -16 142q-21 224 -25 283q-2 24 15.5 37t41.5 9q13 -1 28 -9q16 -4 26 -11q10 -54 18 -108l5 -29q1 26 -2 78q-2 40 -15 64q-1 2 1 3t3 -1
q8 -10 13.5 -21t8.5 -27t4.5 -23.5t4 -29t2.5 -24.5q5 -47 13 -152q6 -79 9 -159l3 -51q1 0 2 1v-2q0 -2 -0.5 -3.5t-0.5 -2.5q68 17 146 19h19h22h18q31 -2 44 -12q22 -16 22 -34q0 -6 -2 -16q8 -10 12 -16q11 -18 -1 -39t-33 -19zM38 573q1 -9 2.5 -27.5t2.5 -27.5
q3 -32 5.5 -68t5 -79t4.5 -67v55l-3 147q-3 69 2 85q2 22 3 34q2 5 5 10q-7 0 -15 -3t-11.5 -11t-3.5 -14t1.5 -18.5t1.5 -15.5z" />
    <glyph glyph-name="ldot" unicode="&#x140;" horiz-adv-x="470" 
d="M337 344q11 -12 4 -28l-1 -2v-2q-7 -22 -29.5 -30t-41.5 6q-2 1 -4 3q-7 0 -10 7q-2 6 -2 10q-4 7 -4 17q0 11 6 21q6 8 12 12q1 0 3 1.5t3 2.5q11 9 22 8h5q27 -2 37 -26zM427 -12q-86 6 -164 2q-41 -2 -81 -6q-2 0 -34 -4.5t-47 -2.5q-2 0 0 2q15 7 79 17q54 6 76 8
q86 8 171 6q6 0 8.5 -6t0 -11t-8.5 -5zM444 29q-176 12 -340 -32q-18 -5 -34.5 7.5t-15.5 31.5q0 5 0.5 14.5t0.5 14.5l3 117q-5 42 -16 142q-21 224 -25 283q-2 24 15.5 37t41.5 9q13 -1 28 -9q16 -4 26 -11q10 -54 18 -108l5 -29q1 26 -2 78q-2 40 -15 64q-1 2 1 3t3 -1
q8 -10 13.5 -21t8.5 -27t4.5 -23.5t4 -29t2.5 -24.5q5 -47 13 -152q6 -79 9 -159l3 -51q1 0 2 1v-2q0 -2 -0.5 -3.5t-0.5 -2.5q68 17 146 19h19h22h18q31 -2 44 -12q22 -16 22 -34q0 -6 -2 -16q8 -10 12 -16q11 -18 -1 -39t-33 -19zM38 573q1 -9 2.5 -27.5t2.5 -27.5
q3 -32 5.5 -68t5 -79t4.5 -67v55l-3 147q-3 69 2 85q2 22 3 34q2 5 5 10q-7 0 -15 -3t-11.5 -11t-3.5 -14t1.5 -18.5t1.5 -15.5z" />
    <glyph glyph-name="Lslash" unicode="&#x141;" horiz-adv-x="520" 
d="M528 87q11 -18 -1 -39t-33 -19q-176 12 -340 -32q-18 -5 -34.5 7.5t-15.5 31.5q0 5 0.5 14.5t0.5 14.5q1 17 1.5 36.5t1 43.5t0.5 37q-9 66 -11 88q-30 -13 -43 -17q-27 -7 -36 22t13 46q15 11 58 35q-19 198 -22 251q-2 24 15.5 37t41.5 9q13 -1 28 -9q16 -4 26 -11
q10 -54 18 -108l5 -29q1 26 -2 78q-2 40 -15 64q-1 2 1 3t3 -1q8 -10 13.5 -21t8.5 -27t4.5 -23.5t4 -29t2.5 -24.5l8 -86l36 20q20 12 37.5 -1.5t17.5 -35t-17 -37.5q-24 -16 -69 -38q8 -96 9 -133l3 -51q1 0 2 1v-2q0 -2 -0.5 -3.5t-0.5 -2.5q68 17 146 19h59
q31 -2 44 -12q22 -16 22 -34q0 -6 -2 -16q8 -10 12 -16zM93 518q8 -107 11 -154l4 2q-1 46 -3 140q-3 69 2 85l3 34q2 5 5 10q-7 0 -15 -3t-11.5 -11t-3.5 -14t1.5 -18.5t1.5 -15.5q1 -9 2.5 -27.5t2.5 -27.5zM477 10q6 0 8.5 -6t0 -11t-8.5 -5q-86 6 -164 2q-41 -2 -81 -6
q-2 0 -34 -4.5t-47 -2.5q-2 0 0 2q15 7 79 17q54 6 76 8q86 8 171 6z" />
    <glyph glyph-name="lslash" unicode="&#x142;" horiz-adv-x="520" 
d="M528 87q11 -18 -1 -39t-33 -19q-176 12 -340 -32q-18 -5 -34.5 7.5t-15.5 31.5q0 5 0.5 14.5t0.5 14.5q1 17 1.5 36.5t1 43.5t0.5 37q-9 66 -11 88q-30 -13 -43 -17q-27 -7 -36 22t13 46q15 11 58 35q-19 198 -22 251q-2 24 15.5 37t41.5 9q13 -1 28 -9q16 -4 26 -11
q10 -54 18 -108l5 -29q1 26 -2 78q-2 40 -15 64q-1 2 1 3t3 -1q8 -10 13.5 -21t8.5 -27t4.5 -23.5t4 -29t2.5 -24.5l8 -86l36 20q20 12 37.5 -1.5t17.5 -35t-17 -37.5q-24 -16 -69 -38q8 -96 9 -133l3 -51q1 0 2 1v-2q0 -2 -0.5 -3.5t-0.5 -2.5q68 17 146 19h59
q31 -2 44 -12q22 -16 22 -34q0 -6 -2 -16q8 -10 12 -16zM93 518q8 -107 11 -154l4 2q-1 46 -3 140q-3 69 2 85l3 34q2 5 5 10q-7 0 -15 -3t-11.5 -11t-3.5 -14t1.5 -18.5t1.5 -15.5q1 -9 2.5 -27.5t2.5 -27.5zM477 10q6 0 8.5 -6t0 -11t-8.5 -5q-86 6 -164 2q-41 -2 -81 -6
q-2 0 -34 -4.5t-47 -2.5q-2 0 0 2q15 7 79 17q54 6 76 8q86 8 171 6z" />
    <glyph glyph-name="Nacute" unicode="&#x143;" horiz-adv-x="510" 
d="M52 107q-1 18 -10 222q-3 71 -5 215q-2 30 8 52q-1 -32 1 -96q1 -69 5 -209q2 -36 5 -113.5t4 -111.5l-4 12zM434 -3q-9 -6 -20 0q-27 12 -38 69q-2 12 -6 34l-174 311q-2 2 -16 22v-64v-75.5v-64.5q2 -40 4 -120q5 -23 1 -57t-30 -38q-20 -33 -57 -21q-16 4 -28 19
q-5 84 -11 252q-1 30 -2 64.5t-2 76t-2 64.5q-2 99 0 131q10 8 19 9q0 12 8 23q13 13 27 14t31 -11t28.5 -23t20.5 -23q40 -53 89 -142q32 -54 64 -120q2 -4 2 -10q6 -11 16 -31q-3 28 -25 154q-16 84 -23 108q-1 3 -3.5 11t-3 12t-1.5 11t0.5 12.5t4.5 11.5q7 12 17 18v1
l1 1q8 15 27.5 16.5t31.5 -8.5q3 -1 7 -5l15 -57q18 -65 35 -179q25 -152 39 -369q-20 -27 -46 -27zM490 34q-2 0 -4 -3q-22 321 -76 567q-2 6 3 11q4 5 11 4t8 -8q58 -282 57 -528q3 -19 1 -43zM164 156l-3 -3q-1 0 -2 -1l-1 -60q0 -2 4 -28.5t0 -35.5q10 17 8 34
q-2 40 -4 59q0 11 -2 35zM329 769q13 -20 8.5 -31t-39.5 -48l-3 -3t-2.5 -3t-2.5 -3q-20 -20 -36 -30q-33 -14 -47 -4q-5 3 -6 7.5t1.5 12t5.5 13.5t10 17.5t11 17.5q24 43 49 58.5t51 -4.5z" />
    <glyph glyph-name="nacute" unicode="&#x144;" horiz-adv-x="510" 
d="M52 107q-1 18 -10 222q-3 71 -5 215q-2 30 8 52q-1 -32 1 -96q1 -69 5 -209q2 -36 5 -113.5t4 -111.5l-4 12zM434 -3q-9 -6 -20 0q-27 12 -38 69q-2 12 -6 34l-174 311q-2 2 -16 22v-64v-75.5v-64.5q2 -40 4 -120q5 -23 1 -57t-30 -38q-20 -33 -57 -21q-16 4 -28 19
q-5 84 -11 252q-1 30 -2 64.5t-2 76t-2 64.5q-2 99 0 131q10 8 19 9q0 12 8 23q13 13 27 14t31 -11t28.5 -23t20.5 -23q40 -53 89 -142q32 -54 64 -120q2 -4 2 -10q6 -11 16 -31q-3 28 -25 154q-16 84 -23 108q-1 3 -3.5 11t-3 12t-1.5 11t0.5 12.5t4.5 11.5q7 12 17 18v1
l1 1q8 15 27.5 16.5t31.5 -8.5q3 -1 7 -5l15 -57q18 -65 35 -179q25 -152 39 -369q-20 -27 -46 -27zM490 34q-2 0 -4 -3q-22 321 -76 567q-2 6 3 11q4 5 11 4t8 -8q58 -282 57 -528q3 -19 1 -43zM164 156l-3 -3q-1 0 -2 -1l-1 -60q0 -2 4 -28.5t0 -35.5q10 17 8 34
q-2 40 -4 59q0 11 -2 35zM329 769q13 -20 8.5 -31t-39.5 -48l-3 -3t-2.5 -3t-2.5 -3q-20 -20 -36 -30q-33 -14 -47 -4q-5 3 -6 7.5t1.5 12t5.5 13.5t10 17.5t11 17.5q24 43 49 58.5t51 -4.5z" />
    <glyph glyph-name="Ncommaaccent" unicode="&#x145;" horiz-adv-x="510" 
d="M52 107q-1 18 -10 222q-3 71 -5 215q-2 30 8 52q-1 -32 1 -96q1 -69 5 -209q2 -36 5 -113.5t4 -111.5l-4 12zM434 -3q-9 -6 -20 0q-27 12 -38 69q-2 12 -6 34l-174 311q-2 2 -16 22v-64v-75.5v-64.5q2 -40 4 -120q5 -23 1 -57t-30 -38q-20 -33 -57 -21q-16 4 -28 19
q-5 84 -11 252q-1 30 -2 64.5t-2 76t-2 64.5q-2 99 0 131q10 8 19 9q0 12 8 23q13 13 27 14t31 -11t28.5 -23t20.5 -23q40 -53 89 -142q32 -54 64 -120q2 -4 2 -10q6 -11 16 -31q-3 28 -25 154q-16 84 -23 108q-1 3 -3.5 11t-3 12t-1.5 11t0.5 12.5t4.5 11.5q7 12 17 18v1
l1 1q8 15 27.5 16.5t31.5 -8.5q3 -1 7 -5l15 -57q18 -65 35 -179q25 -152 39 -369q-20 -27 -46 -27zM490 34q-2 0 -4 -3q-22 321 -76 567q-2 6 3 11q4 5 11 4t8 -8q58 -282 57 -528q3 -19 1 -43zM164 156l-3 -3q-1 0 -2 -1l-1 -60q0 -2 4 -28.5t0 -35.5q10 17 8 34
q-2 40 -4 59q0 11 -2 35zM327 -42q17 -26 2 -52v-3q-4 -14 -21.5 -37.5t-37.5 -37.5q-8 -5 -17.5 6.5t-3.5 18.5q14 12 20 31q2 1 2 3q-19 0 -26 21t2.5 44t30.5 27q8 5 23 1.5t26 -22.5z" />
    <glyph glyph-name="ncommaaccent" unicode="&#x146;" horiz-adv-x="510" 
d="M52 107q-1 18 -10 222q-3 71 -5 215q-2 30 8 52q-1 -32 1 -96q1 -69 5 -209q2 -36 5 -113.5t4 -111.5l-4 12zM434 -3q-9 -6 -20 0q-27 12 -38 69q-2 12 -6 34l-174 311q-2 2 -16 22v-64v-75.5v-64.5q2 -40 4 -120q5 -23 1 -57t-30 -38q-20 -33 -57 -21q-16 4 -28 19
q-5 84 -11 252q-1 30 -2 64.5t-2 76t-2 64.5q-2 99 0 131q10 8 19 9q0 12 8 23q13 13 27 14t31 -11t28.5 -23t20.5 -23q40 -53 89 -142q32 -54 64 -120q2 -4 2 -10q6 -11 16 -31q-3 28 -25 154q-16 84 -23 108q-1 3 -3.5 11t-3 12t-1.5 11t0.5 12.5t4.5 11.5q7 12 17 18v1
l1 1q8 15 27.5 16.5t31.5 -8.5q3 -1 7 -5l15 -57q18 -65 35 -179q25 -152 39 -369q-20 -27 -46 -27zM490 34q-2 0 -4 -3q-22 321 -76 567q-2 6 3 11q4 5 11 4t8 -8q58 -282 57 -528q3 -19 1 -43zM164 156l-3 -3q-1 0 -2 -1l-1 -60q0 -2 4 -28.5t0 -35.5q10 17 8 34
q-2 40 -4 59q0 11 -2 35zM327 -42q17 -26 2 -52v-3q-4 -14 -21.5 -37.5t-37.5 -37.5q-8 -5 -17.5 6.5t-3.5 18.5q14 12 20 31q2 1 2 3q-19 0 -26 21t2.5 44t30.5 27q8 5 23 1.5t26 -22.5z" />
    <glyph glyph-name="Ncaron" unicode="&#x147;" horiz-adv-x="510" 
d="M52 107q-1 18 -10 222q-3 71 -5 215q-2 30 8 52q-1 -32 1 -96q1 -69 5 -209q2 -36 5 -113.5t4 -111.5l-4 12zM434 -3q-9 -6 -20 0q-27 12 -38 69q-2 12 -6 34l-174 311q-2 2 -16 22v-64v-75.5v-64.5q2 -40 4 -120q5 -23 1 -57t-30 -38q-20 -33 -57 -21q-16 4 -28 19
q-5 84 -11 252q-1 30 -2 64.5t-2 76t-2 64.5q-2 99 0 131q10 8 19 9q0 12 8 23q13 13 27 14t31 -11t28.5 -23t20.5 -23q40 -53 89 -142q32 -54 64 -120q2 -4 2 -10q6 -11 16 -31q-3 28 -25 154q-16 84 -23 108q-1 3 -3.5 11t-3 12t-1.5 11t0.5 12.5t4.5 11.5q7 12 17 18v1
l1 1q8 15 27.5 16.5t31.5 -8.5q3 -1 7 -5l15 -57q18 -65 35 -179q25 -152 39 -369q-20 -27 -46 -27zM490 34q-2 0 -4 -3q-22 321 -76 567q-2 6 3 11q4 5 11 4t8 -8q58 -282 57 -528q3 -19 1 -43zM164 156l-3 -3q-1 0 -2 -1l-1 -60q0 -2 4 -28.5t0 -35.5q10 17 8 34
q-2 40 -4 59q0 11 -2 35zM283 737q29 25 57 14q23 -10 10 -31q-2 -4 -6 -8q-5 -5 -16.5 -18.5t-19.5 -23t-21.5 -20.5t-25 -16.5t-26.5 -5.5t-29 8q-25 14 -57.5 52.5t-32.5 56.5q0 13 21 17.5t27 -4.5q11 -14 28.5 -32t23.5 -27q9 -13 14.5 -16.5t10.5 1t9.5 12t13.5 20
t19 21.5z" />
    <glyph glyph-name="ncaron" unicode="&#x148;" horiz-adv-x="510" 
d="M52 107q-1 18 -10 222q-3 71 -5 215q-2 30 8 52q-1 -32 1 -96q1 -69 5 -209q2 -36 5 -113.5t4 -111.5l-4 12zM434 -3q-9 -6 -20 0q-27 12 -38 69q-2 12 -6 34l-174 311q-2 2 -16 22v-64v-75.5v-64.5q2 -40 4 -120q5 -23 1 -57t-30 -38q-20 -33 -57 -21q-16 4 -28 19
q-5 84 -11 252q-1 30 -2 64.5t-2 76t-2 64.5q-2 99 0 131q10 8 19 9q0 12 8 23q13 13 27 14t31 -11t28.5 -23t20.5 -23q40 -53 89 -142q32 -54 64 -120q2 -4 2 -10q6 -11 16 -31q-3 28 -25 154q-16 84 -23 108q-1 3 -3.5 11t-3 12t-1.5 11t0.5 12.5t4.5 11.5q7 12 17 18v1
l1 1q8 15 27.5 16.5t31.5 -8.5q3 -1 7 -5l15 -57q18 -65 35 -179q25 -152 39 -369q-20 -27 -46 -27zM490 34q-2 0 -4 -3q-22 321 -76 567q-2 6 3 11q4 5 11 4t8 -8q58 -282 57 -528q3 -19 1 -43zM164 156l-3 -3q-1 0 -2 -1l-1 -60q0 -2 4 -28.5t0 -35.5q10 17 8 34
q-2 40 -4 59q0 11 -2 35zM283 737q29 25 57 14q23 -10 10 -31q-2 -4 -6 -8q-5 -5 -16.5 -18.5t-19.5 -23t-21.5 -20.5t-25 -16.5t-26.5 -5.5t-29 8q-25 14 -57.5 52.5t-32.5 56.5q0 13 21 17.5t27 -4.5q11 -14 28.5 -32t23.5 -27q9 -13 14.5 -16.5t10.5 1t9.5 12t13.5 20
t19 21.5z" />
    <glyph glyph-name="Eng" unicode="&#x14a;" horiz-adv-x="536" 
d="M515 -177q-10 -76 -49 -112q-30 -29 -66 -30q-18 -4 -40 -1q-11 -1 -25 2q-53 10 -96 60q-50 56 -67 129q-18 109 28 130q30 13 49 -11q16 -16 12 -44l1 -1v-2q-2 -83 49 -146q23 -16 43 -12q16 2 26.5 15t13.5 29q9 45 3 90l-13 114q-4 11 -8 33l-6 34l-174 311
q-2 2 -16 22v-64v-75.5v-64.5q2 -40 4 -120q5 -23 1 -57t-30 -38q-20 -33 -57 -21q-16 4 -28 19q-5 84 -11 252q-1 30 -2 64.5t-2 76t-2 64.5q-2 99 0 131q10 8 19 9q0 12 8 23q13 13 27 14t31 -11t28.5 -23t20.5 -23q40 -53 89 -142q32 -54 64 -120q2 -4 2 -10l16 -31
q-3 28 -25 154q-16 84 -23 108q-1 3 -3.5 11t-3 12t-1.5 11t0.5 12.5t4.5 11.5q7 12 17 18v1l1 1q8 15 27.5 16.5t31.5 -8.5q3 -1 7 -5l15 -57q18 -65 35 -179q28 -169 37 -371q17 -208 11 -233q-11 -53 -38 -71q16 11 27 23q12 14 17.5 36t6.5 41t0 54q-1 20 -9.5 98.5
t-8.5 89.5l-4 46q-21 273 -70 492q-2 6 3 11q4 5 11 4t8 -8q10 -48 17.5 -95.5t14 -106.5t9.5 -91.5t9.5 -107.5t8.5 -97t10 -90.5t12.5 -119t1.5 -74.5zM46 500q1 -69 5 -209l9 -225l-4 12l-4 29q-1 18 -10 222q-3 71 -5 215q-2 30 8 52q-1 -32 1 -96zM162 28q10 17 8 34
q-2 40 -4 59q0 11 -2 35l-3 -3q-1 0 -2 -1l-1 -60q0 -2 4 -28.5t0 -35.5zM385 -259q10 6 31 27q-29 -25 -64 -24q-14 0 -29 5q34 -25 62 -8z" />
    <glyph glyph-name="eng" unicode="&#x14b;" horiz-adv-x="528" 
d="M515 -177q-10 -76 -49 -112q-30 -29 -66 -30q-18 -4 -40 -1q-11 -1 -25 2q-53 10 -96 60q-50 56 -67 129q-18 109 28 130q30 13 49 -11q16 -16 12 -44l1 -1v-2q-2 -83 49 -146q23 -16 43 -12q16 2 26.5 15t13.5 29q9 45 3 90l-13 114q-4 11 -8 33l-6 34l-174 311
q-2 2 -16 22v-64v-75.5v-64.5q2 -40 4 -120q5 -23 1 -57t-30 -38q-20 -33 -57 -21q-16 4 -28 19q-5 84 -11 252q-1 30 -2 64.5t-2 76t-2 64.5q-2 99 0 131q10 8 19 9q0 12 8 23q13 13 27 14t31 -11t28.5 -23t20.5 -23q40 -53 89 -142q32 -54 64 -120q2 -4 2 -10l16 -31
q-3 28 -25 154q-16 84 -23 108q-1 3 -3.5 11t-3 12t-1.5 11t0.5 12.5t4.5 11.5q7 12 17 18v1l1 1q8 15 27.5 16.5t31.5 -8.5q3 -1 7 -5l15 -57q18 -65 35 -179q28 -169 37 -371q17 -208 11 -233q-11 -53 -38 -71q16 11 27 23q12 14 17.5 36t6.5 41t0 54q-1 20 -9.5 98.5
t-8.5 89.5l-4 46q-21 273 -70 492q-2 6 3 11q4 5 11 4t8 -8q10 -48 17.5 -95.5t14 -106.5t9.5 -91.5t9.5 -107.5t8.5 -97t10 -90.5t12.5 -119t1.5 -74.5zM46 500q1 -69 5 -209l9 -225l-4 12l-4 29q-1 18 -10 222q-3 71 -5 215q-2 30 8 52q-1 -32 1 -96zM162 28q10 17 8 34
q-2 40 -4 59q0 11 -2 35l-3 -3q-1 0 -2 -1l-1 -60q0 -2 4 -28.5t0 -35.5zM385 -259q10 6 31 27q-29 -25 -64 -24q-14 0 -29 5q34 -25 62 -8z" />
    <glyph glyph-name="Omacron" unicode="&#x14c;" horiz-adv-x="420" 
d="M253 478q-12 36 -19 53q-8 18 -10 22q-2 2 -4 2h-5q-6 -11 -13 -34q-18 -60 -25 -111q-14 -114 4 -225q3 -17 -4 -30q-49 228 31 397q-5 -3 -14 -19q-27 -53 -40 -119l-2 -4q-4 -23 -8 -69q-4 -96 20 -201q-5 -4 -11 -5q-19 -5 -36 7q1 0 1 -1q15 -30 40 -50t54 -11
q17 6 27 24q10 19 14 34q23 64 23 146q-9 114 -15 150q-1 7 -3.5 22t-4.5 22zM385 242q-10 -110 -47 -163q-18 -25 -37 -41q-30 -30 -70 -36q-17 -2 -33 0q-51 -9 -97 28q-58 50 -77 159q-33 209 65 372l2 2q15 40 40 72q1 1 2 1t0 -2q-12 -20 -16 -30q-5 -11 -13 -33h2.5h3
h2.5q30 66 73 75q24 9 39 8q26 6 43 -4q14 -9 30 -38q15 6 23 -8q27 -52 38 -84q11 -36 20 -91q16 -102 7 -187zM309 704q-40 -6 -96 -7.5t-90 3.5q-18 3 -24 14.5t1 22.5t23 15q13 4 43 7t72.5 5.5t58.5 4.5q24 2 36 -12t5 -31t-29 -22z" />
    <glyph glyph-name="omacron" unicode="&#x14d;" horiz-adv-x="420" 
d="M253 478q-12 36 -19 53q-8 18 -10 22q-2 2 -4 2h-5q-6 -11 -13 -34q-18 -60 -25 -111q-14 -114 4 -225q3 -17 -4 -30q-49 228 31 397q-5 -3 -14 -19q-27 -53 -40 -119l-2 -4q-4 -23 -8 -69q-4 -96 20 -201q-5 -4 -11 -5q-19 -5 -36 7q1 0 1 -1q15 -30 40 -50t54 -11
q17 6 27 24q10 19 14 34q23 64 23 146q-9 114 -15 150q-1 7 -3.5 22t-4.5 22zM385 242q-10 -110 -47 -163q-18 -25 -37 -41q-30 -30 -70 -36q-17 -2 -33 0q-51 -9 -97 28q-58 50 -77 159q-33 209 65 372l2 2q15 40 40 72q1 1 2 1t0 -2q-12 -20 -16 -30q-5 -11 -13 -33h2.5h3
h2.5q30 66 73 75q24 9 39 8q26 6 43 -4q14 -9 30 -38q15 6 23 -8q27 -52 38 -84q11 -36 20 -91q16 -102 7 -187zM309 704q-40 -6 -96 -7.5t-90 3.5q-18 3 -24 14.5t1 22.5t23 15q13 4 43 7t72.5 5.5t58.5 4.5q24 2 36 -12t5 -31t-29 -22z" />
    <glyph glyph-name="Ohungarumlaut" unicode="&#x150;" horiz-adv-x="420" 
d="M253 478q-12 36 -19 53q-8 18 -10 22q-2 2 -4 2h-5q-6 -11 -13 -34q-18 -60 -25 -111q-14 -114 4 -225q3 -17 -4 -30q-49 228 31 397q-5 -3 -14 -19q-27 -53 -40 -119l-2 -4q-4 -23 -8 -69q-4 -96 20 -201q-5 -4 -11 -5q-19 -5 -36 7q1 0 1 -1q15 -30 40 -50t54 -11
q17 6 27 24q10 19 14 34q23 64 23 146q-9 114 -15 150q-1 7 -3.5 22t-4.5 22zM385 242q-10 -110 -47 -163q-18 -25 -37 -41q-30 -30 -70 -36q-17 -2 -33 0q-51 -9 -97 28q-58 50 -77 159q-33 209 65 372l2 2q15 40 40 72q1 1 2 1t0 -2q-12 -20 -16 -30q-5 -11 -13 -33h2.5h3
h2.5q30 66 73 75q24 9 39 8q26 6 43 -4q14 -9 30 -38q15 6 23 -8q27 -52 38 -84q11 -36 20 -91q16 -102 7 -187zM384 763l-38 -41q-18 -22 -33 -33q-32 -16 -47 -7q-3 1 -5 3.5t-2 6v7t1.5 8.5t3 9t4 10.5t4.5 11t5 11.5t5 11l8 16q8 17 33 39q11 12 27.5 13.5t28.5 -8.5
q27 -24 5 -57zM244 763l-38 -41q-18 -22 -33 -33q-32 -16 -47 -7q-3 1 -5 3.5t-2 6v7t1.5 8.5t3 9t4 10.5t4.5 11t5 11.5t5 11l8 16q8 17 33 39q11 12 27.5 13.5t28.5 -8.5q27 -24 5 -57z" />
    <glyph glyph-name="ohungarumlaut" unicode="&#x151;" horiz-adv-x="420" 
d="M253 478q-12 36 -19 53q-8 18 -10 22q-2 2 -4 2h-5q-6 -11 -13 -34q-18 -60 -25 -111q-14 -114 4 -225q3 -17 -4 -30q-49 228 31 397q-5 -3 -14 -19q-27 -53 -40 -119l-2 -4q-4 -23 -8 -69q-4 -96 20 -201q-5 -4 -11 -5q-19 -5 -36 7q1 0 1 -1q15 -30 40 -50t54 -11
q17 6 27 24q10 19 14 34q23 64 23 146q-9 114 -15 150q-1 7 -3.5 22t-4.5 22zM385 242q-10 -110 -47 -163q-18 -25 -37 -41q-30 -30 -70 -36q-17 -2 -33 0q-51 -9 -97 28q-58 50 -77 159q-33 209 65 372l2 2q15 40 40 72q1 1 2 1t0 -2q-12 -20 -16 -30q-5 -11 -13 -33h2.5h3
h2.5q30 66 73 75q24 9 39 8q26 6 43 -4q14 -9 30 -38q15 6 23 -8q27 -52 38 -84q11 -36 20 -91q16 -102 7 -187zM384 763l-38 -41q-18 -22 -33 -33q-32 -16 -47 -7q-3 1 -5 3.5t-2 6v7t1.5 8.5t3 9t4 10.5t4.5 11t5 11.5t5 11l8 16q8 17 33 39q11 12 27.5 13.5t28.5 -8.5
q27 -24 5 -57zM244 763l-38 -41q-18 -22 -33 -33q-32 -16 -47 -7q-3 1 -5 3.5t-2 6v7t1.5 8.5t3 9t4 10.5t4.5 11t5 11.5t5 11l8 16q8 17 33 39q11 12 27.5 13.5t28.5 -8.5q27 -24 5 -57z" />
    </font>
</defs>
</svg>
